<svg width="133" height="100" viewBox="0 0 133 100" fill="none" xmlns="http://www.w3.org/2000/svg">
<g clip-path="url(#clip0_128_592)">
<path d="M51.6585 49.1774C51.569 49.2208 51.483 49.2712 51.4014 49.3281L43.0969 46.0819L42.7677 43.9409L39.4717 44.0154L39.6861 47.8622C39.7034 48.1729 39.8211 48.4697 40.0214 48.7079C40.2218 48.9461 40.494 49.1129 40.7972 49.1833L50.6788 51.4757C50.7995 51.8394 51.0281 52.1578 51.3342 52.3885C51.6402 52.6191 52.0093 52.7512 52.3922 52.767C52.7751 52.7828 53.1538 52.6817 53.4778 52.477C53.8019 52.2724 54.0559 51.9739 54.2062 51.6214C54.3565 51.2688 54.3959 50.8789 54.3192 50.5034C54.2424 50.1279 54.0532 49.7847 53.7766 49.5193C53.5 49.254 53.1492 49.0792 52.7709 49.0181C52.3925 48.9571 52.0045 49.0126 51.6585 49.1774Z" fill="#909090"/>
<path d="M39.1898 97.5478L41.3941 97.5476L42.4426 89.0457L39.1895 89.0458L39.1898 97.5478Z" fill="#909090"/>
<path d="M38.6279 96.8281L42.9688 96.8279H42.969C43.7027 96.8279 44.4063 97.1194 44.925 97.6381C45.4438 98.1569 45.7353 98.8605 45.7353 99.5942V99.6841L38.6281 99.6843L38.6279 96.8281Z" fill="#2F2E41"/>
<path d="M28.5824 97.5478L30.7866 97.5476L31.8352 89.0457L28.582 89.0458L28.5824 97.5478Z" fill="#909090"/>
<path d="M28.0205 96.8281L32.3614 96.8279H32.3616C33.0952 96.8279 33.7988 97.1194 34.3176 97.6381C34.8364 98.1569 35.1279 98.8605 35.1279 99.5942V99.6841L28.0206 99.6843L28.0205 96.8281Z" fill="#2F2E41"/>
<path d="M29.8607 32.7269C29.233 30.1349 28.7011 27.2115 29.885 24.8243C30.7064 23.168 33.7452 22.6102 35.4872 23.2069C37.2291 23.8036 38.4886 25.4226 39.0425 27.1877C39.5964 28.9529 39.532 30.855 39.2906 32.69C36.0869 32.6284 32.8832 32.5669 29.8607 32.7269Z" fill="#2F2E41"/>
<path d="M35.2671 32.7261C37.3304 32.7261 39.003 31.0535 39.003 28.9902C39.003 26.927 37.3304 25.2544 35.2671 25.2544C33.2038 25.2544 31.5312 26.927 31.5312 28.9902C31.5312 31.0535 33.2038 32.7261 35.2671 32.7261Z" fill="#909090"/>
<path d="M30.7001 28.2207C30.6882 27.5919 30.8028 26.9672 31.0371 26.3836C31.2715 25.8 31.6207 25.2695 32.0641 24.8235C32.5075 24.3776 33.0361 24.0253 33.6183 23.7877C34.2005 23.55 34.8246 23.4318 35.4534 23.4401C36.0823 23.4484 36.703 23.583 37.2788 23.8359C37.8545 24.0888 38.3736 24.4549 38.8051 24.9124C39.2366 25.3699 39.5717 25.9094 39.7906 26.499C40.0095 27.0886 40.1076 27.7161 40.0791 28.3443C36.8815 28.3511 33.6839 28.3579 30.7001 28.2207Z" fill="#2F2E41"/>
<path d="M32.1669 46.5088L30.6045 49.1128C30.6045 49.1128 26.3256 57.1379 26.5801 63.7899L27.527 72.0754L26.4878 74.1086L27.1834 77.686L25.8916 80.2486L28.2268 92.6202L28.3262 95.3032H32.1023L31.9035 92.5705L33.4934 80.518L36.1764 67.6496L37.5676 78.758L37.0708 81.5404L37.7167 83.8756L38.611 91.0799L38.7104 94.5579L42.1387 94.9554L43.4305 82.0869L44.1757 75.947L40.1816 48.7233L32.1669 46.5088Z" fill="#2F2E41"/>
<path d="M31.6705 33.9355L29.3445 34.9234L28.0381 40.3302L30.7887 47.3745L29.7604 50.8942C32.8732 56.2188 36.7259 56.9924 41.2596 53.5778C40.3001 50.8838 40.4387 48.1137 41.3949 45.2869C41.3949 45.2869 43.7798 43.0661 42.1138 40.1788L40.5246 35.8653L38.557 34.8815L31.6705 33.9355Z" fill="#CBCBCB"/>
<path d="M40.0664 36.8056L40.5945 35.825C40.5945 35.825 41.987 36.0344 42.5558 37.7108C43.1245 39.3872 43.2724 46.1595 43.2724 46.1595L40.2927 46.3104L40.0664 36.8056Z" fill="#CBCBCB"/>
<path d="M28.3935 59.7911C28.6463 59.6653 28.8684 59.4856 29.0443 59.2646C29.2201 59.0437 29.3453 58.7869 29.4112 58.5123C29.477 58.2377 29.4819 57.9521 29.4254 57.6754C29.3689 57.3988 29.2524 57.1379 29.0842 56.9111L30.5284 42.7903H27.4073L26.2595 56.5785C25.8972 56.8864 25.6605 57.3165 25.5942 57.7872C25.5279 58.258 25.6365 58.7367 25.8996 59.1327C26.1626 59.5287 26.5618 59.8144 27.0214 59.9357C27.4811 60.0571 27.9693 60.0056 28.3935 59.7911Z" fill="#909090"/>
<path d="M31.2454 36.5205L30.1516 34.9741C30.1516 34.9741 28.228 33.67 27.2473 36.6713C26.2667 39.6727 26.4175 45.2332 26.4175 45.2332L30.1516 46.7796L31.2454 36.5205Z" fill="#CBCBCB"/>
<path d="M96.4562 13.4844H79.1963V23.1931H96.4562V13.4844Z" fill="#F1F1F1"/>
<path d="M132.055 5.93311H114.795V15.6418H132.055V5.93311Z" fill="#F1F1F1"/>
<path d="M126.66 31.104H109.4V40.8127H126.66V31.104Z" fill="#F1F1F1"/>
<path d="M120.189 0H102.929V9.70873H120.189V0Z" fill="#E5E5E5"/>
<path d="M120.727 17.9004H92.3203V33.8793H120.727V17.9004Z" fill="#AAAAAA"/>
<path d="M63.3154 43.7898H93.1108V30.9871H93.5765V44.2555H63.3154V43.7898Z" fill="#3F3D56"/>
<path d="M93.3438 35.6975C94.7579 35.6975 95.9043 34.5511 95.9043 33.137C95.9043 31.7228 94.7579 30.5764 93.3438 30.5764C91.9296 30.5764 90.7832 31.7228 90.7832 33.137C90.7832 34.5511 91.9296 35.6975 93.3438 35.6975Z" fill="#3F3D56"/>
<path d="M70.6346 48.3774H56.668V48.843H70.6346V48.3774Z" fill="#AAAAAA"/>
<path d="M70.6346 49.7739H56.668V50.2395H70.6346V49.7739Z" fill="#AAAAAA"/>
<path d="M70.6346 51.1707H56.668V51.6362H70.6346V51.1707Z" fill="#AAAAAA"/>
</g>
<defs>
<clipPath id="clip0_128_592">
<rect width="131.571" height="100" fill="white" transform="translate(0.483398)"/>
</clipPath>
</defs>
</svg>
