<svg width="150" height="100" viewBox="0 0 150 100" fill="none" xmlns="http://www.w3.org/2000/svg">
<g clip-path="url(#clip0_128_524)">
<path d="M110.49 0.0625H0.422852V70.5544H110.49V0.0625Z" fill="#E6E6E6"/>
<path d="M107.343 8.90381H3.57031V35.7759H107.343V8.90381Z" fill="white"/>
<path d="M51.3284 12.7854H29.3828V14.0452H51.3284V12.7854Z" fill="#E6E6E6"/>
<path d="M63.2715 17.3806H29.3828V18.6404H63.2715V17.3806Z" fill="#AAAAAA"/>
<path d="M57.0013 21.71H29.3828V22.9697H57.0013V21.71Z" fill="#E6E6E6"/>
<path d="M45.5061 26.0229H29.3828V27.2827H45.5061V26.0229Z" fill="#E6E6E6"/>
<path d="M53.717 30.3362H29.3828V31.5959H53.717V30.3362Z" fill="#E6E6E6"/>
<path d="M22.0671 12.3374H19.3799V15.0246H22.0671V12.3374Z" fill="#E6E6E6"/>
<path d="M22.0671 16.667H19.3799V19.3542H22.0671V16.667Z" fill="#AAAAAA"/>
<path d="M22.0671 20.9963H19.3799V23.6835H22.0671V20.9963Z" fill="#E6E6E6"/>
<path d="M22.0671 25.3257H19.3799V28.0129H22.0671V25.3257Z" fill="#E6E6E6"/>
<path d="M22.0671 29.655H19.3799V32.3422H22.0671V29.655Z" fill="#E6E6E6"/>
<path d="M92.8304 18.4583H83.873V27.4156H92.8304V18.4583Z" fill="#E6E6E6"/>
<path d="M107.343 39.5081H3.57031V66.3801H107.343V39.5081Z" fill="white"/>
<path d="M26.696 41.8965H24.0088V44.5837H26.696V41.8965Z" fill="#E6E6E6"/>
<path d="M22.0671 41.8965H19.3799V44.5837H22.0671V41.8965Z" fill="#AAAAAA"/>
<path d="M64.9419 47.7728C64.1228 46.3862 62.9864 45.2138 61.626 44.352C60.2656 43.4902 58.72 42.9635 57.1164 42.8154C55.5128 42.6672 53.897 42.9018 52.4017 43.4999C50.9064 44.0979 49.5744 45.0423 48.5152 46.2554L47.8604 45.6831C49.0098 44.3661 50.4555 43.3408 52.0786 42.6915C53.7016 42.0422 55.4556 41.7874 57.1963 41.9482C58.937 42.1089 60.6146 42.6806 62.0913 43.6162C63.568 44.5518 64.8014 45.8246 65.6902 47.3299L64.9419 47.7728Z" fill="#E6E6E6"/>
<path d="M65.3526 59.1019L64.6309 58.6167C65.6998 57.0224 66.2963 55.1584 66.3515 53.2397C66.4066 51.3211 65.9183 49.4259 64.9428 47.7728L65.6911 47.3298C66.7504 49.1243 67.2807 51.1818 67.2208 53.2647C67.1609 55.3477 66.5132 57.3713 65.3526 59.1019Z" fill="#AAAAAA"/>
<path d="M47.9517 60.3135C46.1541 58.3059 45.1526 55.7102 45.136 53.0155C45.1193 50.3207 46.0885 47.7128 47.8611 45.6831L48.516 46.2554C46.8831 48.1252 45.9902 50.5277 46.0056 53.0101C46.021 55.4926 46.9435 57.8838 48.5995 59.7333L47.9517 60.3135Z" fill="#AAAAAA"/>
<path d="M56.1799 63.9921C54.6269 63.9909 53.0916 63.6627 51.6739 63.029C50.2561 62.3952 48.9877 61.47 47.9512 60.3136L48.5989 59.7333C49.6329 60.8885 50.9172 61.7922 52.3538 62.3753C53.7903 62.9584 55.3411 63.2055 56.8878 63.0978C58.4344 62.9901 59.936 62.5303 61.2778 61.7537C62.6197 60.9771 63.7663 59.9041 64.6302 58.6167L65.3519 59.102C64.3422 60.6076 62.9772 61.8414 61.3776 62.6943C59.7779 63.5471 57.9927 63.9929 56.1799 63.9921Z" fill="#AAAAAA"/>
<path d="M92.8304 47.719H83.873V56.6764H92.8304V47.719Z" fill="#E6E6E6"/>
<path d="M27.9642 53.5413H19.0068V62.4986H27.9642V53.5413Z" fill="#E6E6E6"/>
<path d="M110.443 0H0.375977V4.67605H110.443V0Z" fill="#AAAAAA"/>
<path d="M3.85105 3.25727C4.32969 3.25727 4.71772 2.86925 4.71772 2.3906C4.71772 1.91195 4.32969 1.52393 3.85105 1.52393C3.3724 1.52393 2.98438 1.91195 2.98438 2.3906C2.98438 2.86925 3.3724 3.25727 3.85105 3.25727Z" fill="white"/>
<path d="M7.14011 3.25727C7.61876 3.25727 8.00678 2.86925 8.00678 2.3906C8.00678 1.91195 7.61876 1.52393 7.14011 1.52393C6.66146 1.52393 6.27344 1.91195 6.27344 2.3906C6.27344 2.86925 6.66146 3.25727 7.14011 3.25727Z" fill="white"/>
<path d="M10.4301 3.25727C10.9088 3.25727 11.2968 2.86925 11.2968 2.3906C11.2968 1.91195 10.9088 1.52393 10.4301 1.52393C9.9515 1.52393 9.56348 1.91195 9.56348 2.3906C9.56348 2.86925 9.9515 3.25727 10.4301 3.25727Z" fill="white"/>
<path d="M128.213 97.5721H130.442L131.502 88.9773L128.213 88.9775L128.213 97.5721Z" fill="#909090"/>
<path d="M127.645 96.8447L132.033 96.8445H132.033C132.775 96.8445 133.486 97.1392 134.01 97.6636C134.535 98.188 134.829 98.8993 134.83 99.641V99.7318L127.645 99.7321L127.645 96.8447Z" fill="#2F2E41"/>
<path d="M122.664 89.1339L124.308 90.6377L130.891 85.0109L128.464 82.7915L122.664 89.1339Z" fill="#909090"/>
<path d="M122.736 88.2136L125.974 91.1751L125.974 91.1752C126.521 91.6758 126.847 92.3733 126.88 93.1142C126.914 93.8551 126.651 94.5788 126.15 95.1262L126.089 95.1932L120.787 90.3444L122.736 88.2136Z" fill="#2F2E41"/>
<path d="M131.716 67.3897L131.084 80.0205L132.663 93.7566L127.927 94.3882L124.927 77.0207L123.979 65.1792L131.716 67.3897Z" fill="#2F2E41"/>
<path d="M139.137 62.8112C139.137 62.8112 141.031 75.2842 137.084 79.3892C133.137 83.4942 127.769 90.757 127.769 90.757L123.98 86.0204L133.611 75.7578L131.716 68.8109L123.979 65.1795L125.243 56.4958L136.61 56.3379L139.137 62.8112Z" fill="#2F2E41"/>
<path d="M130.442 33.9179C132.578 33.9179 134.309 32.1867 134.309 30.0511C134.309 27.9155 132.578 26.1843 130.442 26.1843C128.306 26.1843 126.575 27.9155 126.575 30.0511C126.575 32.1867 128.306 33.9179 130.442 33.9179Z" fill="#909090"/>
<path d="M133.649 35.5469L134.242 36.4442L135.821 40.865L134.557 58.0745L127.137 58.2325L126.189 38.4967L128.174 36.0162L133.649 35.5469Z" fill="#CCCCCC"/>
<path d="M123.19 38.9704L121.927 38.8125C121.927 38.8125 121.611 38.9704 121.453 40.0756C121.295 41.1808 119.4 50.9697 119.4 50.9697L121.927 62.969L124.769 59.1798L123.032 52.5486L124.769 45.9174L123.19 38.9704Z" fill="#2F2E41"/>
<path d="M139.294 38.8125H140.241L142.61 51.6011L140.399 61.548L138.189 57.9166L138.82 53.9695L138.505 50.496L137.399 48.4434L139.294 38.8125Z" fill="#2F2E41"/>
<path d="M132.727 30.0511L132.024 29.8753C132.024 29.8753 131.496 26.8874 130.266 27.2389C129.036 27.5904 125.872 27.9419 125.872 26.5358C125.872 25.1297 128.86 23.8994 130.618 24.0751C132.375 24.2509 134.62 24.834 135.188 27.4146C136.097 31.5515 133.311 32.5964 133.311 32.5964L133.357 32.4458C133.486 32.0276 133.495 31.5817 133.384 31.1585C133.272 30.7353 133.045 30.3517 132.727 30.0511Z" fill="#2F2E41"/>
<path d="M122.085 38.8125L127.137 36.76L128.321 35.8916L131.874 51.6013L134.242 44.4964L133.532 35.418L140.084 38.8125L137.874 49.5487L137.558 53.6538L138.505 56.9694C138.505 56.9694 141.821 59.3377 140.715 61.8638C139.61 64.39 138.347 64.5479 138.347 64.5479C138.347 64.5479 132.979 59.4956 132.663 58.2325C132.348 56.9694 131.874 54.759 131.874 54.759C131.874 54.759 129.19 64.8637 126.032 64.7058C122.874 64.5479 122.874 61.2323 122.874 61.2323L123.664 57.7588L124.927 54.1274L124.295 48.1278L122.085 38.8125Z" fill="#2F2E41"/>
</g>
<defs>
<clipPath id="clip0_128_524">
<rect width="149.549" height="100" fill="white" transform="translate(0.375977)"/>
</clipPath>
</defs>
</svg>
