<svg width="132" height="100" viewBox="0 0 132 100" fill="none" xmlns="http://www.w3.org/2000/svg">
<g clip-path="url(#clip0_128_498)">
<path d="M51.4788 49.1774C51.3893 49.2208 51.3033 49.2712 51.2217 49.3281L42.9172 46.0819L42.588 43.9409L39.292 44.0154L39.5064 47.8622C39.5237 48.1729 39.6414 48.4697 39.8417 48.7079C40.0421 48.9461 40.3143 49.1129 40.6175 49.1833L50.4991 51.4757C50.6198 51.8394 50.8484 52.1578 51.1545 52.3885C51.4605 52.6191 51.8296 52.7512 52.2125 52.767C52.5954 52.7828 52.9741 52.6817 53.2981 52.477C53.6222 52.2724 53.8763 51.9739 54.0265 51.6214C54.1768 51.2688 54.2162 50.8789 54.1395 50.5034C54.0627 50.1279 53.8735 49.7847 53.5969 49.5193C53.3203 49.254 52.9695 49.0792 52.5912 49.0181C52.2128 48.9571 51.8248 49.0126 51.4788 49.1774Z" fill="#909090"/>
<path d="M39.0101 97.5478L41.2144 97.5476L42.2629 89.0457L39.0098 89.0458L39.0101 97.5478Z" fill="#909090"/>
<path d="M38.4482 96.8281L42.7891 96.8279H42.7893C43.523 96.8279 44.2266 97.1194 44.7454 97.6381C45.2641 98.1569 45.5556 98.8605 45.5557 99.5942V99.6841L38.4484 99.6843L38.4482 96.8281Z" fill="#2F2E41"/>
<path d="M28.4027 97.5478L30.6069 97.5476L31.6555 89.0457L28.4023 89.0458L28.4027 97.5478Z" fill="#909090"/>
<path d="M27.8408 96.8281L32.1817 96.8279H32.1819C32.9155 96.8279 33.6191 97.1194 34.1379 97.6381C34.6567 98.1569 34.9482 98.8605 34.9482 99.5942V99.6841L27.841 99.6843L27.8408 96.8281Z" fill="#2F2E41"/>
<path d="M29.681 32.7269C29.0533 30.1349 28.5214 27.2115 29.7053 24.8243C30.5267 23.168 33.5655 22.6102 35.3075 23.2069C37.0494 23.8036 38.3089 25.4226 38.8628 27.1877C39.4167 28.9529 39.3523 30.855 39.1109 32.69C35.9072 32.6284 32.7035 32.5669 29.681 32.7269Z" fill="#2F2E41"/>
<path d="M35.0874 32.7261C37.1507 32.7261 38.8233 31.0535 38.8233 28.9902C38.8233 26.927 37.1507 25.2544 35.0874 25.2544C33.0242 25.2544 31.3516 26.927 31.3516 28.9902C31.3516 31.0535 33.0242 32.7261 35.0874 32.7261Z" fill="#909090"/>
<path d="M30.5204 28.2207C30.5085 27.5919 30.6231 26.9672 30.8574 26.3836C31.0918 25.8 31.441 25.2695 31.8844 24.8235C32.3278 24.3776 32.8564 24.0253 33.4386 23.7877C34.0209 23.55 34.6449 23.4318 35.2737 23.4401C35.9026 23.4484 36.5233 23.583 37.0991 23.8359C37.6748 24.0888 38.1939 24.4549 38.6254 24.9124C39.0569 25.3699 39.392 25.9094 39.6109 26.499C39.8298 27.0886 39.9279 27.7161 39.8994 28.3443C36.7018 28.3511 33.5042 28.3579 30.5204 28.2207Z" fill="#2F2E41"/>
<path d="M31.9872 46.5088L30.4248 49.1128C30.4248 49.1128 26.1459 57.1379 26.4004 63.7899L27.3473 72.0754L26.3081 74.1086L27.0037 77.686L25.7119 80.2486L28.0471 92.6202L28.1465 95.3032H31.9226L31.7238 92.5705L33.3138 80.518L35.9967 67.6496L37.3879 78.758L36.8911 81.5404L37.537 83.8756L38.4313 91.0799L38.5307 94.5579L41.959 94.9554L43.2508 82.0869L43.9961 75.947L40.002 48.7233L31.9872 46.5088Z" fill="#2F2E41"/>
<path d="M31.4908 33.9355L29.1648 34.9234L27.8584 40.3302L30.6091 47.3745L29.5807 50.8942C32.6935 56.2188 36.5462 56.9924 41.0799 53.5778C40.1204 50.8838 40.259 48.1137 41.2152 45.2869C41.2152 45.2869 43.6002 43.0661 41.9341 40.1788L40.3449 35.8653L38.3774 34.8815L31.4908 33.9355Z" fill="#CBCBCB"/>
<path d="M39.8867 36.8056L40.4148 35.825C40.4148 35.825 41.8073 36.0344 42.3761 37.7108C42.9448 39.3872 43.0927 46.1595 43.0927 46.1595L40.113 46.3104L39.8867 36.8056Z" fill="#CBCBCB"/>
<path d="M28.2138 59.7911C28.4666 59.6653 28.6887 59.4856 28.8646 59.2646C29.0404 59.0437 29.1657 58.7869 29.2315 58.5123C29.2974 58.2377 29.3022 57.9521 29.2457 57.6754C29.1892 57.3988 29.0727 57.1379 28.9045 56.9111L30.3488 42.7903H27.2276L26.0798 56.5785C25.7175 56.8864 25.4808 57.3165 25.4145 57.7872C25.3482 58.258 25.4568 58.7367 25.7199 59.1327C25.9829 59.5287 26.3821 59.8144 26.8417 59.9357C27.3014 60.0571 27.7896 60.0056 28.2138 59.7911Z" fill="#909090"/>
<path d="M31.0657 36.5205L29.9719 34.9741C29.9719 34.9741 28.0483 33.67 27.0676 36.6713C26.087 39.6727 26.2378 45.2332 26.2378 45.2332L29.9719 46.7796L31.0657 36.5205Z" fill="#CBCBCB"/>
<path d="M96.2766 13.4844H79.0166V23.1931H96.2766V13.4844Z" fill="#F1F1F1"/>
<path d="M131.875 5.93311H114.615V15.6418H131.875V5.93311Z" fill="#F1F1F1"/>
<path d="M126.481 31.104H109.221V40.8127H126.481V31.104Z" fill="#F1F1F1"/>
<path d="M120.009 0H102.749V9.70873H120.009V0Z" fill="#E5E5E5"/>
<path d="M120.548 17.9004H92.1406V33.8793H120.548V17.9004Z" fill="#AAAAAA"/>
<path d="M63.1357 43.7898H92.9311V30.9871H93.3968V44.2555H63.1357V43.7898Z" fill="#3F3D56"/>
<path d="M93.1641 35.6975C94.5782 35.6975 95.7246 34.5511 95.7246 33.137C95.7246 31.7228 94.5782 30.5764 93.1641 30.5764C91.7499 30.5764 90.6035 31.7228 90.6035 33.137C90.6035 34.5511 91.7499 35.6975 93.1641 35.6975Z" fill="#3F3D56"/>
<path d="M70.4549 48.3774H56.4883V48.843H70.4549V48.3774Z" fill="#AAAAAA"/>
<path d="M70.4549 49.7739H56.4883V50.2395H70.4549V49.7739Z" fill="#AAAAAA"/>
<path d="M70.4549 51.1707H56.4883V51.6362H70.4549V51.1707Z" fill="#AAAAAA"/>
</g>
<defs>
<clipPath id="clip0_128_498">
<rect width="131.571" height="100" fill="white" transform="translate(0.303711)"/>
</clipPath>
</defs>
</svg>
