<svg width="125" height="100" viewBox="0 0 125 100" fill="none" xmlns="http://www.w3.org/2000/svg">
<path d="M70.6724 88.4676C69.8148 87.2667 68.6538 86.3879 67.1942 86.0591C65.9215 85.7723 64.6127 85.8212 63.319 85.8311L46.9599 85.9573C45.5588 85.9681 44.2155 87.1819 44.2806 88.6366C44.3452 90.079 45.4581 91.3274 46.9599 91.3159C51.752 91.2789 56.544 91.242 61.3361 91.205C62.4658 91.1963 63.5962 91.1759 64.7261 91.1796C64.9798 91.1804 65.2324 91.1938 65.4859 91.1967C65.5473 91.1974 65.5916 91.1968 65.6229 91.1955C65.6308 91.1979 65.6374 91.2001 65.6476 91.2029C65.7798 91.2392 65.9155 91.2642 66.0485 91.2987C66.0019 91.3001 66.1348 91.383 66.2015 91.4111C66.2107 91.4292 66.2302 91.4612 66.2628 91.5107C66.3084 91.5961 66.4432 91.8555 66.4488 91.8473C66.6513 92.3595 66.8184 92.8851 66.9489 93.4202C67.2603 94.6003 67.3287 94.847 67.3735 95.9541C67.4302 97.3527 68.5653 98.7 70.0528 98.6334C71.4559 98.5705 72.7928 97.4541 72.7321 95.9541C72.6297 93.4265 72.1861 90.5872 70.6724 88.4676Z" fill="#E6E6E6"/>
<path d="M47.9213 94.5137C47.614 92.6517 47.3126 90.7884 46.9994 88.9275C46.6815 87.0396 46.0324 85.3108 44.5632 84.0717C44.1707 83.7407 43.7637 83.4316 43.3549 83.1235C43.2112 83.0152 43.0677 82.9067 42.9257 82.796C42.9172 82.7894 42.9118 82.7852 42.9044 82.7795C42.8888 82.766 42.87 82.7501 42.8449 82.7288C42.2325 82.2105 41.6409 81.6693 41.0773 81.0939C40.5768 80.5829 40.0982 80.0501 39.6414 79.4955C39.5272 79.357 39.4146 79.2173 39.3034 79.0763C39.2842 79.052 39.1812 78.9189 39.1133 78.832C39.0502 78.745 38.9349 78.588 38.9155 78.5606C38.7856 78.3769 38.6579 78.1915 38.5326 78.0043C37.6793 76.7258 36.9404 75.3744 36.3244 73.9661C36.2633 73.8264 36.2037 73.6859 36.1455 73.5446C36.1299 73.5014 36.1097 73.446 36.0829 73.3723C35.9588 73.031 35.8349 72.69 35.7214 72.3447C35.4803 71.6111 35.273 70.8667 35.0995 70.1115C35.0137 69.7385 34.9365 69.3637 34.8679 68.987C34.8325 68.7933 34.7993 68.5992 34.7685 68.4046C34.7634 68.3723 34.7333 68.1625 34.7156 68.0439C34.7025 67.9247 34.6782 67.7137 34.6749 67.6811C34.6553 67.4851 34.6379 67.2888 34.6226 67.0923C34.5884 66.6502 34.5652 66.2074 34.5532 65.7638C34.5326 64.9755 34.5467 64.1873 34.5955 63.3991C34.6233 62.9562 34.6629 62.5145 34.7116 62.0736C34.7146 62.0465 34.7168 62.025 34.719 62.0056C34.7219 61.9859 34.7254 61.9635 34.7294 61.9357C34.7655 61.692 34.8034 61.4487 34.8459 61.2062C35.0066 60.2852 35.2156 59.3734 35.472 58.4744C35.5935 58.0492 35.7253 57.6275 35.8677 57.2092C35.9311 57.0235 35.9966 56.8386 36.0641 56.6543C36.0597 56.6662 36.262 56.1493 36.2647 56.1319C37.0677 54.2348 38.381 52.5054 38.3828 50.3503C38.384 48.8912 37.1496 47.4935 35.7035 47.5609C34.9825 47.5881 34.3002 47.8941 33.8004 48.4144C33.3006 48.9347 33.0223 49.6288 33.0242 50.3503C33.0242 50.3831 33.0241 50.411 33.024 50.4382C33.0105 50.4836 32.9992 50.5215 32.9891 50.555C32.8325 50.8953 32.6407 51.2186 32.4688 51.5504C31.9982 52.4586 31.5964 53.3966 31.2148 54.3483C30.5901 55.8982 30.112 57.5032 29.7866 59.1423C29.0793 62.7336 29.0244 66.4228 29.6245 70.0336C30.6633 76.3655 34.0891 82.4268 38.8518 86.501C39.2651 86.8545 39.6885 87.1962 40.1159 87.531C40.2927 87.6695 40.4711 87.8055 40.6503 87.9405C40.735 88.0044 41.0859 88.2811 40.9316 88.1471C41.2635 88.4304 41.4033 88.573 41.4886 88.7816C41.5009 88.8298 41.5177 88.8951 41.5406 88.9844C41.6007 89.2197 41.6577 89.4545 41.7051 89.6932C42.1197 91.7782 42.4078 93.8982 42.7541 95.9968C42.9921 97.4387 44.7673 98.3771 46.05 97.945C47.543 97.4419 48.1763 96.0587 47.9213 94.5137Z" fill="#E6E6E6"/>
<path d="M70.9433 99.9218C69.8181 99.9248 68.7377 99.4813 67.939 98.6886C67.1404 97.8959 66.6888 96.8188 66.6833 95.6936V92.6373C63.4834 92.9955 52.5261 92.9125 49.3852 92.4079V95.5714C49.3768 96.6957 48.9242 97.7711 48.1262 98.5631C47.3282 99.3552 46.2495 99.7996 45.1251 99.7996C44.0008 99.7996 42.922 99.3552 42.124 98.5631C41.326 97.7711 40.8735 96.6957 40.8651 95.5714V89.3602C36.611 86.9969 33.0646 83.5412 30.5919 79.3498C28.1192 75.1583 26.8098 70.383 26.7988 65.5165C26.7988 57.1722 30.5805 49.3882 37.1741 44.1604C41.4613 40.7498 46.6701 38.6986 52.1316 38.2704C52.873 38.2123 53.6188 38.1828 54.3485 38.1828C56.9194 38.1828 68.5184 38.58 71.4286 39.4173L78.0645 32.8326C78.162 32.7345 78.2866 32.6677 78.4223 32.6406C78.558 32.6136 78.6987 32.6276 78.8264 32.6808C78.9551 32.732 79.0653 32.8209 79.1425 32.9359C79.2198 33.0508 79.2604 33.1864 79.2592 33.3249V34.3719L80.5513 33.0922C80.6487 32.9939 80.7731 32.927 80.9088 32.8999C81.0444 32.8728 81.185 32.8868 81.3126 32.9401C81.4414 32.9912 81.5517 33.0802 81.6291 33.1952C81.7064 33.3102 81.7471 33.4459 81.7459 33.5845V45.2837C85.0757 48.2855 87.6136 52.0624 89.1346 56.2797C90.6557 60.4969 91.1129 65.0242 90.4659 69.4605C89.8188 73.8967 88.0874 78.1048 85.4251 81.7118C82.7629 85.3189 79.2519 88.2135 75.2034 90.1392V95.6936C75.1979 96.8188 74.7463 97.8959 73.9476 98.6886C73.149 99.4812 72.0686 99.9248 70.9433 99.9218ZM67.0182 92.2575V95.6936C67.0266 96.7291 67.4439 97.7193 68.1791 98.4485C68.9143 99.1777 69.9078 99.5869 70.9433 99.5869C71.9788 99.5869 72.9724 99.1777 73.7076 98.4485C74.4428 97.7193 74.86 96.7291 74.8685 95.6936V89.9277L74.9641 89.8823C79.5068 87.7267 83.3631 84.3543 86.105 80.1395C89.5989 74.7611 91.052 68.3096 90.2012 61.9526C89.3504 55.5957 86.2519 49.7533 81.4666 45.483L81.411 45.433V33.5845C81.4122 33.5125 81.3913 33.4418 81.3511 33.3821C81.3109 33.3223 81.2534 33.2763 81.1863 33.2503C81.1196 33.2218 81.0458 33.2141 80.9747 33.2282C80.9035 33.2423 80.8383 33.2777 80.7875 33.3295L78.9243 35.175V33.3249C78.9255 33.2529 78.9046 33.1823 78.8644 33.1226C78.8242 33.0628 78.7667 33.0168 78.6996 32.9908C78.6327 32.9623 78.5588 32.9547 78.4875 32.9689C78.4162 32.9831 78.3509 33.0186 78.3001 33.0706L71.5222 39.7962L71.4259 39.766C68.7205 38.9192 56.9389 38.5178 54.3485 38.5178C53.6275 38.5178 52.8904 38.5469 52.1579 38.6043C46.7628 39.0273 41.6172 41.0535 37.3822 44.4228C30.8691 49.5867 27.1337 57.2751 27.1337 65.5165C27.1448 70.3399 28.4473 75.0723 30.9056 79.2222C33.364 83.372 36.8887 86.788 41.1136 89.1151L41.2 89.1629V95.5714C41.2086 96.6067 41.6259 97.5967 42.3611 98.3258C43.0963 99.0549 44.0897 99.464 45.1251 99.464C46.1605 99.464 47.154 99.0549 47.8892 98.3258C48.6243 97.5967 49.0417 96.6067 49.0503 95.5714V92.007L49.2487 92.0443C52.0713 92.5753 63.9566 92.6591 66.829 92.2823L67.0182 92.2575Z" fill="#3F3D56"/>
<path d="M48.2411 19.9467L29.6971 25.5196C29.1073 25.6976 28.6122 26.1024 28.3207 26.6452C28.0292 27.1879 27.965 27.8242 28.1423 28.4142C28.3196 29.0042 28.7239 29.4997 29.2663 29.7919C29.8087 30.084 30.4449 30.1489 31.0351 29.9723L47.2631 25.0943L47.6031 24.9922C47.6719 23.2403 48.1471 21.5285 48.9913 19.9919C48.8854 19.9443 48.7721 19.9148 48.6564 19.9049C48.5166 19.8913 48.3754 19.9056 48.2411 19.9467Z" fill="#AAAAAA"/>
<path d="M30.7144 31.1605C30.4683 31.1598 30.2285 31.0819 30.0291 30.9376C29.8296 30.7934 29.6805 30.5901 29.6029 30.3565L28.4433 26.8573C28.3949 26.7112 28.3757 26.557 28.3869 26.4034C28.3981 26.2499 28.4394 26.1 28.5085 25.9625C28.5776 25.8249 28.6731 25.7023 28.7896 25.6017C28.9061 25.501 29.0412 25.4243 29.1874 25.3759L44.2803 20.374C44.4264 20.3256 44.5806 20.3064 44.7341 20.3175C44.8877 20.3287 45.0375 20.37 45.1751 20.4391C45.3126 20.5081 45.4352 20.6036 45.5359 20.7201C45.6365 20.8365 45.7133 20.9717 45.7617 21.1178L46.9213 24.6169C47.0178 24.9047 46.9984 25.2188 46.8674 25.4926C46.7363 25.7664 46.5038 25.9784 46.2191 26.0837C46.2052 26.089 46.1911 26.0939 46.1769 26.0985L31.0843 31.1003C30.9651 31.14 30.8402 31.1603 30.7144 31.1605Z" fill="#2F2E41"/>
<path d="M58.9806 13.7327C55.9345 13.7338 53.0083 14.9203 50.8214 17.0409C48.6345 19.1615 47.3587 22.0498 47.2638 25.0945C47.2604 25.2134 47.2588 25.334 47.2588 25.4545C47.2588 27.7729 47.9463 30.0392 49.2343 31.9668C50.5223 33.8945 52.353 35.3969 54.4949 36.2841C56.6368 37.1713 58.9936 37.4034 61.2675 36.9511C63.5413 36.4989 65.6299 35.3825 67.2692 33.7431C68.9086 32.1038 70.025 30.0152 70.4773 27.7413C70.9296 25.4675 70.6974 23.1107 69.8102 20.9688C68.923 18.8269 67.4206 16.9962 65.493 15.7082C63.5653 14.4201 61.299 13.7327 58.9806 13.7327ZM58.9806 36.8415C55.9616 36.8383 53.0671 35.6376 50.9323 33.5028C48.7975 31.368 47.5968 28.4736 47.5937 25.4545C47.5937 25.2988 47.597 25.1447 47.6038 24.9923C47.6944 22.7618 48.4388 20.6071 49.7442 18.7962C51.0496 16.9854 52.8586 15.5981 54.9461 14.8071C57.0336 14.0161 59.3076 13.8561 61.4854 14.3471C63.6631 14.8381 65.6484 15.9584 67.1945 17.5686C68.7406 19.1789 69.7793 21.2082 70.1814 23.404C70.5834 25.5999 70.3312 27.8655 69.4559 29.9192C68.5807 31.9728 67.1211 33.7239 65.2586 34.9546C63.3962 36.1854 61.213 36.8415 58.9806 36.8415Z" fill="#3F3D56"/>
<path d="M68.8603 25.4545C68.8603 28.0748 67.8194 30.5878 65.9665 32.4406C64.1137 34.2935 61.6007 35.3344 58.9804 35.3344C56.3601 35.3344 53.8472 34.2935 51.9943 32.4406C50.1415 30.5878 49.1006 28.0748 49.1006 25.4545C49.1006 25.1414 49.1156 24.8333 49.1441 24.5285C49.3822 21.9996 50.5851 19.6596 52.5031 17.9943C54.421 16.329 56.9067 15.4664 59.444 15.5856C61.9812 15.7048 64.3751 16.7966 66.1285 18.6343C67.882 20.472 68.8603 22.9145 68.8603 25.4545Z" fill="#E6E6E6"/>
<path d="M61.9228 26.1109C61.6833 25.796 61.3683 25.5466 61.0068 25.3858C60.5611 25.1979 60.1007 25.0467 59.6303 24.9336V22.2443C60.3533 22.3533 61.0314 22.6625 61.5879 23.1369L62.1338 21.973C61.8198 21.6933 61.4594 21.4706 61.0687 21.3149C60.6358 21.1396 60.1813 21.023 59.7174 20.9683V19.6052H58.4531V20.9817C57.965 21.0365 57.494 21.1947 57.0716 21.4456C56.6901 21.6714 56.3689 21.9862 56.1355 22.3632C55.9128 22.7311 55.7974 23.1539 55.8023 23.584C55.7806 24.05 55.9156 24.5098 56.1858 24.8901C56.4345 25.2194 56.763 25.4798 57.1402 25.647C57.5931 25.8404 58.0614 25.9956 58.5402 26.1109V28.688C57.687 28.6236 56.8741 28.2993 56.2109 27.7586L55.665 28.9241C56.0358 29.2307 56.4575 29.4698 56.9109 29.6308C57.4077 29.8085 57.9267 29.9167 58.4532 29.9523V31.3036H59.7174V29.9272C60.4196 29.8504 61.0782 29.5485 61.5946 29.0664C61.822 28.8483 62.0016 28.5854 62.1221 28.2943C62.2426 28.0031 62.3013 27.6902 62.2946 27.3751C62.3156 26.924 62.1846 26.4788 61.9228 26.1109ZM58.5402 24.649C58.2323 24.5556 57.9459 24.4019 57.6979 24.1968C57.5996 24.1094 57.5219 24.0013 57.4704 23.8803C57.4189 23.7593 57.3948 23.6283 57.3999 23.4969C57.3907 23.1986 57.5003 22.9089 57.7046 22.6914C57.9311 22.4632 58.2233 22.3116 58.5402 22.2577V24.649ZM60.4241 28.2124C60.2105 28.4315 59.9323 28.5764 59.6303 28.626V26.4089C59.919 26.4864 60.189 26.6214 60.4241 26.8058C60.5132 26.8819 60.5841 26.9772 60.6313 27.0844C60.6786 27.1917 60.701 27.3082 60.697 27.4254C60.7087 27.7128 60.6112 27.9939 60.4241 28.2124Z" fill="#AAAAAA"/>
<path d="M31.2527 45.342C30.9938 45.3416 30.7423 45.2558 30.5372 45.0978C30.3321 44.9399 30.1848 44.7188 30.1182 44.4686L29.4868 42.079C29.4078 41.7787 29.4512 41.4592 29.6073 41.1908C29.7635 40.9223 30.0198 40.7268 30.32 40.6471L50.2372 35.384C50.5377 35.3056 50.8571 35.3494 51.1255 35.5058C51.3938 35.6623 51.5893 35.9186 51.6691 36.2188L52.2039 38.2433L52.1037 38.2511C46.9956 38.6483 42.1081 40.5003 38.0195 43.5881L37.9904 43.6021L31.5501 45.3034C31.453 45.329 31.3531 45.342 31.2527 45.342Z" fill="#2F2E41"/>
<path d="M27.9537 57.1454C25.6173 56.8002 23.3828 55.9553 21.4025 54.6684C20.4214 54.0312 19.5132 53.2884 18.6941 52.4532C17.8857 51.6286 17.1123 50.6914 16.7118 49.5932C16.3266 48.5772 16.3464 47.452 16.7673 46.4502C17.1824 45.4545 17.9755 44.6641 18.9725 44.2523C19.9755 43.8523 21.1873 43.8095 22.1634 44.2475C22.6285 44.4514 23.0311 44.7754 23.3296 45.1863C23.4684 45.3757 23.5711 45.589 23.6327 45.8156C23.6899 46.0209 23.6951 46.2372 23.6479 46.4451C23.5906 46.6526 23.4897 46.8454 23.3518 47.0107C23.2139 47.176 23.0423 47.3099 22.8485 47.4034C22.4218 47.6223 21.9595 47.7633 21.4834 47.8197C21.0044 47.8851 20.3164 47.9445 19.9314 47.56C19.8521 47.484 19.7898 47.3921 19.7484 47.2903C19.7195 47.2124 19.7096 47.1286 19.7196 47.0461C19.7139 47.0825 19.7428 46.967 19.7411 46.9716C19.7351 46.9887 19.7087 47.0303 19.7462 46.9664C19.7579 46.9453 19.7709 46.925 19.7852 46.9056C19.7725 46.9221 19.7445 46.9495 19.7944 46.9024C19.8357 46.8573 19.8887 46.8245 19.9475 46.8079C19.9707 46.8011 19.9942 46.7958 20.0175 46.7894C20.0765 46.7733 19.9586 46.7903 20.019 46.7883C20.0423 46.7876 20.0659 46.7882 20.0892 46.7871C20.1485 46.7845 20.0307 46.771 20.0875 46.7852C20.1096 46.7908 20.1314 46.7962 20.1532 46.8031C20.2004 46.8179 20.1197 46.7684 20.1517 46.8055C20.1892 46.8489 20.1123 46.7632 20.155 46.8053C20.1762 46.8261 20.1962 46.8482 20.2149 46.8713C20.2888 46.9443 20.3885 46.9852 20.4924 46.9852C20.5963 46.9852 20.696 46.9443 20.77 46.8713C20.8414 46.7966 20.8813 46.6971 20.8813 46.5938C20.8813 46.4904 20.8414 46.391 20.77 46.3162C20.3829 45.8364 19.6184 45.9549 19.2268 46.3605C18.7275 46.8776 18.9252 47.6973 19.411 48.1485C19.9608 48.6594 20.7396 48.6949 21.4469 48.6092C22.0447 48.552 22.6272 48.3874 23.1666 48.1233C23.7024 47.86 24.1216 47.4072 24.3428 46.8526C24.4426 46.5566 24.4785 46.2428 24.448 45.932C24.4175 45.6211 24.3213 45.3202 24.1659 45.0493C23.5414 43.8752 22.2482 43.2733 20.9701 43.1691C20.312 43.1175 19.6503 43.197 19.0231 43.4029C18.396 43.6087 17.8159 43.937 17.3164 44.3685C16.3537 45.2352 15.7609 46.4387 15.6606 47.7302C15.549 49.0691 16.0685 50.3695 16.8259 51.4501C17.6189 52.548 18.5651 53.5266 19.6357 54.356C21.7288 56.027 24.184 57.1849 26.8048 57.737C27.1166 57.8014 27.43 57.8565 27.745 57.9024C27.8453 57.9267 27.951 57.9118 28.0408 57.8609C28.1305 57.81 28.1974 57.7268 28.2279 57.6282C28.2548 57.5279 28.2411 57.4209 28.1898 57.3306C28.1385 57.2402 28.0537 57.1737 27.9537 57.1454Z" fill="#3F3D56"/>
<path d="M65.3608 40.0857C61.9376 40.0374 58.5253 40.1243 55.1237 40.3463C53.961 40.4222 52.9551 40.8332 52.9551 41.5239C52.9551 42.1014 53.953 42.7779 55.1237 42.7014C58.5236 42.4794 61.9359 42.3925 65.3608 42.4408C68.1529 42.4802 68.1512 40.1251 65.3608 40.0857Z" fill="#CCCCCC"/>
<path d="M60.3015 42.3241C59.9315 42.3241 51.2412 42.3103 51.2412 41.1099C51.2412 39.9096 59.9315 39.8958 60.3015 39.8958C60.6714 39.8958 69.3618 39.9096 69.3618 41.1099C69.3618 42.3103 60.6714 42.3241 60.3015 42.3241ZM51.581 41.1099C51.8188 41.4738 55.0132 41.9892 60.3015 41.9892C65.5897 41.9892 68.7841 41.4738 69.0219 41.1099C68.7841 40.746 65.5897 40.2307 60.3015 40.2307C55.0132 40.2307 51.8188 40.746 51.581 41.1099Z" fill="#3F3D56"/>
<path d="M87.8742 73.8811C89.798 73.8277 92.1922 73.7609 94.0367 72.4135C94.586 71.9959 95.0372 71.4631 95.3589 70.8527C95.6806 70.2423 95.8649 69.5689 95.8989 68.8797C95.9365 67.8156 95.5521 66.8867 94.8163 66.265C93.8529 65.4509 92.4462 65.26 90.9301 65.7055L92.5008 54.2268L91.3478 54.0688L89.5013 67.5635L90.4641 67.1217C91.5805 66.6097 93.1128 66.3491 94.0651 67.1538C94.2989 67.3642 94.4811 67.6256 94.5974 67.9179C94.7137 68.2101 94.7611 68.5252 94.7358 68.8388C94.7076 69.3517 94.5692 69.8525 94.3301 70.3072C94.091 70.7618 93.7568 71.1597 93.3502 71.4736C91.9147 72.5221 90.0063 72.6573 87.8418 72.7178L87.8742 73.8811Z" fill="#3F3D56"/>
<path d="M84.6862 55.2168H78.418V56.3806H84.6862V55.2168Z" fill="#3F3D56"/>
<path d="M34.0888 50.6949C33.8098 50.694 33.5402 50.5938 33.3284 50.4122C33.1165 50.2307 32.9763 49.9796 32.9327 49.704L32.5501 47.2622C32.5023 46.9551 32.5783 46.6416 32.7614 46.3905C32.9445 46.1394 33.2197 45.9711 33.5267 45.9227L53.8778 42.7339C54.1849 42.6861 54.4984 42.7621 54.7495 42.9452C55.0006 43.1283 55.1688 43.4035 55.2172 43.7105L55.5998 46.1524C55.6476 46.4594 55.5717 46.773 55.3886 47.0241C55.2055 47.2752 54.9303 47.4435 54.6233 47.4919L34.2722 50.6806C34.2115 50.6901 34.1502 50.6949 34.0888 50.6949Z" fill="#2F2E41"/>
<path d="M25.6672 22.0797C30.3838 22.0797 34.2074 18.2561 34.2074 13.5395C34.2074 8.82285 30.3838 4.99927 25.6672 4.99927C20.9505 4.99927 17.127 8.82285 17.127 13.5395C17.127 18.2561 20.9505 22.0797 25.6672 22.0797Z" fill="#AAAAAA"/>
<path d="M30.5027 15.7493C30.7756 15.6539 31.0249 15.5011 31.2339 15.3012C31.3722 15.1587 31.4776 14.9877 31.5428 14.8002C31.608 14.6126 31.6315 14.4131 31.6115 14.2156C31.5999 14.0748 31.5559 13.9386 31.4829 13.8176C31.4099 13.6967 31.3099 13.5942 31.1908 13.5183C30.8817 13.3282 30.4733 13.3354 30.061 13.5265L30.0134 10.1929L29.6786 10.1976L29.7345 14.1167L29.9894 13.9495C30.285 13.756 30.7098 13.6156 31.0153 13.8036C31.0909 13.8533 31.154 13.9199 31.1997 13.998C31.2454 14.0761 31.2724 14.1637 31.2787 14.254C31.2928 14.4011 31.275 14.5496 31.2266 14.6893C31.1782 14.8289 31.1002 14.9565 30.998 15.0634C30.635 15.4236 30.0977 15.5443 29.4844 15.6547L29.5437 15.9843C29.8697 15.9347 30.1907 15.8561 30.5027 15.7493Z" fill="#2F2E41"/>
<path d="M33.4612 9.95891L31.6777 10.229L31.7279 10.5601L33.5113 10.29L33.4612 9.95891Z" fill="#2F2E41"/>
<path d="M27.8323 10.8112L26.0488 11.0813L26.099 11.4124L27.8824 11.1423L27.8323 10.8112Z" fill="#2F2E41"/>
<path d="M31.3104 50.5456C31.0033 50.545 30.7036 50.4508 30.4513 50.2757C30.199 50.1005 30.006 49.8527 29.898 49.5652L24.0098 33.7961C23.2901 31.8621 23.3669 29.7216 24.2235 27.8443C25.08 25.9669 26.6463 24.5059 28.5786 23.7819L33.3665 21.9941C33.5516 21.9245 33.7487 21.8922 33.9463 21.8991C34.144 21.906 34.3384 21.9518 34.5182 22.0341C34.6977 22.1143 34.8593 22.2294 34.9937 22.3728C35.1282 22.5161 35.2327 22.6848 35.3011 22.869L46.2086 43.4633C46.2794 43.649 46.3128 43.8469 46.3068 44.0455C46.3009 44.2442 46.2557 44.4397 46.1739 44.6208C46.0921 44.802 45.9753 44.9651 45.8301 45.1009C45.685 45.2368 45.5145 45.3425 45.3283 45.4122L31.8371 50.4499C31.6687 50.513 31.4903 50.5455 31.3104 50.5456Z" fill="#2F2E41"/>
<path d="M31.9141 22.5364L42.7365 37.0088L35.4134 22.6883C35.353 22.5212 35.2601 22.3677 35.1403 22.2365C35.0205 22.1053 34.876 21.9989 34.715 21.9236C34.5541 21.8482 34.3799 21.8053 34.2024 21.7973C34.0249 21.7893 33.8475 21.8163 33.6804 21.8768L31.9141 22.5364Z" fill="#E6E6E6"/>
<path d="M49.0501 33.5274L29.7266 32.2827C29.422 32.2631 29.1242 32.1837 28.8503 32.049C28.5764 31.9143 28.3318 31.727 28.1303 31.4978C27.9288 31.2685 27.7744 31.0018 27.6759 30.7129C27.5775 30.424 27.5369 30.1185 27.5566 29.814C27.5762 29.5094 27.6556 29.2116 27.7903 28.9377C27.925 28.6638 28.1123 28.4192 28.3415 28.2177C28.5708 28.0162 28.8375 27.8618 29.1264 27.7633C29.4153 27.6649 29.7207 27.6243 30.0253 27.644L49.3489 28.8886C49.4915 28.8978 49.6309 28.935 49.7592 28.998C49.8875 29.0611 50.0021 29.1488 50.0964 29.2562C50.1908 29.3635 50.2631 29.4884 50.3092 29.6237C50.3553 29.759 50.3743 29.9021 50.3651 30.0447L50.2063 32.5112C50.1877 32.7993 50.0555 33.0682 49.8386 33.2587C49.6218 33.4493 49.3381 33.546 49.0501 33.5274Z" fill="#AAAAAA"/>
<path d="M43.8867 34.3253C43.8612 34.3253 43.8356 34.3245 43.81 34.3228L27.9426 33.3008C27.7889 33.2909 27.6388 33.2509 27.5006 33.1829C27.3625 33.115 27.2391 33.0206 27.1375 32.905C27.0358 32.7893 26.958 32.6548 26.9083 32.5091C26.8587 32.3634 26.8382 32.2094 26.8481 32.0557L27.1195 27.8429C27.1294 27.6893 27.1694 27.5391 27.2374 27.401C27.3053 27.2628 27.3998 27.1394 27.5154 27.0378C27.631 26.9362 27.7655 26.8583 27.9113 26.8087C28.057 26.7591 28.211 26.7386 28.3647 26.7485L44.232 27.7705C44.5421 27.7908 44.8315 27.9333 45.0367 28.1667C45.2418 28.4001 45.346 28.7054 45.3264 29.0155L45.0551 33.2285C45.0402 33.4542 44.9604 33.6709 44.8253 33.8524C44.6903 34.0339 44.5058 34.1726 44.2938 34.2518C44.1636 34.3005 44.0257 34.3254 43.8867 34.3253Z" fill="#2F2E41"/>
<path d="M25.5694 7.86042C26.6929 6.89415 28.2357 7.75854 29.5242 7.60723C30.7568 7.46245 31.7302 6.35675 31.9788 5.18208C32.2689 3.81163 31.5576 2.43863 30.5091 1.58418C29.3608 0.648346 27.8379 0.37969 26.3947 0.552827C24.7406 0.751261 23.2279 1.52228 21.8705 2.45487C20.5604 3.32716 19.3555 4.34813 18.28 5.49739C17.317 6.56101 16.501 7.82882 16.2405 9.26007C16.0037 10.5608 16.1845 12.0021 16.9534 13.104C17.3612 13.6688 17.9076 14.1189 18.5399 14.4111C19.1993 14.7348 19.9026 14.9663 20.5414 15.3323C21.5072 15.8858 22.4459 17.0335 22.1434 18.2278C22.0785 18.4887 21.9505 18.7296 21.7706 18.9294C21.5545 19.1693 21.1646 18.8523 21.3813 18.6118C21.7619 18.1893 21.7469 17.6258 21.5441 17.1214C21.3029 16.553 20.8758 16.0833 20.3328 15.7894C19.6642 15.4071 18.926 15.1711 18.2407 14.8229C17.5847 14.5048 17.0153 14.0329 16.5809 13.4475C15.7607 12.3076 15.5154 10.8241 15.7014 9.45181C15.9027 7.96675 16.6657 6.61727 17.6222 5.4864C18.6631 4.2557 19.9418 3.21394 21.248 2.27807C22.6496 1.27387 24.1981 0.424882 25.9116 0.117818C27.397 -0.148359 29.007 0.0155165 30.3059 0.824969C31.5183 1.58054 32.448 2.88027 32.5405 4.3326C32.5737 4.9934 32.4302 5.65112 32.1248 6.23806C31.8194 6.82499 31.3631 7.31995 30.8029 7.672C30.2281 8.01598 29.5598 8.17081 28.8923 8.11464C28.1786 8.06896 27.4643 7.85043 26.7461 7.9111C26.4212 7.93083 26.1115 8.05596 25.864 8.26753C25.6185 8.47865 25.326 8.0698 25.5694 7.86042Z" fill="#2F2E41"/>
</svg>
