<svg width="125" height="100" viewBox="0 0 125 100" fill="none" xmlns="http://www.w3.org/2000/svg">
<path d="M70.8521 88.4676C69.9945 87.2667 68.8335 86.3879 67.3739 86.0591C66.1011 85.7723 64.7924 85.8212 63.4986 85.8311L47.1396 85.9573C45.7385 85.9681 44.3952 87.1819 44.4603 88.6366C44.5249 90.079 45.6378 91.3274 47.1396 91.3159C51.9317 91.2789 56.7237 91.242 61.5158 91.205C62.6455 91.1963 63.7759 91.1759 64.9057 91.1796C65.1595 91.1804 65.4121 91.1938 65.6656 91.1967C65.727 91.1974 65.7713 91.1968 65.8026 91.1955C65.8105 91.1979 65.8171 91.2001 65.8273 91.2029C65.9595 91.2392 66.0952 91.2642 66.2282 91.2987C66.1816 91.3001 66.3145 91.383 66.3812 91.4111C66.3903 91.4292 66.4099 91.4612 66.4425 91.5107C66.4881 91.5961 66.6229 91.8555 66.6284 91.8473C66.831 92.3595 66.9981 92.8851 67.1286 93.4202C67.44 94.6003 67.5084 94.847 67.5532 95.9541C67.6099 97.3527 68.745 98.7 70.2325 98.6334C71.6356 98.5705 72.9725 97.4541 72.9118 95.9541C72.8094 93.4265 72.3657 90.5872 70.8521 88.4676Z" fill="#E6E6E6"/>
<path d="M48.101 94.5137C47.7937 92.6517 47.4923 90.7884 47.179 88.9275C46.8612 87.0396 46.2121 85.3108 44.7429 84.0717C44.3504 83.7407 43.9433 83.4316 43.5346 83.1235C43.3909 83.0152 43.2474 82.9067 43.1053 82.796C43.0968 82.7894 43.0914 82.7852 43.0841 82.7795C43.0685 82.766 43.0497 82.7501 43.0245 82.7288C42.4122 82.2105 41.8205 81.6693 41.257 81.0939C40.7565 80.5829 40.2778 80.0501 39.8211 79.4955C39.7069 79.357 39.5943 79.2173 39.4831 79.0763C39.4639 79.052 39.3609 78.9189 39.293 78.832C39.2299 78.745 39.1145 78.588 39.0952 78.5606C38.9652 78.3769 38.8376 78.1915 38.7123 78.0043C37.859 76.7258 37.12 75.3744 36.5041 73.9661C36.443 73.8264 36.3834 73.6859 36.3252 73.5446C36.3096 73.5014 36.2894 73.446 36.2626 73.3723C36.1385 73.031 36.0146 72.69 35.9011 72.3447C35.66 71.6111 35.4527 70.8667 35.2792 70.1115C35.1934 69.7385 35.1162 69.3637 35.0475 68.987C35.0121 68.7933 34.979 68.5992 34.9482 68.4046C34.9431 68.3723 34.913 68.1625 34.8953 68.0439C34.8822 67.9247 34.8579 67.7137 34.8546 67.6811C34.835 67.4851 34.8175 67.2888 34.8023 67.0923C34.7681 66.6502 34.7449 66.2074 34.7328 65.7638C34.7122 64.9755 34.7264 64.1873 34.7752 63.3991C34.803 62.9562 34.8426 62.5145 34.8913 62.0736C34.8942 62.0465 34.8965 62.025 34.8987 62.0056C34.9016 61.9859 34.905 61.9635 34.9091 61.9357C34.9452 61.692 34.9831 61.4487 35.0256 61.2062C35.1863 60.2852 35.3953 59.3734 35.6517 58.4744C35.7731 58.0492 35.905 57.6275 36.0474 57.2092C36.1108 57.0235 36.1763 56.8386 36.2438 56.6543C36.2394 56.6662 36.4417 56.1493 36.4444 56.1319C37.2474 54.2348 38.5607 52.5054 38.5625 50.3503C38.5637 48.8912 37.3293 47.4935 35.8832 47.5609C35.1622 47.5881 34.4799 47.8941 33.9801 48.4144C33.4803 48.9347 33.202 49.6288 33.2039 50.3503C33.2039 50.3831 33.2037 50.411 33.2037 50.4382C33.1902 50.4836 33.1789 50.5215 33.1688 50.555C33.0122 50.8953 32.8204 51.2186 32.6485 51.5504C32.1778 52.4586 31.7761 53.3966 31.3945 54.3483C30.7698 55.8982 30.2916 57.5032 29.9663 59.1423C29.259 62.7336 29.2041 66.4228 29.8042 70.0336C30.843 76.3655 34.2688 82.4268 39.0315 86.501C39.4448 86.8545 39.8682 87.1962 40.2956 87.531C40.4724 87.6695 40.6508 87.8055 40.83 87.9405C40.9147 88.0044 41.2656 88.2811 41.1113 88.1471C41.4432 88.4304 41.583 88.573 41.6682 88.7816C41.6806 88.8298 41.6974 88.8951 41.7202 88.9844C41.7803 89.2197 41.8374 89.4545 41.8848 89.6932C42.2994 91.7782 42.5875 93.8982 42.9338 95.9968C43.1718 97.4387 44.9469 98.3771 46.2297 97.945C47.7227 97.4419 48.356 96.0587 48.101 94.5137Z" fill="#E6E6E6"/>
<path d="M71.123 99.9218C69.9978 99.9248 68.9174 99.4813 68.1187 98.6886C67.3201 97.8959 66.8685 96.8188 66.863 95.6936V92.6373C63.6631 92.9955 52.7058 92.9125 49.5649 92.4079V95.5714C49.5565 96.6957 49.1039 97.7711 48.3059 98.5631C47.5079 99.3552 46.4292 99.7996 45.3048 99.7996C44.1805 99.7996 43.1017 99.3552 42.3037 98.5631C41.5057 97.7711 41.0532 96.6957 41.0447 95.5714V89.3602C36.7907 86.9969 33.2443 83.5412 30.7716 79.3498C28.2989 75.1583 26.9895 70.383 26.9785 65.5165C26.9785 57.1722 30.7602 49.3882 37.3538 44.1604C41.641 40.7498 46.8498 38.6986 52.3113 38.2704C53.0526 38.2123 53.7985 38.1828 54.5282 38.1828C57.099 38.1828 68.698 38.58 71.6083 39.4173L78.2442 32.8326C78.3417 32.7345 78.4663 32.6677 78.602 32.6406C78.7377 32.6136 78.8784 32.6276 79.0061 32.6808C79.1348 32.732 79.245 32.8209 79.3222 32.9359C79.3994 33.0508 79.4401 33.1864 79.4389 33.3249V34.3719L80.731 33.0922C80.8284 32.9939 80.9528 32.927 81.0884 32.8999C81.2241 32.8728 81.3647 32.8868 81.4923 32.9401C81.6211 32.9912 81.7314 33.0802 81.8087 33.1952C81.8861 33.3102 81.9268 33.4459 81.9256 33.5845V45.2837C85.2554 48.2855 87.7933 52.0624 89.3143 56.2797C90.8354 60.4969 91.2926 65.0242 90.6456 69.4605C89.9985 73.8967 88.2671 78.1048 85.6048 81.7118C82.9425 85.3189 79.4316 88.2135 75.3831 90.1392V95.6936C75.3776 96.8188 74.926 97.8959 74.1273 98.6886C73.3287 99.4812 72.2483 99.9248 71.123 99.9218ZM67.1979 92.2575V95.6936C67.2063 96.7291 67.6236 97.7193 68.3588 98.4485C69.094 99.1777 70.0875 99.5869 71.123 99.5869C72.1585 99.5869 73.1521 99.1777 73.8873 98.4485C74.6225 97.7193 75.0397 96.7291 75.0482 95.6936V89.9277L75.1438 89.8823C79.6864 87.7267 83.5428 84.3543 86.2847 80.1395C89.7786 74.7611 91.2317 68.3096 90.3809 61.9526C89.53 55.5957 86.4316 49.7533 81.6463 45.483L81.5907 45.433V33.5845C81.5919 33.5125 81.571 33.4418 81.5308 33.3821C81.4906 33.3223 81.4331 33.2763 81.366 33.2503C81.2993 33.2218 81.2255 33.2141 81.1543 33.2282C81.0832 33.2423 81.018 33.2777 80.9672 33.3295L79.1039 35.175V33.3249C79.1051 33.2529 79.0842 33.1823 79.0441 33.1226C79.0039 33.0628 78.9464 33.0168 78.8793 32.9908C78.8124 32.9623 78.7385 32.9547 78.6672 32.9689C78.5959 32.9831 78.5306 33.0186 78.4798 33.0706L71.7019 39.7962L71.6055 39.766C68.9001 38.9192 57.1186 38.5178 54.5282 38.5178C53.8072 38.5178 53.0701 38.5469 52.3376 38.6043C46.9425 39.0273 41.7969 41.0535 37.5619 44.4228C31.0488 49.5867 27.3134 57.2751 27.3134 65.5165C27.3245 70.3399 28.6269 75.0723 31.0853 79.2222C33.5437 83.372 37.0684 86.788 41.2933 89.1151L41.3796 89.1629V95.5714C41.3883 96.6067 41.8056 97.5967 42.5408 98.3258C43.276 99.0549 44.2694 99.464 45.3048 99.464C46.3402 99.464 47.3337 99.0549 48.0688 98.3258C48.804 97.5967 49.2214 96.6067 49.23 95.5714V92.007L49.4284 92.0443C52.251 92.5753 64.1363 92.6591 67.0086 92.2823L67.1979 92.2575Z" fill="#3F3D56"/>
<path d="M48.4208 19.9467L29.8768 25.5196C29.287 25.6976 28.7919 26.1024 28.5004 26.6452C28.2088 27.1879 28.1447 27.8242 28.322 28.4142C28.4993 29.0042 28.9035 29.4997 29.446 29.7919C29.9884 30.084 30.6246 30.1489 31.2148 29.9723L47.4428 25.0943L47.7828 24.9922C47.8516 23.2403 48.3268 21.5285 49.171 19.9919C49.065 19.9443 48.9518 19.9148 48.8361 19.9049C48.6962 19.8913 48.5551 19.9056 48.4208 19.9467Z" fill="#AAAAAA"/>
<path d="M30.8941 31.1605C30.648 31.1598 30.4082 31.0819 30.2088 30.9376C30.0093 30.7934 29.8602 30.5901 29.7826 30.3565L28.623 26.8573C28.5746 26.7112 28.5554 26.557 28.5666 26.4034C28.5778 26.2499 28.6191 26.1 28.6882 25.9625C28.7573 25.8249 28.8528 25.7023 28.9693 25.6017C29.0857 25.501 29.2209 25.4243 29.367 25.3759L44.46 20.374C44.6061 20.3256 44.7603 20.3064 44.9138 20.3175C45.0674 20.3287 45.2172 20.37 45.3547 20.4391C45.4923 20.5081 45.6149 20.6036 45.7156 20.7201C45.8162 20.8365 45.893 20.9717 45.9414 21.1178L47.101 24.6169C47.1975 24.9047 47.1781 25.2188 47.0471 25.4926C46.916 25.7664 46.6835 25.9784 46.3988 26.0837C46.3849 26.089 46.3708 26.0939 46.3566 26.0985L31.264 31.1003C31.1447 31.14 31.0199 31.1603 30.8941 31.1605Z" fill="#2F2E41"/>
<path d="M59.1603 13.7327C56.1141 13.7338 53.1879 14.9203 51.0011 17.0409C48.8142 19.1615 47.5383 22.0498 47.4435 25.0945C47.4401 25.2134 47.4385 25.334 47.4385 25.4545C47.4385 27.7729 48.1259 30.0392 49.414 31.9668C50.702 33.8945 52.5327 35.3969 54.6746 36.2841C56.8165 37.1713 59.1733 37.4034 61.4472 36.9511C63.721 36.4989 65.8096 35.3825 67.4489 33.7431C69.0883 32.1038 70.2047 30.0152 70.6569 27.7413C71.1092 25.4675 70.8771 23.1107 69.9899 20.9688C69.1027 18.8269 67.6003 16.9962 65.6726 15.7082C63.745 14.4201 61.4787 13.7327 59.1603 13.7327ZM59.1603 36.8415C56.1413 36.8383 53.2468 35.6376 51.112 33.5028C48.9772 31.368 47.7765 28.4736 47.7734 25.4545C47.7734 25.2988 47.7767 25.1447 47.7834 24.9923C47.8741 22.7618 48.6185 20.6071 49.9239 18.7962C51.2293 16.9854 53.0383 15.5981 55.1258 14.8071C57.2133 14.0161 59.4873 13.8561 61.665 14.3471C63.8428 14.8381 65.8281 15.9584 67.3742 17.5686C68.9203 19.1789 69.959 21.2082 70.3611 23.404C70.7631 25.5999 70.5109 27.8655 69.6356 29.9192C68.7604 31.9728 67.3008 33.7239 65.4383 34.9546C63.5759 36.1854 61.3927 36.8415 59.1603 36.8415Z" fill="#3F3D56"/>
<path d="M69.04 25.4545C69.04 28.0748 67.9991 30.5878 66.1462 32.4406C64.2934 34.2935 61.7804 35.3344 59.1601 35.3344C56.5398 35.3344 54.0268 34.2935 52.174 32.4406C50.3212 30.5878 49.2803 28.0748 49.2803 25.4545C49.2803 25.1414 49.2953 24.8333 49.3238 24.5285C49.5619 21.9996 50.7648 19.6596 52.6828 17.9943C54.6007 16.329 57.0864 15.4664 59.6236 15.5856C62.1609 15.7048 64.5548 16.7966 66.3082 18.6343C68.0617 20.472 69.04 22.9145 69.04 25.4545Z" fill="#E6E6E6"/>
<path d="M62.1025 26.1109C61.863 25.796 61.5479 25.5466 61.1865 25.3858C60.7407 25.1979 60.2804 25.0467 59.81 24.9336V22.2443C60.533 22.3533 61.2111 22.6625 61.7675 23.1369L62.3135 21.973C61.9995 21.6933 61.6391 21.4706 61.2484 21.3149C60.8155 21.1396 60.361 21.023 59.8971 20.9683V19.6052H58.6328V20.9817C58.1446 21.0365 57.6737 21.1947 57.2513 21.4456C56.8698 21.6714 56.5486 21.9862 56.3152 22.3632C56.0925 22.7311 55.9771 23.1539 55.982 23.584C55.9603 24.05 56.0953 24.5098 56.3655 24.8901C56.6142 25.2194 56.9427 25.4798 57.3199 25.647C57.7728 25.8404 58.2411 25.9956 58.7199 26.1109V28.688C57.8667 28.6236 57.0538 28.2993 56.3906 27.7586L55.8447 28.9241C56.2155 29.2307 56.6372 29.4698 57.0906 29.6308C57.5874 29.8085 58.1064 29.9167 58.6328 29.9523V31.3036H59.8971V29.9272C60.5993 29.8504 61.2579 29.5485 61.7743 29.0664C62.0017 28.8483 62.1813 28.5854 62.3018 28.2943C62.4223 28.0031 62.481 27.6902 62.4743 27.3751C62.4952 26.924 62.3643 26.4788 62.1025 26.1109ZM58.7199 24.649C58.4119 24.5556 58.1256 24.4019 57.8776 24.1968C57.7793 24.1094 57.7016 24.0013 57.6501 23.8803C57.5986 23.7593 57.5745 23.6283 57.5795 23.4969C57.5704 23.1986 57.68 22.9089 57.8843 22.6914C58.1108 22.4632 58.4029 22.3116 58.7199 22.2577V24.649ZM60.6038 28.2124C60.3901 28.4315 60.112 28.5764 59.81 28.626V26.4089C60.0986 26.4864 60.3686 26.6214 60.6038 26.8058C60.6929 26.8819 60.7637 26.9772 60.811 27.0844C60.8582 27.1917 60.8807 27.3082 60.8767 27.4254C60.8883 27.7128 60.7908 27.9939 60.6038 28.2124Z" fill="#AAAAAA"/>
<path d="M31.4324 45.342C31.1735 45.3416 30.922 45.2558 30.7169 45.0978C30.5118 44.9399 30.3645 44.7188 30.2979 44.4686L29.6665 42.079C29.5875 41.7787 29.6308 41.4592 29.787 41.1908C29.9432 40.9223 30.1995 40.7268 30.4996 40.6471L50.4169 35.384C50.7174 35.3056 51.0368 35.3494 51.3051 35.5058C51.5735 35.6623 51.7689 35.9186 51.8488 36.2188L52.3836 38.2433L52.2834 38.2511C47.1752 38.6483 42.2878 40.5003 38.1992 43.5881L38.1701 43.6021L31.7298 45.3034C31.6327 45.329 31.5328 45.342 31.4324 45.342Z" fill="#2F2E41"/>
<path d="M28.1334 57.1454C25.797 56.8002 23.5625 55.9553 21.5822 54.6684C20.6011 54.0312 19.6929 53.2884 18.8738 52.4532C18.0654 51.6286 17.2919 50.6914 16.8915 49.5932C16.5062 48.5772 16.5261 47.452 16.947 46.4502C17.3621 45.4545 18.1551 44.6641 19.1522 44.2523C20.1551 43.8523 21.3669 43.8095 22.3431 44.2475C22.8082 44.4514 23.2107 44.7754 23.5093 45.1863C23.6481 45.3757 23.7508 45.589 23.8124 45.8156C23.8696 46.0209 23.8748 46.2372 23.8276 46.4451C23.7703 46.6526 23.6694 46.8454 23.5315 47.0107C23.3936 47.176 23.222 47.3099 23.0282 47.4034C22.6015 47.6223 22.1392 47.7633 21.663 47.8197C21.1841 47.8851 20.4961 47.9445 20.1111 47.56C20.0318 47.484 19.9695 47.3921 19.9281 47.2903C19.8992 47.2124 19.8893 47.1286 19.8992 47.0461C19.8936 47.0825 19.9225 46.967 19.9208 46.9716C19.9147 46.9887 19.8884 47.0303 19.9259 46.9664C19.9376 46.9453 19.9506 46.925 19.9649 46.9056C19.9522 46.9221 19.9242 46.9495 19.9741 46.9024C20.0154 46.8573 20.0684 46.8245 20.1272 46.8079C20.1504 46.8011 20.1739 46.7958 20.1972 46.7894C20.2562 46.7733 20.1383 46.7903 20.1987 46.7883C20.222 46.7876 20.2456 46.7882 20.2689 46.7871C20.3282 46.7845 20.2104 46.771 20.2672 46.7852C20.2893 46.7908 20.3111 46.7962 20.3328 46.8031C20.3801 46.8179 20.2994 46.7684 20.3314 46.8055C20.3689 46.8489 20.292 46.7632 20.3347 46.8053C20.3559 46.8261 20.3759 46.8482 20.3946 46.8713C20.4685 46.9443 20.5682 46.9852 20.6721 46.9852C20.776 46.9852 20.8757 46.9443 20.9497 46.8713C21.0211 46.7966 21.0609 46.6971 21.0609 46.5938C21.0609 46.4904 21.0211 46.391 20.9497 46.3162C20.5626 45.8364 19.7981 45.9549 19.4065 46.3605C18.9072 46.8776 19.1049 47.6973 19.5906 48.1485C20.1405 48.6594 20.9193 48.6949 21.6266 48.6092C22.2244 48.552 22.8069 48.3874 23.3462 48.1233C23.8821 47.86 24.3012 47.4072 24.5224 46.8526C24.6223 46.5566 24.6582 46.2428 24.6277 45.932C24.5972 45.6211 24.501 45.3202 24.3455 45.0493C23.7211 43.8752 22.4279 43.2733 21.1498 43.1691C20.4917 43.1175 19.83 43.197 19.2028 43.4029C18.5757 43.6087 17.9956 43.937 17.4961 44.3685C16.5334 45.2352 15.9406 46.4387 15.8403 47.7302C15.7287 49.0691 16.2482 50.3695 17.0056 51.4501C17.7986 52.548 18.7448 53.5266 19.8154 54.356C21.9085 56.027 24.3637 57.1849 26.9845 57.737C27.2962 57.8014 27.6097 57.8565 27.9247 57.9024C28.025 57.9267 28.1307 57.9118 28.2204 57.8609C28.3101 57.81 28.3771 57.7268 28.4076 57.6282C28.4345 57.5279 28.4208 57.4209 28.3695 57.3306C28.3182 57.2402 28.2334 57.1737 28.1334 57.1454Z" fill="#3F3D56"/>
<path d="M65.5405 40.0857C62.1173 40.0374 58.705 40.1243 55.3034 40.3463C54.1407 40.4222 53.1348 40.8332 53.1348 41.5239C53.1348 42.1014 54.1327 42.7779 55.3034 42.7014C58.7033 42.4794 62.1156 42.3925 65.5405 42.4408C68.3326 42.4802 68.3309 40.1251 65.5405 40.0857Z" fill="#CCCCCC"/>
<path d="M60.4812 42.3241C60.1112 42.3241 51.4209 42.3103 51.4209 41.1099C51.4209 39.9096 60.1112 39.8958 60.4812 39.8958C60.8511 39.8958 69.5414 39.9096 69.5414 41.1099C69.5414 42.3103 60.8511 42.3241 60.4812 42.3241ZM51.7607 41.1099C51.9985 41.4738 55.1929 41.9892 60.4812 41.9892C65.7694 41.9892 68.9638 41.4738 69.2016 41.1099C68.9638 40.746 65.7694 40.2307 60.4812 40.2307C55.1929 40.2307 51.9985 40.746 51.7607 41.1099Z" fill="#3F3D56"/>
<path d="M88.0539 73.8811C89.9777 73.8277 92.3719 73.7609 94.2164 72.4135C94.7656 71.9959 95.2169 71.4631 95.5386 70.8527C95.8603 70.2423 96.0446 69.5689 96.0786 68.8797C96.1162 67.8156 95.7318 66.8867 94.996 66.265C94.0326 65.4509 92.6259 65.26 91.1098 65.7055L92.6805 54.2268L91.5275 54.0688L89.6809 67.5635L90.6438 67.1217C91.7601 66.6097 93.2925 66.3491 94.2447 67.1538C94.4786 67.3642 94.6607 67.6256 94.7771 67.9179C94.8934 68.2101 94.9408 68.5252 94.9155 68.8388C94.8873 69.3517 94.7489 69.8525 94.5098 70.3072C94.2707 70.7618 93.9365 71.1597 93.5298 71.4736C92.0944 72.5221 90.186 72.6573 88.0215 72.7178L88.0539 73.8811Z" fill="#3F3D56"/>
<path d="M84.8659 55.2168H78.5977V56.3806H84.8659V55.2168Z" fill="#3F3D56"/>
<path d="M34.2685 50.6949C33.9895 50.694 33.7199 50.5938 33.5081 50.4122C33.2962 50.2307 33.1559 49.9796 33.1124 49.704L32.7298 47.2622C32.682 46.9551 32.758 46.6416 32.9411 46.3905C33.1242 46.1394 33.3994 45.9711 33.7064 45.9227L54.0575 42.7339C54.3645 42.6861 54.678 42.7621 54.9292 42.9452C55.1803 43.1283 55.3485 43.4035 55.3969 43.7105L55.7795 46.1524C55.8273 46.4594 55.7513 46.773 55.5683 47.0241C55.3852 47.2752 55.1099 47.4435 54.803 47.4919L34.4519 50.6806C34.3912 50.6901 34.3299 50.6949 34.2685 50.6949Z" fill="#2F2E41"/>
<path d="M25.8468 22.0797C30.5635 22.0797 34.3871 18.2561 34.3871 13.5395C34.3871 8.82285 30.5635 4.99927 25.8468 4.99927C21.1302 4.99927 17.3066 8.82285 17.3066 13.5395C17.3066 18.2561 21.1302 22.0797 25.8468 22.0797Z" fill="#AAAAAA"/>
<path d="M30.6823 15.7493C30.9553 15.6539 31.2046 15.5011 31.4136 15.3012C31.5519 15.1587 31.6573 14.9877 31.7225 14.8002C31.7877 14.6126 31.8112 14.4131 31.7912 14.2156C31.7796 14.0748 31.7355 13.9386 31.6626 13.8176C31.5896 13.6967 31.4896 13.5942 31.3705 13.5183C31.0614 13.3282 30.653 13.3354 30.2407 13.5265L30.1931 10.1929L29.8582 10.1976L29.9142 14.1167L30.1691 13.9495C30.4647 13.756 30.8895 13.6156 31.195 13.8036C31.2706 13.8533 31.3337 13.9199 31.3794 13.998C31.4251 14.0761 31.4521 14.1637 31.4584 14.254C31.4725 14.4011 31.4547 14.5496 31.4063 14.6893C31.3579 14.8289 31.2799 14.9565 31.1777 15.0634C30.8147 15.4236 30.2773 15.5443 29.6641 15.6547L29.7234 15.9843C30.0494 15.9347 30.3704 15.8561 30.6823 15.7493Z" fill="#2F2E41"/>
<path d="M33.6409 9.95891L31.8574 10.229L31.9076 10.5601L33.691 10.29L33.6409 9.95891Z" fill="#2F2E41"/>
<path d="M28.012 10.8112L26.2285 11.0813L26.2787 11.4124L28.0621 11.1423L28.012 10.8112Z" fill="#2F2E41"/>
<path d="M31.4901 50.5456C31.1829 50.545 30.8833 50.4508 30.631 50.2757C30.3787 50.1005 30.1857 49.8527 30.0777 49.5652L24.1895 33.7961C23.4698 31.8621 23.5466 29.7216 24.4031 27.8443C25.2597 25.9669 26.826 24.5059 28.7583 23.7819L33.5462 21.9941C33.7313 21.9245 33.9284 21.8922 34.126 21.8991C34.3237 21.906 34.5181 21.9518 34.6979 22.0341C34.8773 22.1143 35.039 22.2294 35.1734 22.3728C35.3078 22.5161 35.4123 22.6848 35.4808 22.869L46.3883 43.4633C46.4591 43.649 46.4925 43.8469 46.4865 44.0455C46.4806 44.2442 46.4354 44.4397 46.3536 44.6208C46.2718 44.802 46.1549 44.9651 46.0098 45.1009C45.8647 45.2368 45.6942 45.3425 45.508 45.4122L32.0168 50.4499C31.8484 50.513 31.67 50.5455 31.4901 50.5456Z" fill="#2F2E41"/>
<path d="M32.0938 22.5364L42.9162 37.0088L35.5931 22.6883C35.5326 22.5212 35.4398 22.3677 35.32 22.2365C35.2002 22.1053 35.0557 21.9989 34.8947 21.9236C34.7338 21.8482 34.5596 21.8053 34.3821 21.7973C34.2046 21.7893 34.0272 21.8163 33.8601 21.8768L32.0938 22.5364Z" fill="#E6E6E6"/>
<path d="M49.2298 33.5274L29.9062 32.2827C29.6017 32.2631 29.3039 32.1837 29.03 32.049C28.7561 31.9143 28.5114 31.727 28.3099 31.4978C28.1084 31.2685 27.9541 31.0018 27.8556 30.7129C27.7572 30.424 27.7166 30.1185 27.7363 29.814C27.7559 29.5094 27.8353 29.2116 27.97 28.9377C28.1047 28.6638 28.292 28.4192 28.5212 28.2177C28.7505 28.0162 29.0172 27.8618 29.3061 27.7633C29.595 27.6649 29.9004 27.6243 30.205 27.644L49.5285 28.8886C49.6712 28.8978 49.8106 28.935 49.9389 28.998C50.0672 29.0611 50.1818 29.1488 50.2761 29.2562C50.3705 29.3635 50.4428 29.4884 50.4889 29.6237C50.535 29.759 50.554 29.9021 50.5448 30.0447L50.386 32.5112C50.3674 32.7993 50.2351 33.0682 50.0183 33.2587C49.8015 33.4493 49.5178 33.546 49.2298 33.5274Z" fill="#AAAAAA"/>
<path d="M44.0664 34.3253C44.0409 34.3253 44.0153 34.3245 43.9897 34.3228L28.1223 33.3008C27.9686 33.2909 27.8185 33.2509 27.6803 33.1829C27.5422 33.115 27.4188 33.0206 27.3171 32.905C27.2155 32.7893 27.1377 32.6548 27.088 32.5091C27.0384 32.3634 27.0179 32.2094 27.0278 32.0557L27.2992 27.8429C27.3091 27.6893 27.3491 27.5391 27.417 27.401C27.485 27.2628 27.5795 27.1394 27.6951 27.0378C27.8107 26.9362 27.9452 26.8583 28.0909 26.8087C28.2367 26.7591 28.3907 26.7386 28.5443 26.7485L44.4117 27.7705C44.7218 27.7908 45.0112 27.9333 45.2164 28.1667C45.4215 28.4001 45.5257 28.7054 45.5061 29.0155L45.2348 33.2285C45.2198 33.4542 45.1401 33.6709 45.005 33.8524C44.87 34.0339 44.6854 34.1726 44.4735 34.2518C44.3433 34.3005 44.2054 34.3254 44.0664 34.3253Z" fill="#2F2E41"/>
<path d="M25.7491 7.86042C26.8726 6.89415 28.4154 7.75854 29.7038 7.60723C30.9365 7.46245 31.9098 6.35675 32.1585 5.18208C32.4486 3.81163 31.7373 2.43863 30.6888 1.58418C29.5405 0.648346 28.0175 0.37969 26.5744 0.552827C24.9203 0.751261 23.4076 1.52228 22.0502 2.45487C20.7401 3.32716 19.5352 4.34813 18.4597 5.49739C17.4967 6.56101 16.6807 7.82882 16.4202 9.26007C16.1834 10.5608 16.3642 12.0021 17.1331 13.104C17.5408 13.6688 18.0872 14.1189 18.7196 14.4111C19.3789 14.7348 20.0823 14.9663 20.7211 15.3323C21.6869 15.8858 22.6256 17.0335 22.3231 18.2278C22.2582 18.4887 22.1302 18.7296 21.9503 18.9294C21.7342 19.1693 21.3443 18.8523 21.561 18.6118C21.9416 18.1893 21.9266 17.6258 21.7238 17.1214C21.4826 16.553 21.0555 16.0833 20.5125 15.7894C19.8439 15.4071 19.1057 15.1711 18.4203 14.8229C17.7644 14.5048 17.195 14.0329 16.7606 13.4475C15.9404 12.3076 15.695 10.8241 15.8811 9.45181C16.0824 7.96675 16.8454 6.61727 17.8019 5.4864C18.8428 4.2557 20.1215 3.21394 21.4277 2.27807C22.8293 1.27387 24.3778 0.424882 26.0913 0.117818C27.5767 -0.148359 29.1867 0.0155165 30.4856 0.824969C31.698 1.58054 32.6277 2.88027 32.7202 4.3326C32.7534 4.9934 32.6099 5.65112 32.3045 6.23806C31.9991 6.82499 31.5428 7.31995 30.9826 7.672C30.4078 8.01598 29.7395 8.17081 29.072 8.11464C28.3583 8.06896 27.644 7.85043 26.9258 7.9111C26.6008 7.93083 26.2911 8.05596 26.0437 8.26753C25.7982 8.47865 25.5057 8.0698 25.7491 7.86042Z" fill="#2F2E41"/>
</svg>
