<svg width="678" height="675" viewBox="0 0 678 675" fill="none" xmlns="http://www.w3.org/2000/svg">
<path opacity="0.3" d="M648.838 455.826C583.41 608.522 409.123 694.064 257.981 670.99C233.387 667.235 165.962 656.05 106.267 603.285C-8.65068 501.708 -33.2265 300.572 59.4738 158.826C126.943 55.6607 247.889 -2.82041 362.812 0.104733C387.566 0.734871 482.435 4.61811 565.809 72.7583C578.054 82.7667 605.064 106.55 629.406 144.279C686.566 232.877 691.479 356.311 648.838 455.826Z" fill="url(#paint0_linear_85_325)"/>
<path d="M592.396 48.4749C593.117 46.2503 590.523 44.4221 588.649 45.8202C569.612 60.0174 522.787 103.689 523.478 189.388C524.344 296.911 497.853 333.098 467.671 353.577C467.671 353.577 506.698 346.77 534.922 310.203C604.218 220.424 579.58 88.0314 592.396 48.4749Z" fill="url(#paint1_linear_85_325)"/>
<path d="M575.541 80.1119C572.048 91.6737 568.784 103.298 565.949 115.026C563.054 126.736 560.515 138.529 558.347 150.384C556.225 162.246 554.326 174.146 552.935 186.109C551.49 198.066 550.56 210.071 549.669 222.128C548.711 234.172 547.815 246.311 545.673 258.396C543.546 270.457 539.946 282.458 534.259 293.445C532.839 296.183 531.363 298.906 529.741 301.515C528.167 304.154 526.476 306.725 524.739 309.265C521.24 314.327 517.399 319.167 513.216 323.699C504.825 332.743 495.065 340.503 484.565 346.815C483.46 347.48 482.026 347.123 481.362 346.017C480.709 344.932 481.042 343.53 482.1 342.85L482.108 342.846C484.618 341.238 487.106 339.604 489.514 337.864C490.732 337.013 491.909 336.11 493.103 335.229C494.262 334.305 495.458 333.425 496.587 332.465C501.168 328.705 505.479 324.628 509.468 320.251C517.479 311.548 524.231 301.602 529.681 291.115C532.348 285.84 534.622 280.377 536.467 274.757C538.309 269.136 539.721 263.365 540.805 257.509C542.974 245.79 543.961 233.782 545.006 221.745C546.066 209.707 547.214 197.617 548.858 185.593C549.664 179.579 550.577 173.581 551.598 167.602C552.091 164.61 552.642 161.628 553.187 158.645C553.761 155.667 554.352 152.693 554.966 149.725C557.447 137.855 560.288 126.067 563.497 114.385C566.763 102.718 570.337 91.1421 574.351 79.7232C574.466 79.3967 574.824 79.2254 575.15 79.3401C575.466 79.4512 575.637 79.7934 575.541 80.1119Z" fill="white"/>
<path d="M536.685 392.777C537.433 397.02 542.271 399.122 545.913 396.818C566.006 384.108 619.568 343.035 629.264 261.532C637.453 192.707 648.433 156.165 654.568 139.922C655.865 136.487 652.023 133.393 648.94 135.386C614.92 157.375 509.602 239.005 536.685 392.777Z" fill="url(#paint2_linear_85_325)"/>
<path d="M542.426 393.815C542.504 393.889 542.589 393.956 542.683 394.015C543.467 394.513 544.507 394.282 545.005 393.498C545.57 392.609 601.678 303.514 617.386 208.331C617.537 207.415 616.917 206.549 616 206.397C615.083 206.246 614.218 206.866 614.066 207.783C598.472 302.273 542.727 390.81 542.166 391.693C541.726 392.383 541.854 393.272 542.426 393.815Z" fill="white"/>
<path d="M46.4604 604.553C46.4604 610.372 51.2263 615.134 57.0513 615.134H629.756C635.58 615.134 640.346 610.372 640.346 604.553L645.112 275.436C645.112 269.617 638.256 258.256 625.691 259.11L65.9807 244.627C58.672 244.438 51.6056 247.251 46.43 252.41C41.2545 257.569 38.4226 264.622 38.5954 271.923L46.4604 604.553Z" fill="url(#paint3_linear_85_325)"/>
<path d="M56.9158 594.403C56.9158 599.913 61.4246 604.422 66.9354 604.422H615.944C621.455 604.422 625.963 599.913 625.963 594.403L630.46 295.627C629.931 277.647 614.168 271.185 604.613 271.567L68.1814 257.175C63.0468 257.037 58.0826 259.016 54.4459 262.643C50.8091 266.27 48.8091 271.235 48.938 276.37L56.9158 594.403Z" fill="url(#paint4_linear_85_325)"/>
<path d="M620.031 452.463C620.024 452.463 620.016 452.463 620.009 452.463C619.198 452.451 618.55 451.785 618.563 450.973L618.918 426.742C618.93 425.939 619.585 425.296 620.385 425.296C620.393 425.296 620.4 425.296 620.407 425.296C621.218 425.308 621.866 425.974 621.854 426.786L621.498 451.016C621.487 451.82 620.831 452.463 620.031 452.463Z" fill="white"/>
<path d="M620.903 393.087C620.896 393.087 620.889 393.087 620.881 393.087C620.07 393.075 619.422 392.407 619.435 391.596L620.797 298.794C620.771 293.282 619.098 288.88 615.824 285.742C609.71 279.885 600.005 280.184 599.596 280.203L428.141 275.606C427.33 275.585 426.691 274.909 426.712 274.099C426.734 273.288 427.357 272.598 428.22 272.671L599.573 277.269C600.64 277.206 610.973 277.027 617.855 283.621C621.727 287.331 623.704 292.442 623.734 298.808L622.371 391.64C622.359 392.443 621.704 393.087 620.903 393.087Z" fill="white"/>
<path d="M1.36244 642.455H673.833C674.583 642.455 675.196 641.842 675.196 641.092V614.9C675.196 614.15 674.583 613.537 673.833 613.537H1.36244C0.613268 613.537 0 614.15 0 614.9V641.092C0 641.842 0.613027 642.455 1.36244 642.455Z" fill="url(#paint5_linear_85_325)"/>
<path d="M492.064 102.688L151.87 100.606C140.69 100.537 131.748 109.876 132.302 121.043L155.706 604.377H534.279L555.298 172.544L492.064 102.688Z" fill="url(#paint6_linear_85_325)"/>
<path d="M506.21 170.473C495.128 170.083 486.609 160.532 487.482 149.478L491.129 103.325L555.365 172.26L506.21 170.473Z" fill="#1A46BE"/>
<g opacity="0.79">
<path opacity="0.78" d="M174.073 379.393C233.697 379.725 462.583 380.807 520.38 381.08C527.671 381.114 533.611 384.717 533.508 389.033C533.409 393.141 527.839 396.382 520.9 396.368L174.792 395.677C168.125 395.663 162.44 392.643 161.676 388.708L161.483 387.713C160.61 383.213 166.449 379.351 174.073 379.393Z" fill="white"/>
</g>
<g opacity="0.79">
<path opacity="0.78" d="M180.516 545.278C237.558 545.38 456.532 545.577 511.827 545.626C518.802 545.632 524.492 549.212 524.401 553.528C524.315 557.636 518.992 560.898 512.354 560.911L181.235 561.559C174.857 561.571 169.412 558.572 168.675 554.641L168.488 553.646C167.644 549.15 173.222 545.265 180.516 545.278Z" fill="white"/>
</g>
<g opacity="0.79">
<path opacity="0.78" d="M327.312 414.285C361.778 414.352 494.089 414.419 527.5 414.434C531.715 414.436 535.093 418.012 534.966 422.327C534.844 426.434 531.573 429.698 527.562 429.715L327.473 430.56C323.619 430.576 320.379 427.582 319.999 423.651L319.903 422.657C319.468 418.163 322.904 414.276 327.312 414.285Z" fill="white"/>
</g>
<path opacity="0.79" d="M331.242 447.533C364.524 447.29 492.288 446.163 524.551 445.877C528.621 445.842 531.904 449.386 531.808 453.702C531.716 457.81 528.577 461.104 524.704 461.157L331.497 463.806C327.776 463.857 324.629 460.892 324.238 456.965L324.139 455.972C323.692 451.482 326.987 447.564 331.242 447.533Z" fill="white"/>
<path opacity="0.79" d="M334.041 480.026C366.674 479.983 491.946 479.625 523.579 479.534C527.569 479.523 530.766 483.087 530.645 487.402C530.529 491.51 527.431 494.784 523.633 494.814L334.189 496.3C330.54 496.329 327.474 493.345 327.115 489.416L327.025 488.422C326.615 483.93 329.869 480.032 334.041 480.026Z" fill="white"/>
<path opacity="0.79" d="M332.64 513.154C365.272 513.111 490.544 512.753 522.177 512.662C526.167 512.651 529.365 516.215 529.243 520.53C529.127 524.637 526.029 527.912 522.231 527.942L332.788 529.428C329.139 529.457 326.072 526.473 325.713 522.544L325.623 521.55C325.213 517.058 328.467 513.16 332.64 513.154Z" fill="white"/>
<g opacity="0.81">
<path d="M504.495 357.399L526.577 357.311L527.363 277.37L505.284 277.023L504.495 357.399Z" fill="#F4F7FA"/>
<path d="M464.637 357.557L487.152 357.468L488.889 180.736L466.384 179.853L464.637 357.557Z" fill="#F4F7FA"/>
<path d="M423.992 357.718L446.953 357.627L448.447 205.634L425.495 204.881L423.992 357.718Z" fill="#F4F7FA"/>
<path d="M382.538 357.883L405.957 357.79L406.362 316.631L382.944 316.493L382.538 357.883Z" fill="#F4F7FA"/>
<path d="M340.248 358.051L364.14 357.956L365.1 260.245L341.213 259.786L340.248 358.051Z" fill="#F4F7FA"/>
<path d="M297.097 358.222L321.476 358.125L322.875 215.875L298.503 215.158L297.097 358.222Z" fill="#F4F7FA"/>
<path d="M253.06 358.397L277.942 358.298L278.972 253.5L254.096 252.992L253.06 358.397Z" fill="#F4F7FA"/>
<path d="M208.108 358.575L233.508 358.474L235.122 194.238L209.732 193.38L208.108 358.575Z" fill="#F4F7FA"/>
<path d="M162.212 358.757L188.146 358.654L189.959 174.198L164.036 173.212L162.212 358.757Z" fill="#F4F7FA"/>
</g>
<path d="M178.854 525.753L296.961 525.277C303.672 525.25 309.151 517.749 309.242 508.462L309.985 432.885C310.078 423.371 304.492 415.668 297.618 415.831L179.488 418.634C172.845 418.791 167.471 426.254 167.381 435.447L166.661 508.697C166.568 518.117 172.047 525.781 178.854 525.753Z" fill="#F4F7FA"/>
<g opacity="0.78">
<path d="M206.286 461.079C215.338 461.64 216.755 454.397 225.678 453.781C240.813 452.738 244.317 473.144 258.893 472.976C270.791 472.839 273.919 459.116 285.681 460.756C294.424 461.975 296.068 470.057 304.591 471.299C306.293 471.546 307.971 471.473 309.609 471.158L309.259 506.814C309.158 517.014 303.141 525.252 295.771 525.282L180.359 525.748C172.724 525.778 166.578 517.181 166.681 506.615L167.324 441.205C174.959 442.043 180.514 444.49 184.485 446.953C194.039 452.878 197.153 460.512 206.286 461.079Z" fill="white"/>
</g>
<path d="M522.173 611.086C529.874 611.752 543.239 612.833 553.775 613.297C560.109 613.575 563.755 612.955 565.855 612.114C565.852 612.351 565.845 612.575 565.835 612.783C565.786 613.891 564.885 614.778 563.765 614.841C543.856 615.952 528.023 615.225 522.386 614.882C521.22 614.811 520.526 613.545 521.122 612.551C521.42 612.054 521.781 611.567 522.173 611.086Z" fill="url(#paint7_linear_85_325)"/>
<path d="M553.775 613.296C543.239 612.833 529.874 611.752 522.173 611.086C529.744 601.797 553.775 595.536 553.775 595.536H560.562C565.23 602.265 565.906 608.672 565.855 612.114C563.755 612.955 560.109 613.575 553.775 613.296Z" fill="url(#paint8_linear_85_325)"/>
<path d="M561.705 584.456L561.07 597.025C561.001 598.386 559.982 599.529 558.619 599.724C557.263 599.918 555.447 599.943 553.521 599.302C552.336 598.907 551.456 597.909 551.238 596.691L549.043 584.456H561.705Z" fill="url(#paint9_linear_85_325)"/>
<path d="M649.86 613.202C653.199 612.736 654.71 611.001 655.344 609.147C655.348 609.164 655.352 609.18 655.356 609.197C655.847 611.153 654.708 613.181 652.431 614.145C649.679 615.311 646.67 615.509 644.334 615.413C641.827 615.31 639.527 614.272 638.262 612.612L638.243 612.587C640.759 613.832 644.29 613.979 649.86 613.202Z" fill="url(#paint10_linear_85_325)"/>
<path d="M634.115 584.376H639.712C648.237 584.201 653.591 602.183 655.344 609.147C654.71 611.002 653.199 612.736 649.86 613.202C644.29 613.979 640.759 613.833 638.243 612.588C633.637 606.527 631.353 597.65 630.256 592.469C629.007 586.576 634.115 584.376 634.115 584.376Z" fill="url(#paint11_linear_85_325)"/>
<path d="M638.992 572.71L642.1 585.072C642.481 586.587 641.756 588.155 640.355 588.874C638.616 589.766 636.168 590.704 633.918 590.433C632.86 590.305 631.981 589.56 631.632 588.563L627.069 575.558L638.992 572.71Z" fill="url(#paint12_linear_85_325)"/>
<path d="M642.7 576.283C638.833 579.713 626.255 580.166 626.255 580.166C580.949 471.427 562.416 455.979 562.416 455.979C568.958 497.022 563.471 587.886 563.471 587.886C555.994 591.186 546.356 587.886 546.356 587.886C545.749 520.693 535.421 462.095 523.22 415.896C553.841 415.208 570.125 404.73 575.443 400.524C600.967 441.676 642.7 576.283 642.7 576.283Z" fill="url(#paint13_linear_85_325)"/>
<path d="M567.666 275.474C573.461 304.384 571.384 356.129 570.02 379.731C569.636 386.364 574.267 395.561 578.011 401.835C578.598 402.819 578.235 404.079 577.216 404.603C570.949 407.824 549.719 417.806 525.113 419.048C523.473 419.13 522.008 418.013 521.583 416.426C503.331 348.277 482.132 304.729 482.132 304.729C505.537 267.353 567.666 275.474 567.666 275.474Z" fill="url(#paint14_linear_85_325)"/>
<path d="M559.324 453.405C559.582 453.405 559.842 453.335 560.078 453.192C560.762 452.774 560.979 451.883 560.563 451.2C560.319 450.799 554.458 441.327 542.599 435.605C541.878 435.259 541.011 435.558 540.661 436.281C540.314 437.002 540.616 437.87 541.338 438.218C552.394 443.553 558.028 452.618 558.084 452.709C558.358 453.157 558.836 453.405 559.324 453.405Z" fill="url(#paint15_linear_85_325)"/>
<path d="M604.021 358.446C602.159 371.914 596.659 386.604 585.655 402.209L581.472 398.798C581.472 398.798 586.301 379.207 583.556 356.974C590.343 355.65 598.36 357.014 604.021 358.446Z" fill="url(#paint16_linear_85_325)"/>
<path d="M561.192 311.145L567.666 275.474C567.666 275.474 610.92 308.536 604.021 358.446C598.36 357.014 590.343 355.649 583.556 356.974C581.578 340.957 575.672 323.57 561.192 311.145Z" fill="url(#paint17_linear_85_325)"/>
<path d="M482.132 304.728L498.828 340.686C496.128 362.394 484.466 371.78 471.892 375.38C471.108 365.487 468.606 357.493 466.285 351.965C482.351 335.377 482.132 304.728 482.132 304.728Z" fill="#FD9B34"/>
<path d="M466.285 351.965C468.607 357.494 471.108 365.487 471.893 375.381C438.345 388.397 429.469 363.154 429.469 363.154L435.669 362.06C449.671 363.535 459.451 359.021 466.285 351.965Z" fill="url(#paint18_linear_85_325)"/>
<path d="M497.514 260.336L505.575 289.967C506.48 293.296 510.08 295.083 513.284 293.803C516.74 292.421 521.126 290.535 524.901 288.496C528.931 286.321 530.192 281.137 527.641 277.333L510.883 252.346L497.514 260.336Z" fill="url(#paint19_linear_85_325)"/>
<path d="M414.094 343.326L620.633 418.498C629.295 421.65 633.436 431.514 629.62 439.905L628.993 441.283C625.616 448.707 616.842 451.964 609.439 448.539L408.893 355.765L414.094 343.326Z" fill="url(#paint20_linear_85_325)"/>
<path opacity="0.27" d="M319.16 398.226C375.47 398.226 421.118 353.401 421.118 298.108C421.118 242.814 375.47 197.99 319.16 197.99C262.851 197.99 217.203 242.814 217.203 298.108C217.203 353.401 262.851 398.226 319.16 398.226Z" fill="white"/>
<path d="M205.709 298.107C205.709 359.635 256.503 409.512 319.16 409.512C381.818 409.512 432.611 359.635 432.611 298.107C432.611 236.581 381.818 186.703 319.16 186.703C256.503 186.703 205.709 236.581 205.709 298.107ZM222.375 298.107C222.375 245.619 265.707 203.068 319.16 203.068C372.614 203.068 415.946 245.619 415.946 298.107C415.946 350.597 372.614 393.147 319.16 393.147C265.707 393.147 222.375 350.597 222.375 298.107Z" fill="url(#paint21_linear_85_325)"/>
<path d="M423.986 312.054C423.947 312.054 423.909 312.051 423.87 312.046C423.373 311.983 423.022 311.528 423.085 311.032C423.415 308.448 423.65 305.805 423.78 303.172C423.805 302.672 424.261 302.279 424.731 302.311C425.232 302.336 425.617 302.762 425.592 303.262C425.46 305.94 425.221 308.632 424.885 311.262C424.826 311.719 424.435 312.054 423.986 312.054ZM423.207 280.902C422.776 280.902 422.393 280.594 422.315 280.155C421.052 273.111 419.027 266.18 416.295 259.553C416.295 259.553 416.294 259.55 416.293 259.549C400.198 220.501 362.071 195.27 319.16 195.27C299.148 195.27 279.697 200.828 262.907 211.344C262.48 211.609 261.922 211.481 261.656 211.057C261.39 210.631 261.519 210.072 261.943 209.806C279.023 199.109 298.808 193.456 319.161 193.456C362.806 193.456 401.591 219.128 417.969 258.854C417.969 258.854 417.97 258.856 417.971 258.857C420.752 265.605 422.815 272.663 424.101 279.835C424.189 280.328 423.861 280.799 423.368 280.887C423.313 280.898 423.26 280.902 423.207 280.902Z" fill="white"/>
<path d="M479.88 237.824C479.807 238.333 486.603 271.638 486.603 271.638L505.537 267.353L503.785 234.83C503.785 234.83 481.11 229.306 479.88 237.824Z" fill="url(#paint22_linear_85_325)"/>
<path d="M499.527 242.077L501.79 259.126C501.819 259.344 501.818 259.56 501.787 259.779C501.596 261.115 500.602 265.664 496.01 264.363C491.842 263.183 488.022 262.168 485.382 262.975C484.198 263.337 483.482 264.538 483.731 265.752C484.349 268.778 485.868 275.57 488.089 281.27C488.539 282.427 489.806 283.034 490.998 282.687C494.589 281.64 502.1 279.22 507.687 275.858C508.444 275.402 508.895 274.579 508.858 273.696C508.676 269.392 508.173 256.309 508.597 252.642C508.994 249.2 513.219 247.138 515.054 246.398C515.656 246.156 516.128 245.682 516.368 245.079C517.218 242.949 518.39 238.021 512.179 236.001C510.879 235.578 510.194 234.177 510.655 232.89C511.576 230.329 511.963 226.42 507.158 224.267C502.274 222.078 498.627 224.682 496.657 226.798C495.861 227.653 494.583 227.783 493.595 227.159C493.032 226.804 492.308 226.687 491.432 227.233C490.253 227.968 488.69 227.467 488.081 226.217C486.912 223.817 484.528 221.245 479.747 222.064C471.262 223.517 470.301 232.919 472.54 238.428C474.778 243.938 483.887 241.839 488.457 239.062C491.931 236.95 496.438 239.163 498.399 240.346C499.02 240.72 499.431 241.358 499.527 242.077Z" fill="url(#paint23_linear_85_325)"/>
<path d="M509.359 258.858C509.359 258.858 505.871 249.09 509.455 246.698C513.038 244.306 518.346 245.548 517.177 252.624C515.724 261.425 509.359 258.858 509.359 258.858Z" fill="url(#paint24_linear_85_325)"/>
<path d="M583.197 398.205L563.672 396.613L555.216 404.408C555.216 404.408 557.216 407.174 563.471 405.584C569.725 403.995 578.292 403.605 578.292 403.605C578.292 403.605 586.926 407.497 587.032 400.214L583.197 398.205Z" fill="url(#paint25_linear_85_325)"/>
<path d="M431.957 367.772C430.268 369.092 424.483 366.337 420.943 364.433C419.218 363.505 418.382 361.488 418.974 359.62C419.826 356.934 421.245 353.466 422.995 353.029C425.897 352.303 438.915 362.336 431.957 367.772Z" fill="url(#paint26_linear_85_325)"/>
<path d="M616.558 445.795C616.182 445.795 615.831 445.56 615.701 445.184C615.537 444.71 615.788 444.194 616.261 444.031C622.028 442.037 625.048 438.821 625.236 434.472C625.427 430.059 622.634 425.955 618.285 424.26L593.486 414.591C593.019 414.409 592.788 413.882 592.97 413.416C593.151 412.949 593.678 412.719 594.144 412.9L618.943 422.57C624.016 424.548 627.272 429.362 627.047 434.551C626.894 438.103 625.001 442.929 616.854 445.745C616.757 445.779 616.656 445.795 616.558 445.795Z" fill="white"/>
<path d="M586.174 411.672C586.065 411.672 585.953 411.652 585.845 411.611L582.631 410.357C582.163 410.176 581.932 409.649 582.114 409.183C582.296 408.716 582.824 408.486 583.289 408.667L586.503 409.92C586.97 410.101 587.202 410.628 587.02 411.094C586.88 411.453 586.537 411.672 586.174 411.672Z" fill="white"/>
<g opacity="0.3">
<path d="M187.986 156.268C189.179 156.002 190.404 156.675 190.801 157.859C191.669 160.448 192.437 163.113 193.085 165.78C193.4 167.077 192.604 168.384 191.307 168.699C191.291 168.703 191.276 168.706 191.261 168.71C189.979 168.995 188.698 168.203 188.387 166.921C187.772 164.387 187.042 161.856 186.218 159.397C185.793 158.131 186.475 156.76 187.741 156.336C187.822 156.308 187.904 156.286 187.986 156.268ZM192.412 176.856C192.504 176.835 192.599 176.82 192.696 176.81C194.024 176.675 195.21 177.642 195.346 178.97C195.623 181.698 195.786 184.465 195.831 187.193C195.853 188.528 194.794 189.624 193.454 189.651C192.119 189.672 191.02 188.607 190.998 187.273C190.955 184.68 190.799 182.051 190.536 179.459C190.41 178.227 191.233 177.118 192.412 176.856ZM192.195 197.906C192.458 197.847 192.735 197.832 193.017 197.866C194.342 198.031 195.283 199.237 195.119 200.562C194.784 203.278 194.326 206.013 193.758 208.692C193.48 209.998 192.197 210.83 190.891 210.555C189.586 210.278 188.751 208.994 189.028 207.689C189.568 205.145 190.003 202.549 190.322 199.969C190.45 198.927 191.225 198.122 192.195 197.906ZM187.275 218.383C187.709 218.286 188.175 218.308 188.624 218.471C189.879 218.927 190.526 220.314 190.07 221.569C189.135 224.142 188.077 226.706 186.926 229.189C186.364 230.399 184.928 230.926 183.716 230.366C182.505 229.805 181.979 228.368 182.54 227.156C183.633 224.798 184.638 222.363 185.526 219.917C185.819 219.111 186.496 218.556 187.275 218.383ZM177.913 237.248C178.521 237.113 179.182 237.212 179.747 237.576C180.87 238.299 181.193 239.795 180.47 240.917C178.991 243.213 177.392 245.478 175.718 247.649C174.904 248.706 173.386 248.903 172.328 248.087C171.271 247.272 171.075 245.755 171.89 244.697C173.481 242.634 175.001 240.481 176.407 238.299C176.765 237.742 177.314 237.382 177.913 237.248ZM164.611 253.572C165.399 253.396 166.258 253.619 166.865 254.239C167.799 255.192 167.784 256.722 166.831 257.657C164.877 259.572 162.817 261.428 160.707 263.171C159.677 264.021 158.154 263.876 157.304 262.847C156.454 261.818 156.599 260.294 157.628 259.444C159.633 257.787 161.59 256.025 163.447 254.205C163.781 253.877 164.186 253.667 164.611 253.572ZM79.4067 278.446C79.7335 278.373 80.0798 278.368 80.4285 278.441C82.9697 278.976 85.5688 279.407 88.1528 279.721C89.4776 279.883 90.4213 281.088 90.2598 282.412C90.0991 283.737 88.894 284.681 87.5684 284.52C84.8471 284.188 82.1095 283.735 79.4332 283.172C78.1267 282.897 77.2905 281.615 77.5655 280.309C77.7669 279.351 78.5099 278.646 79.4067 278.446ZM148.033 266.533C149.012 266.315 150.063 266.725 150.618 267.627C151.317 268.765 150.962 270.253 149.825 270.953C147.494 272.386 145.072 273.735 142.627 274.963C141.432 275.556 139.981 275.081 139.382 273.887C138.783 272.695 139.265 271.242 140.458 270.642C142.78 269.477 145.079 268.196 147.293 266.835C147.528 266.69 147.778 266.59 148.033 266.533ZM100.37 280.43C100.525 280.395 100.687 280.375 100.853 280.372C103.451 280.324 106.081 280.163 108.671 279.895C109.999 279.758 111.187 280.723 111.325 282.05C111.462 283.378 110.499 284.572 109.17 284.704C106.445 284.986 103.677 285.155 100.943 285.206C99.608 285.231 98.5056 284.168 98.4812 282.834C98.4591 281.665 99.2711 280.675 100.37 280.43ZM128.976 275.467C130.166 275.202 131.39 275.872 131.789 277.054C132.216 278.319 131.536 279.69 130.271 280.118C127.682 280.991 125.019 281.765 122.358 282.416C122.342 282.421 122.325 282.424 122.308 282.428C121.028 282.713 119.749 281.923 119.436 280.644C119.118 279.347 119.911 278.038 121.209 277.721C123.736 277.102 126.265 276.367 128.726 275.536C128.809 275.509 128.892 275.485 128.976 275.467Z" fill="url(#paint27_linear_85_325)"/>
<path d="M63.1813 273.463C63.6459 273.36 64.1459 273.392 64.6199 273.586C65.7732 274.058 66.9556 274.514 68.1344 274.942C69.3892 275.397 70.0381 276.783 69.5829 278.038C69.1282 279.293 67.7414 279.943 66.4864 279.486C65.2464 279.037 64.003 278.557 62.789 278.06C61.5538 277.555 60.9617 276.143 61.4673 274.908C61.7788 274.146 62.4348 273.629 63.1813 273.463Z" fill="url(#paint28_linear_85_325)"/>
</g>
<g opacity="0.3">
<path d="M11.2948 221.131C12.4333 220.878 13.6196 221.48 14.0642 222.599C14.5238 223.757 15.0158 224.926 15.5262 226.07C16.0696 227.29 15.5216 228.719 14.3025 229.262C13.0779 229.808 11.6538 229.257 11.1107 228.039C10.5738 226.833 10.0554 225.603 9.5711 224.384C9.07855 223.143 9.68507 221.738 10.9256 221.245C11.047 221.196 11.1709 221.159 11.2948 221.131Z" fill="url(#paint29_linear_85_325)"/>
<path d="M78.2038 94.4485C79.2894 94.2068 80.3834 93.9824 81.4851 93.7757C82.7972 93.5299 84.0606 94.3938 84.3069 95.7059C84.5532 97.018 83.6837 98.2874 82.3772 98.5279C79.8345 99.0052 77.3168 99.5843 74.8664 100.258C73.5774 100.61 72.249 99.8551 71.895 98.5681C71.541 97.2801 72.2979 95.9497 73.5852 95.5962C75.1009 95.1791 76.6551 94.7933 78.2038 94.4485ZM94.1594 92.2846C94.2913 92.2552 94.4276 92.2366 94.5674 92.2296C97.261 92.0949 99.9902 92.0732 102.679 92.165C104.013 92.2103 105.058 93.3289 105.013 94.6625C104.967 95.997 103.846 97.0454 102.514 96.9958C99.9603 96.9088 97.3677 96.93 94.8079 97.057C93.4748 97.1237 92.3401 96.0967 92.2736 94.7639C92.2141 93.5701 93.0307 92.5359 94.1594 92.2846ZM61.5831 99.8094C62.6955 99.5616 63.8618 100.131 64.3273 101.216C64.8536 102.443 64.2854 103.864 63.0586 104.391C60.7116 105.397 58.3761 106.518 56.116 107.724C54.9369 108.35 53.4738 107.906 52.8456 106.729C52.2174 105.55 52.6634 104.086 53.8413 103.458C56.2211 102.189 58.6814 101.008 61.1528 99.9479C61.2942 99.8872 61.4383 99.8416 61.5831 99.8094ZM114.849 93.5374C115.148 93.4706 115.465 93.461 115.786 93.5162C118.441 93.9764 121.108 94.5557 123.713 95.2377C125.004 95.576 125.777 96.8965 125.439 98.1876C125.101 99.4797 123.781 100.253 122.488 99.9137C120.015 99.2662 117.482 98.7158 114.961 98.2792C113.645 98.0519 112.764 96.7999 112.992 95.4849C113.164 94.4911 113.921 93.7441 114.849 93.5374ZM43.5718 110.031C44.4841 109.828 45.4719 110.167 46.0557 110.973C46.8391 112.054 46.5979 113.565 45.5167 114.349C43.4499 115.846 41.418 117.453 39.477 119.126C38.4659 119.997 36.9394 119.884 36.0678 118.872C35.1967 117.861 35.3102 116.335 36.3213 115.464C38.3642 113.703 40.5035 112.011 42.6797 110.434C42.9557 110.234 43.2595 110.101 43.5718 110.031ZM28.2396 123.958C28.969 123.796 29.7635 123.973 30.3667 124.505C31.3674 125.389 31.4623 126.917 30.5787 127.917C28.8844 129.836 27.2509 131.849 25.7241 133.9C24.9284 134.972 23.4144 135.194 22.3421 134.396C21.2712 133.598 21.0495 132.084 21.8464 131.013C23.4532 128.855 25.1718 126.737 26.9552 124.717C27.3058 124.32 27.7584 124.066 28.2396 123.958ZM16.3079 140.897C16.8627 140.773 17.4627 140.844 17.9998 141.14C19.1687 141.784 19.5938 143.254 18.9492 144.423C17.7118 146.667 16.5554 148.987 15.513 151.321C14.9684 152.539 13.5402 153.086 12.3199 152.541C11.1015 151.996 10.555 150.567 11.0999 149.347C12.1975 146.893 13.4141 144.45 14.7159 142.089C15.0645 141.457 15.6547 141.042 16.3079 140.897ZM8.35521 160.033C8.73956 159.947 9.14993 159.954 9.55476 160.072C10.8365 160.445 11.5724 161.787 11.1991 163.068C10.4827 165.527 9.86344 168.044 9.35837 170.55C9.0945 171.858 7.81833 172.705 6.51179 172.442C5.20283 172.179 4.35583 170.904 4.61969 169.595C5.15151 166.956 5.80358 164.305 6.55781 161.717C6.81372 160.839 7.52265 160.218 8.35521 160.033ZM4.79584 180.456C5.01199 180.407 5.23849 180.389 5.47055 180.403C6.80287 180.485 7.81712 181.631 7.73495 182.963C7.5788 185.513 7.5294 188.103 7.58868 190.663C7.61952 191.998 6.55853 193.104 5.22814 193.135C3.8934 193.166 2.78638 192.109 2.75554 190.774C2.69313 188.079 2.74518 185.352 2.91 182.668C2.97748 181.568 3.77123 180.684 4.79584 180.456ZM5.8096 201.147C5.85803 201.136 5.90719 201.127 5.95683 201.119C7.27494 200.909 8.51425 201.807 8.72438 203.125C9.02125 204.986 9.37909 206.859 9.78802 208.695C9.93598 209.36 10.0916 210.022 10.2531 210.679C10.5714 211.976 9.77862 213.286 8.4822 213.603C7.1759 213.951 5.87683 213.129 5.55851 211.833C5.38838 211.141 5.22525 210.446 5.06958 209.746C4.63945 207.815 4.26329 205.844 3.95099 203.887C3.74785 202.618 4.57246 201.423 5.8096 201.147Z" fill="url(#paint30_linear_85_325)"/>
<path d="M134.807 99.339C135.276 99.2344 135.78 99.2681 136.257 99.4657C137.466 99.9674 138.687 100.504 139.886 101.061C141.097 101.623 141.623 103.061 141.061 104.271C140.498 105.482 139.062 106.009 137.85 105.446C136.711 104.917 135.551 104.407 134.404 103.931C133.172 103.42 132.587 102.005 133.098 100.772C133.412 100.016 134.065 99.5043 134.807 99.339Z" fill="url(#paint31_linear_85_325)"/>
</g>
<path d="M137.719 127.414C137.34 127.116 136.814 127.091 136.409 127.351L124.844 134.789C119.027 132.071 112.734 130.26 106.167 129.523L100.187 117.151C99.9771 116.717 99.5149 116.464 99.0363 116.521L82.6583 118.466C82.1795 118.523 81.7899 118.877 81.6874 119.348L78.7712 132.776C72.5597 135.031 66.8661 138.265 61.8471 142.27L48.862 137.748C48.4068 137.589 47.9012 137.737 47.6032 138.116L37.3976 151.072C37.0993 151.451 37.074 151.977 37.3349 152.382L44.7727 163.946C42.0543 169.764 40.2442 176.057 39.5063 182.624L27.1346 188.604C26.7007 188.814 26.4476 189.276 26.5045 189.754L28.4496 206.132C28.5062 206.611 28.8607 207.001 29.3318 207.103L42.7599 210.019C45.0154 216.231 48.2487 221.925 52.2544 226.943L47.7318 239.929C47.5735 240.384 47.7212 240.889 48.0996 241.188L61.0558 251.393C61.4344 251.692 61.9606 251.717 62.366 251.456L73.9306 244.018C79.7479 246.737 86.0411 248.547 92.6077 249.284L98.5879 261.656C98.7975 262.09 99.2595 262.343 99.7381 262.286L116.116 260.341C116.595 260.285 116.985 259.931 117.087 259.459L120.003 246.031C126.214 243.776 131.908 240.542 136.927 236.537L149.912 241.059C150.367 241.218 150.873 241.07 151.171 240.691L161.377 227.735C161.675 227.357 161.7 226.831 161.439 226.425L154.002 214.861C156.72 209.043 158.53 202.75 159.268 196.183L171.64 190.203C172.074 189.993 172.327 189.532 172.27 189.053L170.325 172.675C170.268 172.196 169.914 171.806 169.443 171.704L156.015 168.788C153.759 162.577 150.526 156.883 146.52 151.864L151.043 138.879C151.201 138.423 151.053 137.918 150.675 137.62L137.719 127.414Z" fill="url(#paint32_linear_85_325)"/>
<path opacity="0.56" d="M95.7931 173.218C103.681 171.461 111.898 175.711 114.87 183.478C118.137 192.017 113.849 201.62 105.312 204.887C101.176 206.471 96.671 206.347 92.6284 204.542C88.585 202.737 85.4861 199.465 83.9039 195.329C80.6365 186.791 84.9246 177.188 93.4619 173.92C94.2318 173.626 95.0111 173.393 95.7931 173.218ZM102.125 201.819C102.734 201.683 103.337 201.502 103.93 201.275C110.476 198.771 113.763 191.406 111.259 184.861C108.754 178.315 101.391 175.024 94.8442 177.532C88.2984 180.037 85.0111 187.401 87.5155 193.946C88.7293 197.118 91.1048 199.626 94.2051 201.011C96.7249 202.135 99.4792 202.408 102.125 201.819Z" fill="white"/>
<path opacity="0.56" d="M90.2564 149.92C91.6111 149.618 92.989 149.383 94.3859 149.217C94.8254 149.164 95.2664 149.12 95.7076 149.081C97.8833 148.894 100.071 148.879 102.236 149.039C102.265 149.041 102.295 149.043 102.324 149.045C102.408 149.051 102.492 149.058 102.576 149.065C102.738 149.078 102.901 149.093 103.064 149.108C103.492 149.149 103.828 149.462 103.917 149.86C103.939 149.956 103.946 150.058 103.936 150.162C103.886 150.694 103.413 151.082 102.883 151.033C100.147 150.775 97.3652 150.81 94.6148 151.137C80.9508 152.758 69.7744 161.33 64.2002 172.891C61.099 179.321 59.7317 186.676 60.6346 194.275C60.7924 195.608 61.0168 196.923 61.305 198.215C63.2429 206.911 68.0724 214.612 75.1659 220.199C83.3135 226.617 93.4731 229.478 103.772 228.255C125.043 225.727 140.278 206.378 137.753 185.117C137.597 183.806 137.375 182.508 137.09 181.228C135.854 175.681 133.417 170.466 129.937 165.966C129.847 165.85 129.788 165.72 129.758 165.585C129.679 165.231 129.804 164.847 130.11 164.61C130.534 164.285 131.14 164.36 131.467 164.784C135.12 169.508 137.679 174.983 138.977 180.806C139.277 182.15 139.509 183.513 139.673 184.888C142.324 207.21 126.315 227.525 104.001 230.176C93.1883 231.46 82.5232 228.456 73.9697 221.718C66.5227 215.853 61.453 207.768 59.418 198.639C59.1158 197.283 58.8804 195.902 58.7141 194.504C57.4302 183.691 60.4334 173.025 67.1709 164.472C73.0376 157.024 81.125 151.954 90.2564 149.92Z" fill="white"/>
<g opacity="0.3">
<path d="M254.651 76.1591C255.281 76.0186 255.954 76.3005 256.282 76.8953C256.894 78.0044 257.482 79.1476 258.028 80.2927C258.383 81.0368 258.067 81.927 257.323 82.2826C256.578 82.641 255.687 82.3212 255.333 81.5773C254.813 80.4862 254.253 79.3968 253.668 78.3379C253.269 77.6172 253.531 76.709 254.253 76.3092C254.381 76.2386 254.515 76.1895 254.651 76.1591Z" fill="url(#paint33_linear_85_325)"/>
<path d="M259.258 86.6789C259.996 86.5143 260.754 86.9326 260.997 87.6657C261.686 89.7366 262.275 91.8668 262.75 93.9955C262.849 94.4437 262.944 94.8945 263.036 95.3478C263.197 96.1572 262.624 96.9225 261.866 97.1064C261.057 97.2686 260.271 96.7447 260.108 95.937C260.021 95.5037 259.93 95.0729 259.835 94.6444C259.383 92.6138 258.821 90.5821 258.165 88.6071C257.905 87.8242 258.328 86.9799 259.11 86.7192C259.16 86.704 259.209 86.69 259.258 86.6789ZM262.307 101.877C262.376 101.862 262.448 101.851 262.519 101.845C263.342 101.783 264.059 102.398 264.122 103.221C264.325 105.858 264.364 108.532 264.241 111.166C264.203 111.99 263.499 112.625 262.68 112.588C261.856 112.549 261.22 111.851 261.258 111.027C261.376 108.514 261.337 105.964 261.145 103.448C261.088 102.699 261.594 102.036 262.307 101.877ZM261.58 117.361C261.764 117.32 261.96 117.314 262.158 117.347C262.971 117.488 263.515 118.261 263.375 119.074C262.924 121.676 262.306 124.28 261.536 126.81C261.296 127.6 260.464 128.043 259.672 127.803C258.884 127.563 258.439 126.729 258.679 125.94C259.413 123.527 260.003 121.046 260.432 118.564C260.539 117.95 261.007 117.489 261.58 117.361ZM257.067 132.193C257.369 132.126 257.694 132.152 257.998 132.286C258.751 132.622 259.09 133.505 258.754 134.258C257.678 136.676 256.442 139.047 255.079 141.307C254.653 142.012 253.735 142.238 253.03 141.814C252.324 141.389 252.096 140.472 252.522 139.764C253.821 137.611 255 135.348 256.027 133.044C256.227 132.594 256.621 132.293 257.067 132.193ZM249.07 145.473C249.491 145.379 249.95 145.468 250.317 145.755C250.965 146.263 251.079 147.201 250.571 147.851C248.94 149.93 247.166 151.93 245.297 153.792C244.713 154.376 243.767 154.373 243.185 153.789C242.603 153.204 242.605 152.258 243.189 151.678C244.972 149.9 246.665 147.994 248.22 146.008C248.442 145.726 248.745 145.545 249.07 145.473ZM238.093 156.408C238.639 156.286 239.232 156.478 239.598 156.949C240.103 157.6 239.985 158.537 239.335 159.044C237.248 160.665 235.039 162.171 232.772 163.518C232.06 163.938 231.147 163.706 230.725 162.997C230.304 162.289 230.537 161.372 231.246 160.952C233.408 159.666 235.513 158.231 237.503 156.686C237.683 156.545 237.885 156.454 238.093 156.408ZM224.78 164.325C225.462 164.173 226.18 164.519 226.47 165.183C226.801 165.939 226.456 166.819 225.701 167.15C223.288 168.206 220.777 169.124 218.237 169.879C217.441 170.101 216.614 169.662 216.38 168.872C216.145 168.082 216.596 167.251 217.386 167.016C219.809 166.296 222.204 165.421 224.505 164.414C224.595 164.375 224.687 164.345 224.78 164.325ZM202.196 169.549C202.28 169.53 202.368 169.518 202.458 169.514C204.632 169.42 206.84 169.205 209.019 168.874C209.35 168.826 209.674 168.775 209.996 168.719C210.81 168.583 211.58 169.13 211.717 169.943C211.856 170.758 211.307 171.552 210.494 171.665C210.149 171.722 209.806 171.777 209.459 171.828C207.182 172.172 204.868 172.398 202.587 172.497C201.763 172.532 201.067 171.894 201.031 171.07C200.999 170.337 201.503 169.703 202.196 169.549Z" fill="url(#paint34_linear_85_325)"/>
</g>
<g opacity="0.3">
<path d="M184.949 45.3313C185.745 45.1542 186.538 45.6496 186.726 46.4455C186.916 47.2472 186.419 48.0523 185.617 48.2415C183.201 48.8123 180.8 49.5355 178.48 50.3914C177.708 50.6678 176.847 50.2815 176.562 49.507C176.277 48.7328 176.673 47.8749 177.446 47.5894C179.88 46.6935 182.397 45.9339 184.929 45.3356C184.936 45.3342 184.943 45.3327 184.949 45.3313ZM192.474 44.024C192.527 44.0122 192.58 44.0035 192.634 43.9975C195.217 43.7059 197.844 43.569 200.441 43.5895C201.266 43.597 201.929 44.2693 201.922 45.0939C201.916 45.9197 201.237 46.5802 200.418 46.5761C197.939 46.5561 195.433 46.6872 192.968 46.9643C192.149 47.0571 191.41 46.4674 191.318 45.6484C191.232 44.8819 191.74 44.1876 192.474 44.024ZM170.648 50.6078C171.294 50.4639 171.981 50.7649 172.299 51.3813C172.676 52.1129 172.389 53.0132 171.656 53.3915C169.449 54.5313 167.293 55.8135 165.248 57.2058C164.563 57.6675 163.638 57.4928 163.174 56.8104C162.71 56.1294 162.887 55.2 163.569 54.7358C165.713 53.277 167.973 51.9324 170.287 50.7389C170.404 50.6782 170.525 50.635 170.648 50.6078ZM207.726 44.1551C207.892 44.1182 208.067 44.1091 208.245 44.132C210.824 44.4703 213.408 44.9717 215.924 45.6226C216.723 45.8286 217.202 46.6434 216.996 47.4422C216.789 48.2379 215.975 48.7181 215.177 48.5133C212.778 47.8933 210.315 47.4156 207.856 47.0925C207.039 46.9848 206.463 46.2349 206.571 45.4178C206.655 44.779 207.132 44.2874 207.726 44.1551ZM158.047 59.1844C158.563 59.0695 159.125 59.2326 159.496 59.6577C160.04 60.2789 159.977 61.2218 159.357 61.765C157.492 63.3961 155.709 65.1585 154.055 67.0056C153.505 67.6213 152.56 67.6716 151.946 67.1212C151.332 66.5709 151.28 65.6265 151.831 65.0125C153.565 63.0773 155.435 61.2283 157.389 59.5174C157.585 59.3471 157.812 59.2367 158.047 59.1844ZM147.872 70.5336C148.267 70.4457 148.695 70.5175 149.052 70.7666C149.728 71.2389 149.893 72.1698 149.421 72.8457C147.999 74.8819 146.687 77.0215 145.524 79.2045C145.136 79.9332 144.231 80.2081 143.504 79.8201C142.776 79.4324 142.501 78.529 142.889 77.8018C144.108 75.5123 145.482 73.2689 146.973 71.1353C147.195 70.8172 147.52 70.6119 147.872 70.5336ZM140.707 83.9952C140.984 83.9335 141.282 83.9492 141.568 84.0603C142.337 84.3564 142.72 85.221 142.423 85.9907C141.529 88.3066 140.769 90.6983 140.166 93.0983C139.965 93.8962 139.154 94.3829 138.354 94.1815C137.555 93.9803 137.069 93.1697 137.271 92.3691C137.904 89.8532 138.7 87.3442 139.637 84.9145C139.824 84.4309 140.236 84.1 140.707 83.9952Z" fill="url(#paint35_linear_85_325)"/>
<path d="M222.559 47.9925C222.84 47.9299 223.142 47.9479 223.43 48.0614C224.619 48.5301 225.799 49.0364 226.938 49.5653C227.686 49.9128 228.011 50.8006 227.664 51.5488C227.315 52.2941 226.429 52.6199 225.681 52.2743C224.594 51.7695 223.468 51.2868 222.334 50.8389C221.567 50.5364 221.191 49.6687 221.493 48.9022C221.682 48.4236 222.091 48.0966 222.559 47.9925Z" fill="url(#paint36_linear_85_325)"/>
</g>
<path d="M225.54 67.0873C225.287 66.8877 224.935 66.8709 224.663 67.0453L216.925 72.0223C213.032 70.2035 208.821 68.9919 204.427 68.4981L200.425 60.2199C200.285 59.9295 199.976 59.7601 199.656 59.7982L188.696 61.0996C188.376 61.1377 188.115 61.3748 188.047 61.6898L186.095 70.6753C181.939 72.1845 178.129 74.3482 174.77 77.0285L166.081 74.0021C165.777 73.8961 165.439 73.9949 165.239 74.2484L158.41 82.918C158.21 83.1715 158.193 83.5236 158.368 83.7947L163.345 91.5332C161.526 95.4261 160.315 99.6371 159.821 104.031L151.542 108.033C151.252 108.173 151.082 108.482 151.121 108.803L152.422 119.762C152.46 120.083 152.697 120.343 153.012 120.412L161.998 122.363C163.507 126.519 165.671 130.329 168.351 133.688L165.325 142.377C165.219 142.681 165.318 143.02 165.571 143.219L174.241 150.048C174.494 150.248 174.846 150.265 175.117 150.09L182.856 145.113C186.748 146.932 190.959 148.143 195.354 148.637L199.356 156.916C199.496 157.206 199.805 157.376 200.125 157.338L211.085 156.036C211.405 155.998 211.666 155.761 211.734 155.446L213.686 146.46C217.842 144.951 221.652 142.787 225.011 140.107L233.699 143.133C234.004 143.24 234.343 143.141 234.542 142.887L241.371 134.218C241.571 133.964 241.588 133.612 241.413 133.341L236.436 125.603C238.255 121.71 239.467 117.499 239.96 113.104L248.239 109.103C248.529 108.963 248.699 108.653 248.661 108.333L247.359 97.3739C247.321 97.0536 247.084 96.7926 246.769 96.7242L237.783 94.7726C236.274 90.6163 234.11 86.8063 231.43 83.4477L234.456 74.7586C234.562 74.454 234.464 74.1156 234.21 73.9159L225.54 67.0873Z" fill="#3A38A3"/>
<path opacity="0.56" d="M197.458 97.5387C199.809 97.0151 202.256 97.2572 204.495 98.2565C207.249 99.4862 209.36 101.715 210.437 104.533C212.663 110.347 209.743 116.888 203.927 119.115C198.1 121.333 191.569 118.419 189.344 112.604C188.265 109.786 188.349 106.718 189.579 103.964C190.808 101.21 193.037 99.0985 195.855 98.0211C196.382 97.8201 196.918 97.6589 197.458 97.5387ZM201.692 116.678C202.084 116.591 202.474 116.474 202.86 116.327C207.137 114.689 209.285 109.877 207.648 105.599C206.855 103.528 205.303 101.887 203.278 100.983C201.251 100.079 198.995 100.019 196.921 100.81C194.849 101.603 193.209 103.156 192.305 105.181C191.4 107.208 191.339 109.465 192.132 111.538C193.621 115.428 197.74 117.558 201.692 116.678Z" fill="white"/>
<path opacity="0.56" d="M193.625 81.3168C194.548 81.1115 195.487 80.9515 196.445 80.8368C198.346 80.6105 200.272 80.5773 202.174 80.7392C202.26 80.7471 202.345 80.7549 202.43 80.7628C203.091 80.8247 203.61 81.3081 203.748 81.9228C203.781 82.0722 203.791 82.2296 203.777 82.3898C203.699 83.2106 202.97 83.8094 202.15 83.7349C200.375 83.567 198.575 83.5903 196.798 83.8022L196.798 83.8024C196.7 83.8137 196.602 83.8267 196.505 83.8393C192.305 84.379 188.399 85.9451 185.056 88.3625C183.241 89.6748 181.593 91.2399 180.155 93.0313C180.144 93.0458 180.132 93.0605 180.12 93.0749C180.085 93.1202 180.049 93.1641 180.014 93.2092C175.86 98.484 174.007 105.061 174.799 111.728C174.901 112.592 175.047 113.442 175.233 114.279C176.488 119.908 179.614 124.893 184.207 128.512C189.482 132.666 196.058 134.517 202.725 133.725C209.388 132.931 215.352 129.592 219.508 124.318C223.663 119.044 225.515 112.467 224.723 105.799C224.623 104.951 224.479 104.11 224.295 103.282C223.494 99.6905 221.917 96.315 219.664 93.4024C219.525 93.2227 219.434 93.0222 219.388 92.8142C219.266 92.2677 219.459 91.6737 219.932 91.3084C220.585 90.8057 221.521 90.9231 222.027 91.5766C224.547 94.836 226.312 98.6132 227.208 102.63C227.415 103.558 227.576 104.497 227.689 105.446C228.575 112.907 226.502 120.265 221.853 126.167C217.205 132.067 210.542 135.81 203.078 136.691C195.618 137.577 188.26 135.506 182.359 130.856C177.221 126.81 173.724 121.232 172.32 114.934C172.112 113.999 171.949 113.046 171.834 112.081C170.119 97.6382 179.724 84.413 193.625 81.3168Z" fill="white"/>
<defs>
<linearGradient id="paint0_linear_85_325" x1="733.406" y1="685.616" x2="229.06" y2="244.313" gradientUnits="userSpaceOnUse">
<stop stop-color="#CBDDFF"/>
<stop offset="1" stop-color="#699DFF"/>
</linearGradient>
<linearGradient id="paint1_linear_85_325" x1="513.5" y1="237" x2="593" y2="70.5" gradientUnits="userSpaceOnUse">
<stop stop-color="#FFDECF"/>
<stop offset="1" stop-color="#FD8C14"/>
</linearGradient>
<linearGradient id="paint2_linear_85_325" x1="608.138" y1="391.132" x2="582.742" y2="141.689" gradientUnits="userSpaceOnUse">
<stop stop-color="#FFEACF"/>
<stop offset="1" stop-color="#FD8C14"/>
</linearGradient>
<linearGradient id="paint3_linear_85_325" x1="395.714" y1="589.833" x2="260.453" y2="184.051" gradientUnits="userSpaceOnUse">
<stop stop-color="#2B3582"/>
<stop offset="1" stop-color="#150E42"/>
</linearGradient>
<linearGradient id="paint4_linear_85_325" x1="851.5" y1="30" x2="-411.975" y2="1070.97" gradientUnits="userSpaceOnUse">
<stop stop-color="#FFEACF"/>
<stop offset="1" stop-color="#FFDECF"/>
</linearGradient>
<linearGradient id="paint5_linear_85_325" x1="80.8799" y1="565.551" x2="683.436" y2="712.119" gradientUnits="userSpaceOnUse">
<stop stop-color="#2B3582"/>
<stop offset="1" stop-color="#150E42"/>
</linearGradient>
<linearGradient id="paint6_linear_85_325" x1="366.116" y1="147.264" x2="243.5" y2="890.5" gradientUnits="userSpaceOnUse">
<stop stop-color="#93B8FF"/>
<stop offset="0.343529" stop-color="#185CDC"/>
<stop offset="1" stop-color="#1D218B"/>
</linearGradient>
<linearGradient id="paint7_linear_85_325" x1="632.923" y1="1371.52" x2="625.15" y2="1305.66" gradientUnits="userSpaceOnUse">
<stop stop-color="#53D8FF"/>
<stop offset="0.2057" stop-color="#4DB9FD"/>
<stop offset="1" stop-color="#3840F7"/>
</linearGradient>
<linearGradient id="paint8_linear_85_325" x1="565.858" y1="604.45" x2="522.173" y2="604.45" gradientUnits="userSpaceOnUse">
<stop stop-color="#2B3582"/>
<stop offset="1" stop-color="#150E42"/>
</linearGradient>
<linearGradient id="paint9_linear_85_325" x1="561.705" y1="592.151" x2="549.043" y2="592.151" gradientUnits="userSpaceOnUse">
<stop stop-color="#F9B776"/>
<stop offset="1" stop-color="#F47960"/>
</linearGradient>
<linearGradient id="paint10_linear_85_325" x1="735.155" y1="1359.45" x2="727.382" y2="1293.59" gradientUnits="userSpaceOnUse">
<stop stop-color="#53D8FF"/>
<stop offset="0.2057" stop-color="#4DB9FD"/>
<stop offset="1" stop-color="#3840F7"/>
</linearGradient>
<linearGradient id="paint11_linear_85_325" x1="655.343" y1="599.027" x2="630.059" y2="599.027" gradientUnits="userSpaceOnUse">
<stop stop-color="#2B3582"/>
<stop offset="1" stop-color="#150E42"/>
</linearGradient>
<linearGradient id="paint12_linear_85_325" x1="642.201" y1="581.595" x2="627.069" y2="581.595" gradientUnits="userSpaceOnUse">
<stop stop-color="#F9B776"/>
<stop offset="1" stop-color="#F47960"/>
</linearGradient>
<linearGradient id="paint13_linear_85_325" x1="677.253" y1="625.847" x2="478.468" y2="400.944" gradientUnits="userSpaceOnUse">
<stop stop-color="#2B3582"/>
<stop offset="1" stop-color="#150E42"/>
</linearGradient>
<linearGradient id="paint14_linear_85_325" x1="530.212" y1="274.729" x2="530.212" y2="419.052" gradientUnits="userSpaceOnUse">
<stop stop-color="#FD8C14"/>
<stop offset="1" stop-color="#FDB569"/>
</linearGradient>
<linearGradient id="paint15_linear_85_325" x1="585.283" y1="284.235" x2="546.009" y2="465.878" gradientUnits="userSpaceOnUse">
<stop stop-color="#53D8FF"/>
<stop offset="1" stop-color="#3840F7"/>
</linearGradient>
<linearGradient id="paint16_linear_85_325" x1="572.874" y1="361.025" x2="626.742" y2="408.726" gradientUnits="userSpaceOnUse">
<stop stop-color="#F9B776"/>
<stop offset="1" stop-color="#F47960"/>
</linearGradient>
<linearGradient id="paint17_linear_85_325" x1="480.823" y1="233.737" x2="826.157" y2="534.091" gradientUnits="userSpaceOnUse">
<stop stop-color="#FD9322"/>
<stop offset="1" stop-color="#FDB569"/>
</linearGradient>
<linearGradient id="paint18_linear_85_325" x1="471.892" y1="365.537" x2="429.469" y2="365.537" gradientUnits="userSpaceOnUse">
<stop stop-color="#F9B776"/>
<stop offset="1" stop-color="#F47960"/>
</linearGradient>
<linearGradient id="paint19_linear_85_325" x1="513.129" y1="252.167" x2="513.592" y2="331.389" gradientUnits="userSpaceOnUse">
<stop stop-color="#F9B776"/>
<stop offset="1" stop-color="#F47960"/>
</linearGradient>
<linearGradient id="paint20_linear_85_325" x1="631.044" y1="396.614" x2="408.893" y2="396.614" gradientUnits="userSpaceOnUse">
<stop stop-color="#2B3582"/>
<stop offset="1" stop-color="#150E42"/>
</linearGradient>
<linearGradient id="paint21_linear_85_325" x1="432.611" y1="298.108" x2="205.709" y2="298.108" gradientUnits="userSpaceOnUse">
<stop stop-color="#2B3582"/>
<stop offset="1" stop-color="#150E42"/>
</linearGradient>
<linearGradient id="paint22_linear_85_325" x1="487.422" y1="239.14" x2="518.65" y2="295.767" gradientUnits="userSpaceOnUse">
<stop stop-color="#F9B776"/>
<stop offset="1" stop-color="#F47960"/>
</linearGradient>
<linearGradient id="paint23_linear_85_325" x1="515.121" y1="255.71" x2="469.018" y2="249.058" gradientUnits="userSpaceOnUse">
<stop stop-color="#2B3582"/>
<stop offset="1" stop-color="#150E42"/>
</linearGradient>
<linearGradient id="paint24_linear_85_325" x1="538.115" y1="287.73" x2="511.741" y2="251.503" gradientUnits="userSpaceOnUse">
<stop stop-color="#F9B776"/>
<stop offset="1" stop-color="#F47960"/>
</linearGradient>
<linearGradient id="paint25_linear_85_325" x1="551.601" y1="385.047" x2="605.469" y2="432.748" gradientUnits="userSpaceOnUse">
<stop stop-color="#F9B776"/>
<stop offset="1" stop-color="#F47960"/>
</linearGradient>
<linearGradient id="paint26_linear_85_325" x1="433.977" y1="360.554" x2="418.785" y2="360.554" gradientUnits="userSpaceOnUse">
<stop stop-color="#F9B776"/>
<stop offset="1" stop-color="#F47960"/>
</linearGradient>
<linearGradient id="paint27_linear_85_325" x1="202.659" y1="208.766" x2="68.0846" y2="238.739" gradientUnits="userSpaceOnUse">
<stop stop-color="#B37CFF"/>
<stop offset="1" stop-color="#F895E7"/>
</linearGradient>
<linearGradient id="paint28_linear_85_325" x1="69.4376" y1="275.644" x2="61.5779" y2="277.394" gradientUnits="userSpaceOnUse">
<stop stop-color="#B37CFF"/>
<stop offset="1" stop-color="#F895E7"/>
</linearGradient>
<linearGradient id="paint29_linear_85_325" x1="15.2647" y1="224.673" x2="9.87129" y2="225.874" gradientUnits="userSpaceOnUse">
<stop stop-color="#B37CFF"/>
<stop offset="1" stop-color="#F895E7"/>
</linearGradient>
<linearGradient id="paint30_linear_85_325" x1="133.67" y1="133.909" x2="-4.94548" y2="164.782" gradientUnits="userSpaceOnUse">
<stop stop-color="#B37CFF"/>
<stop offset="1" stop-color="#F895E7"/>
</linearGradient>
<linearGradient id="paint31_linear_85_325" x1="140.979" y1="101.612" x2="133.22" y2="103.341" gradientUnits="userSpaceOnUse">
<stop stop-color="#B37CFF"/>
<stop offset="1" stop-color="#F895E7"/>
</linearGradient>
<linearGradient id="paint32_linear_85_325" x1="1419.47" y1="1217.98" x2="1791.24" y2="1507.65" gradientUnits="userSpaceOnUse">
<stop stop-color="#3A39A3"/>
<stop offset="1" stop-color="#EF497A"/>
</linearGradient>
<linearGradient id="paint33_linear_85_325" x1="257.746" y1="78.8492" x2="253.91" y2="79.7035" gradientUnits="userSpaceOnUse">
<stop stop-color="#B37CFF"/>
<stop offset="1" stop-color="#F895E7"/>
</linearGradient>
<linearGradient id="paint34_linear_85_325" x1="268.897" y1="121.597" x2="193.718" y2="138.341" gradientUnits="userSpaceOnUse">
<stop stop-color="#B37CFF"/>
<stop offset="1" stop-color="#F895E7"/>
</linearGradient>
<linearGradient id="paint35_linear_85_325" x1="219.292" y1="57" x2="133.486" y2="76.111" gradientUnits="userSpaceOnUse">
<stop stop-color="#B37CFF"/>
<stop offset="1" stop-color="#F895E7"/>
</linearGradient>
<linearGradient id="paint36_linear_85_325" x1="227.53" y1="49.5308" x2="221.661" y2="50.8378" gradientUnits="userSpaceOnUse">
<stop stop-color="#B37CFF"/>
<stop offset="1" stop-color="#F895E7"/>
</linearGradient>
</defs>
</svg>
