<?xml version="1.0" encoding="utf-8"?>
<!-- Generator: Adobe Illustrator 27.5.0, SVG Export Plug-In . SVG Version: 6.00 Build 0)  -->
<svg version="1.1" xmlns="http://www.w3.org/2000/svg" xmlns:xlink="http://www.w3.org/1999/xlink" x="0px" y="0px"
	 viewBox="0 0 3710 3710" style="enable-background:new 0 0 3710 3710;" xml:space="preserve">
<g id="Background">
	<g>
		<g>
			<rect style="fill:#FFFFFF;" width="3710" height="3710"/>
		</g>
	</g>
</g>
<g id="Illustration">
	<g>
		<linearGradient id="SVGID_1_" gradientUnits="userSpaceOnUse" x1="3493.5989" y1="3300.2288" x2="1400.6165" y2="1468.8704">
			<stop  offset="0" style="stop-color:#B37CFF"/>
			<stop  offset="1" style="stop-color:#F895E7"/>
		</linearGradient>
		<path style="opacity:0.3;fill:url(#SVGID_1_);" d="M3142.651,2346.625c-271.522,633.674-994.793,988.662-1622.015,892.906
			c-102.062-15.582-381.867-61.997-629.596-280.967C414.145,2537.03,312.158,1702.338,696.854,1114.111
			c279.991-428.126,781.904-670.816,1258.82-658.677c102.728,2.615,496.423,18.73,842.413,301.504
			c50.819,41.534,162.906,140.23,263.923,296.805C3299.216,1421.411,3319.604,1933.652,3142.651,2346.625z"/>
		<g>
			
				<linearGradient id="SVGID_00000171706698244509588390000011671742786911267731_" gradientUnits="userSpaceOnUse" x1="78.2174" y1="2629.5205" x2="926.3351" y2="2629.5205" gradientTransform="matrix(-0.9613 0.2755 0.2755 0.9613 2406.8516 -1384.1506)">
				<stop  offset="0" style="stop-color:#A737D5"/>
				<stop  offset="1" style="stop-color:#EF497A"/>
			</linearGradient>
			<path style="fill:url(#SVGID_00000171706698244509588390000011671742786911267731_);" d="M2908.425,656.165
				c2.991-9.232-7.774-16.819-15.553-11.017c-78.998,58.917-273.317,240.149-270.451,595.792
				c3.595,446.208-106.339,596.38-231.593,681.366c0,0,161.959-28.251,279.085-179.999
				C2957.484,1369.733,2855.239,820.32,2908.425,656.165z"/>
			<path style="fill:#FFFFFF;" d="M2838.478,787.455c-14.499,47.98-28.044,96.221-39.806,144.888
				c-12.015,48.596-22.552,97.536-31.549,146.732c-8.807,49.227-16.688,98.612-22.461,148.258
				c-5.995,49.618-9.853,99.438-13.551,149.471c-3.975,49.984-7.696,100.36-16.585,150.51
				c-8.825,50.052-23.766,99.855-47.364,145.451c-5.895,11.362-12.02,22.661-18.75,33.486
				c-6.532,10.955-13.551,21.623-20.757,32.162c-14.522,21.01-30.463,41.092-47.822,59.9
				c-34.818,37.533-75.325,69.734-118.895,95.931c-4.586,2.757-10.538,1.275-13.296-3.311c-2.708-4.503-1.326-10.324,3.066-13.143
				l0.031-0.02c10.417-6.672,20.744-13.454,30.734-20.674c5.054-3.531,9.94-7.278,14.895-10.932
				c4.81-3.837,9.771-7.489,14.458-11.47c19.01-15.605,36.902-32.526,53.453-50.687c33.246-36.119,61.265-77.392,83.885-120.911
				c11.068-21.894,20.503-44.565,28.161-67.884c7.641-23.327,13.501-47.277,18-71.58c9.004-48.633,13.099-98.464,17.433-148.416
				c4.4-49.958,9.165-100.13,15.987-150.028c3.343-24.955,7.135-49.847,11.37-74.659c2.046-12.417,4.332-24.793,6.596-37.171
				c2.382-12.356,4.833-24.698,7.383-37.016c10.293-49.258,22.084-98.179,35.403-146.658
				c13.552-48.415,28.385-96.455,45.042-143.842c0.477-1.355,1.96-2.066,3.314-1.59
				C2838.167,784.713,2838.875,786.133,2838.478,787.455z"/>
		</g>
		<g>
			<g>
				
					<linearGradient id="SVGID_00000072269383778439738990000017278155222388429987_" gradientUnits="userSpaceOnUse" x1="-2447.7913" y1="-278.0777" x2="-1407.4297" y2="-278.0777" gradientTransform="matrix(-0.1013 -0.995 -0.995 0.1013 2449.1011 -329.2292)">
					<stop  offset="0" style="stop-color:#CE1567"/>
					<stop  offset="1" style="stop-color:#7A1DBC"/>
				</linearGradient>
				<path style="fill:url(#SVGID_00000072269383778439738990000017278155222388429987_);" d="M2677.229,2084.978
					c3.102,17.611,23.181,26.331,38.293,16.771c83.385-52.745,305.66-223.193,345.9-561.421
					c33.981-285.618,79.549-437.262,105.006-504.669c5.383-14.254-10.56-27.095-23.355-18.824
					C3001.895,1108.088,2564.838,1446.845,2677.229,2084.978z"/>
				<path style="fill:#FFFFFF;" d="M2701.055,2089.289c0.322,0.305,0.676,0.583,1.065,0.829c3.254,2.068,7.569,1.107,9.637-2.147
					c2.344-3.689,235.184-373.423,300.373-768.421c0.626-3.801-1.948-7.394-5.752-8.026c-3.805-0.627-7.397,1.948-8.027,5.753
					c-64.713,392.123-296.049,759.54-298.378,763.205C2698.15,2083.347,2698.679,2087.036,2701.055,2089.289z"/>
			</g>
		</g>
		<g>
			
				<linearGradient id="SVGID_00000014615627307977241100000014280693062738731418_" gradientUnits="userSpaceOnUse" x1="-936.4348" y1="2902.7397" x2="-375.1195" y2="1218.7892" gradientTransform="matrix(-1 0 0 1 1155.7772 0)">
				<stop  offset="0" style="stop-color:#2B3582"/>
				<stop  offset="1" style="stop-color:#150E42"/>
			</linearGradient>
			<path style="fill:url(#SVGID_00000014615627307977241100000014280693062738731418_);" d="M642.85,2963.828
				c0,24.149,19.778,43.908,43.951,43.908H3063.46c24.172,0,43.95-19.759,43.95-43.908l19.776-1365.801
				c0-24.149-28.452-71.295-80.596-67.752l-2322.733-60.1c-30.33-0.785-59.655,10.889-81.133,32.297
				c-21.478,21.408-33.23,50.678-32.513,80.979L642.85,2963.828z"/>
			
				<linearGradient id="SVGID_00000170970432428341795250000012894832299917254036_" gradientUnits="userSpaceOnUse" x1="2753.865" y1="1483.549" x2="-1259.6041" y2="4899.4116">
				<stop  offset="0" style="stop-color:#FDF53F"/>
				<stop  offset="1" style="stop-color:#D93C65"/>
			</linearGradient>
			<path style="fill:url(#SVGID_00000170970432428341795250000012894832299917254036_);" d="M686.24,2921.704
				c0,22.868,18.711,41.58,41.58,41.58h2278.324c22.869,0,41.58-18.712,41.58-41.58l18.662-1239.886
				c-2.198-74.614-67.613-101.43-107.266-99.847l-2226.129-59.723c-21.308-0.572-41.909,7.638-57.001,22.691
				c-15.092,15.053-23.392,35.654-22.857,56.963L686.24,2921.704z"/>
			<g>
				<path style="fill:#FFFFFF;" d="M3023.106,2332.671c-0.031,0-0.061,0-0.091,0c-3.367-0.049-6.055-2.816-6.003-6.186
					l1.475-100.553c0.049-3.333,2.767-6.003,6.088-6.003c0.031,0,0.061,0,0.091,0c3.366,0.049,6.055,2.816,6.003,6.186
					l-1.475,100.552C3029.146,2330.001,3026.427,2332.671,3023.106,2332.671z"/>
				<path style="fill:#FFFFFF;" d="M3026.725,2086.265c-0.031,0-0.061,0-0.091,0c-3.366-0.049-6.055-2.822-6.003-6.186
					l5.654-385.119c-0.107-22.875-7.05-41.141-20.64-54.163c-25.369-24.305-65.646-23.064-67.343-22.985l-711.52-19.08
					c-3.364-0.085-6.018-2.889-5.927-6.253c0.088-3.364,2.673-6.228,6.256-5.924l711.097,19.08
					c4.425-0.261,47.308-1.004,75.868,26.361c16.066,15.394,24.274,36.603,24.396,63.025l-5.656,385.241
					C3032.765,2083.595,3030.046,2086.265,3026.725,2086.265z"/>
			</g>
			
				<linearGradient id="SVGID_00000040553446310501562020000009992830132247480736_" gradientUnits="userSpaceOnUse" x1="370.0898" y1="2801.9734" x2="-2130.4504" y2="3410.2126" gradientTransform="matrix(-1 0 0 1 1155.7772 0)">
				<stop  offset="0" style="stop-color:#2B3582"/>
				<stop  offset="1" style="stop-color:#150E42"/>
			</linearGradient>
			<path style="fill:url(#SVGID_00000040553446310501562020000009992830132247480736_);" d="M455.699,3121.115h2790.679
				c3.11,0,5.654-2.544,5.654-5.654v-108.697c0-3.11-2.544-5.654-5.654-5.654H455.699c-3.109,0-5.654,2.544-5.654,5.654v108.697
				C450.045,3118.571,452.589,3121.115,455.699,3121.115z"/>
		</g>
		<g>
			
				<linearGradient id="SVGID_00000168811862816020514900000013309867039966056866_" gradientUnits="userSpaceOnUse" x1="1969.3875" y1="1066.1305" x2="1596.04" y2="3501.5034">
				<stop  offset="0" style="stop-color:#53D8FF"/>
				<stop  offset="0.2057" style="stop-color:#4DB9FD"/>
				<stop  offset="1" style="stop-color:#3840F7"/>
			</linearGradient>
			<path style="fill:url(#SVGID_00000168811862816020514900000013309867039966056866_);" d="M2492.056,881.145l-1411.767-8.643
				c-46.397-0.285-83.504,38.47-81.206,84.811l97.126,2005.784h1571.033l87.23-1792.06L2492.056,881.145z"/>
			
				<linearGradient id="SVGID_00000034781929224020005340000009016229908858539431_" gradientUnits="userSpaceOnUse" x1="2628.0305" y1="945.5009" x2="2293.7908" y2="1349.5818" gradientTransform="matrix(0.9994 0.0343 -0.0343 0.9994 56.5304 -41.0612)">
				<stop  offset="0" style="stop-color:#53D8FF"/>
				<stop  offset="0.2057" style="stop-color:#4DB9FD"/>
				<stop  offset="1" style="stop-color:#3840F7"/>
			</linearGradient>
			<path style="fill:url(#SVGID_00000034781929224020005340000009016229908858539431_);" d="M2550.76,1162.444
				c-45.988-1.618-81.343-41.254-77.719-87.127l15.135-191.53l266.573,286.073L2550.76,1162.444z"/>
			<g style="opacity:0.79;">
				<path style="opacity:0.78;fill:#FFFFFF;" d="M1172.429,2029.439c247.433,1.377,1197.283,5.869,1437.137,7
					c30.254,0.143,54.906,15.095,54.477,33.005l0,0c-0.409,17.048-23.525,30.495-52.321,30.438l-1436.31-2.868
					c-27.666-0.055-51.26-12.591-54.428-28.919l-0.802-4.131C1116.56,2045.292,1140.79,2029.264,1172.429,2029.439z"/>
			</g>
			<g style="opacity:0.79;">
				<path style="opacity:0.78;fill:#FFFFFF;" d="M1199.168,2717.844c236.718,0.42,1145.435,1.238,1374.902,1.442
					c28.944,0.025,52.557,14.883,52.181,32.793l0,0c-0.358,17.049-22.447,30.586-49.996,30.64l-1374.103,2.686
					c-26.468,0.052-49.064-12.392-52.126-28.708l-0.775-4.128C1145.749,2733.912,1168.899,2717.79,1199.168,2717.844z"/>
			</g>
			<g style="opacity:0.79;">
				<path style="opacity:0.78;fill:#FFFFFF;" d="M1808.352,2174.235c143.03,0.279,692.109,0.555,830.761,0.621
					c17.489,0.008,31.508,14.847,30.979,32.753l0,0c-0.503,17.044-14.078,30.59-30.725,30.66l-830.347,3.505
					c-15.994,0.067-29.439-12.359-31.015-28.669l-0.399-4.126C1775.803,2190.331,1790.062,2174.199,1808.352,2174.235z"/>
			</g>
			<path style="opacity:0.79;fill:#FFFFFF;" d="M1824.665,2312.213c138.115-1.011,668.323-5.687,802.21-6.872
				c16.888-0.149,30.515,14.562,30.114,32.471l0,0c-0.382,17.048-13.407,30.716-29.482,30.936l-801.785,10.993
				c-15.444,0.212-28.502-12.093-30.124-28.387l-0.41-4.122C1793.333,2328.601,1807.004,2312.342,1824.665,2312.213z"/>
			<path style="opacity:0.79;fill:#FFFFFF;" d="M1836.28,2447.055c135.42-0.179,655.284-1.664,786.559-2.042
				c16.559-0.048,29.827,14.745,29.322,32.652l0,0c-0.481,17.045-13.337,30.634-29.098,30.757l-786.169,6.167
				c-15.143,0.119-27.869-12.264-29.357-28.568l-0.376-4.125C1805.459,2463.254,1818.964,2447.078,1836.28,2447.055z"/>
			<path style="opacity:0.79;fill:#FFFFFF;" d="M1830.464,2584.532c135.42-0.179,655.284-1.664,786.559-2.042
				c16.558-0.048,29.827,14.745,29.322,32.651l0,0c-0.481,17.045-13.337,30.634-29.099,30.758l-786.169,6.167
				c-15.143,0.119-27.869-12.264-29.357-28.568l-0.376-4.125C1799.643,2600.731,1813.147,2584.555,1830.464,2584.532z"/>
			<g style="opacity:0.81;">
				<polygon style="fill:#F4F7FA;" points="2543.641,1938.166 2635.281,1937.802 2638.542,1606.055 2546.919,1604.612 				"/>
				<polygon style="fill:#F4F7FA;" points="2378.236,1938.822 2471.671,1938.452 2478.88,1205.032 2385.485,1201.37 				"/>
				<polygon style="fill:#F4F7FA;" points="2209.565,1939.491 2304.849,1939.113 2311.049,1308.356 2215.8,1305.231 				"/>
				<polygon style="fill:#F4F7FA;" points="2037.534,1940.174 2134.722,1939.788 2136.401,1768.981 2039.222,1768.409 				"/>
				<polygon style="fill:#F4F7FA;" points="1862.035,1940.87 1961.184,1940.477 1965.17,1534.986 1866.043,1533.083 				"/>
				<polygon style="fill:#F4F7FA;" points="1682.965,1941.58 1784.136,1941.179 1789.939,1350.857 1688.801,1347.881 				"/>
				<polygon style="fill:#F4F7FA;" points="1500.217,1942.306 1603.473,1941.896 1607.748,1506.995 1504.516,1504.89 				"/>
				<polygon style="fill:#F4F7FA;" points="1313.67,1943.046 1419.076,1942.627 1425.775,1261.067 1320.409,1257.504 				"/>
				<polygon style="fill:#F4F7FA;" points="1123.209,1943.801 1230.832,1943.374 1238.356,1177.902 1130.778,1173.811 				"/>
			</g>
			<g>
				<path style="fill:#F4F7FA;" d="M1192.268,2636.817l490.132-1.977c27.85-0.112,50.586-31.242,50.965-69.782l3.083-313.635
					c0.388-39.482-22.794-71.448-51.323-70.771l-490.226,11.63c-27.568,0.654-49.867,31.622-50.242,69.772l-2.988,303.982
					C1141.283,2605.127,1164.02,2636.931,1192.268,2636.817z"/>
				<g style="opacity:0.78;">
					<path style="fill:#FFFFFF;" d="M1306.11,2368.424c37.564,2.33,43.442-27.729,80.474-30.284
						c62.809-4.328,77.349,80.354,137.836,79.658c49.376-0.57,62.359-57.519,111.168-50.714
						c36.283,5.059,43.104,38.599,78.476,43.752c7.062,1.028,14.024,0.723,20.823-0.583l-1.454,147.968
						c-0.416,42.327-25.386,76.517-55.973,76.64l-478.944,1.932c-31.687,0.128-57.193-35.55-56.762-79.399l2.668-271.441
						c31.682,3.474,54.735,13.631,71.216,23.852C1255.283,2334.393,1268.209,2366.073,1306.11,2368.424z"/>
				</g>
			</g>
		</g>
		<g>
			<g>
				<g>
					<g>
						
							<linearGradient id="SVGID_00000122680197206840566660000007580103522494257336_" gradientUnits="userSpaceOnUse" x1="4452.6563" y1="6146.6626" x2="4484.9136" y2="5873.3262" gradientTransform="matrix(-1 0 0 1 7529.2593 0)">
							<stop  offset="0" style="stop-color:#53D8FF"/>
							<stop  offset="0.2057" style="stop-color:#4DB9FD"/>
							<stop  offset="1" style="stop-color:#3840F7"/>
						</linearGradient>
						<path style="fill:url(#SVGID_00000122680197206840566660000007580103522494257336_);" d="M2617.006,2990.938
							c31.957,2.762,87.42,7.25,131.144,9.173c26.283,1.157,41.415-1.417,50.13-4.906c-0.014,0.982-0.042,1.912-0.081,2.774
							c-0.207,4.6-3.946,8.282-8.593,8.541c-82.619,4.612-148.326,1.596-171.719,0.172c-4.837-0.294-7.719-5.551-5.245-9.675
							C2613.88,2994.955,2615.379,2992.935,2617.006,2990.938z"/>
						
							<linearGradient id="SVGID_00000103248762635956511320000015285589407196075670_" gradientUnits="userSpaceOnUse" x1="4730.9683" y1="2963.4001" x2="4912.2534" y2="2963.4001" gradientTransform="matrix(-1 0 0 1 7529.2593 0)">
							<stop  offset="0" style="stop-color:#2B3582"/>
							<stop  offset="1" style="stop-color:#150E42"/>
						</linearGradient>
						<path style="fill:url(#SVGID_00000103248762635956511320000015285589407196075670_);" d="M2748.15,3000.111
							c-43.724-1.924-99.187-6.411-131.144-9.173c31.419-38.548,131.144-64.529,131.144-64.529h28.165
							c19.372,27.924,22.177,54.51,21.965,68.796C2789.566,2998.694,2774.434,3001.268,2748.15,3000.111z"/>
						
							<linearGradient id="SVGID_00000127038826167732005050000015649046792852691628_" gradientUnits="userSpaceOnUse" x1="4748.2007" y1="2912.3577" x2="4800.7461" y2="2912.3577" gradientTransform="matrix(-1 0 0 1 7529.2593 0)">
							<stop  offset="0" style="stop-color:#F9B776"/>
							<stop  offset="1" style="stop-color:#F47960"/>
						</linearGradient>
						<path style="fill:url(#SVGID_00000127038826167732005050000015649046792852691628_);" d="M2781.059,2880.427l-2.636,52.158
							c-0.285,5.648-4.513,10.394-10.17,11.203c-5.627,0.805-13.165,0.907-21.157-1.753c-4.917-1.637-8.568-5.78-9.475-10.834
							l-9.108-50.774H2781.059z"/>
					</g>
					<g>
						<g>
							
								<linearGradient id="SVGID_00000124850350214700206850000006691169957086848956_" gradientUnits="userSpaceOnUse" x1="4028.4031" y1="6096.583" x2="4060.6602" y2="5823.2471" gradientTransform="matrix(-1 0 0 1 7529.2593 0)">
								<stop  offset="0" style="stop-color:#53D8FF"/>
								<stop  offset="0.2057" style="stop-color:#4DB9FD"/>
								<stop  offset="1" style="stop-color:#3840F7"/>
							</linearGradient>
							<path style="fill:url(#SVGID_00000124850350214700206850000006691169957086848956_);" d="M3146.89,2999.72
								c13.859-1.934,20.129-9.133,22.758-16.829c0.017,0.069,0.035,0.138,0.052,0.207c2.039,8.119-2.688,16.533-12.137,20.534
								c-11.421,4.837-23.91,5.661-33.605,5.261c-10.401-0.428-19.949-4.733-25.197-11.622l-0.078-0.103
								C3109.123,3002.335,3123.778,3002.943,3146.89,2999.72z"/>
							
								<linearGradient id="SVGID_00000176018709522311270190000014142532169289502126_" gradientUnits="userSpaceOnUse" x1="4359.6118" y1="2940.895" x2="4464.5391" y2="2940.895" gradientTransform="matrix(-1 0 0 1 7529.2593 0)">
								<stop  offset="0" style="stop-color:#2B3582"/>
								<stop  offset="1" style="stop-color:#150E42"/>
							</linearGradient>
							<path style="fill:url(#SVGID_00000176018709522311270190000014142532169289502126_);" d="M3081.55,2880.093h23.228
								c35.38-0.723,57.598,73.9,64.87,102.799c-2.629,7.696-8.899,14.895-22.758,16.829c-23.112,3.223-37.767,2.615-48.208-2.551
								c-19.115-25.153-28.591-61.992-33.146-83.492C3060.355,2889.225,3081.55,2880.093,3081.55,2880.093z"/>
						</g>
						
							<linearGradient id="SVGID_00000113336614591498084560000003228902297714355872_" gradientUnits="userSpaceOnUse" x1="4414.1514" y1="2868.5542" x2="4476.9482" y2="2868.5542" gradientTransform="matrix(-1 0 0 1 7529.2593 0)">
							<stop  offset="0" style="stop-color:#F9B776"/>
							<stop  offset="1" style="stop-color:#F47960"/>
						</linearGradient>
						<path style="fill:url(#SVGID_00000113336614591498084560000003228902297714355872_);" d="M3101.792,2831.682l12.898,51.299
							c1.581,6.29-1.429,12.796-7.244,15.78c-7.215,3.703-17.374,7.594-26.71,6.468c-4.391-0.529-8.039-3.622-9.489-7.757
							l-18.936-53.972L3101.792,2831.682z"/>
					</g>
					
						<linearGradient id="SVGID_00000155107449571708985310000004140685421231425158_" gradientUnits="userSpaceOnUse" x1="4268.6909" y1="3052.1924" x2="5093.623" y2="2118.8738" gradientTransform="matrix(-1 0 0 1 7529.2593 0)">
						<stop  offset="0" style="stop-color:#2B3582"/>
						<stop  offset="1" style="stop-color:#150E42"/>
					</linearGradient>
					<path style="fill:url(#SVGID_00000155107449571708985310000004140685421231425158_);" d="M3117.177,2846.51
						c-16.047,14.234-68.242,16.113-68.242,16.113c-188.015-451.255-264.926-515.363-264.926-515.363
						c27.148,170.324,4.377,547.402,4.377,547.402c-31.026,13.691-71.026,0-71.026,0c-2.519-278.844-45.379-522.022-96.011-713.739
						c127.075-2.856,194.653-46.341,216.719-63.794C2943.993,2287.904,3117.177,2846.51,3117.177,2846.51z"/>
					
						<linearGradient id="SVGID_00000136378212160418304150000011913464358831224497_" gradientUnits="userSpaceOnUse" x1="5203.8687" y1="1557.6689" x2="3764.2778" y2="2809.748" gradientTransform="matrix(-1 0 0 1 7529.2593 0)">
						<stop  offset="0" style="stop-color:#CB236D"/>
						<stop  offset="1" style="stop-color:#4C246D"/>
					</linearGradient>
					<path style="fill:url(#SVGID_00000136378212160418304150000011913464358831224497_);" d="M2805.795,1598.185
						c24.052,119.975,15.432,334.708,9.77,432.654c-1.592,27.529,17.626,65.694,33.16,91.73c2.436,4.084,0.932,9.313-3.298,11.487
						c-26.006,13.366-114.109,54.791-216.219,59.944c-6.808,0.343-12.888-4.294-14.651-10.878
						c-75.743-282.813-163.718-463.533-163.718-463.533C2547.967,1564.483,2805.795,1598.185,2805.795,1598.185z"/>
					
						<linearGradient id="SVGID_00000064323153074100445890000004789205502102675588_" gradientUnits="userSpaceOnUse" x1="2878.9028" y1="1634.5442" x2="2715.9192" y2="2388.3413">
						<stop  offset="0" style="stop-color:#53D8FF"/>
						<stop  offset="1" style="stop-color:#3840F7"/>
					</linearGradient>
					<path style="fill:url(#SVGID_00000064323153074100445890000004789205502102675588_);" d="M2771.179,2336.578
						c1.067,0,2.149-0.288,3.128-0.882c2.837-1.735,3.737-5.434,2.011-8.268c-1.011-1.664-25.333-40.973-74.548-64.718
						c-2.99-1.435-6.592-0.194-8.041,2.805c-1.443,2.993-0.188,6.597,2.807,8.039c45.882,22.139,69.264,59.761,69.497,60.137
						C2767.168,2335.549,2769.15,2336.578,2771.179,2336.578z"/>
					<g>
						
							<linearGradient id="SVGID_00000173879981456450472340000003660637783650381489_" gradientUnits="userSpaceOnUse" x1="4701.8516" y1="1953.2119" x2="4478.3057" y2="2151.1667" gradientTransform="matrix(-1 0 0 1 7529.2593 0)">
							<stop  offset="0" style="stop-color:#F9B776"/>
							<stop  offset="1" style="stop-color:#F47960"/>
						</linearGradient>
						<path style="fill:url(#SVGID_00000173879981456450472340000003660637783650381489_);" d="M2956.665,1942.511
							c-7.726,55.89-30.553,116.853-76.216,181.609l-17.359-14.152c0,0,20.038-81.3,8.647-173.568
							C2899.905,1930.905,2933.173,1936.569,2956.665,1942.511z"/>
						
							<linearGradient id="SVGID_00000015321918724236439260000010282600784757479051_" gradientUnits="userSpaceOnUse" x1="5083.8535" y1="1424.9835" x2="3650.7549" y2="2671.4158" gradientTransform="matrix(-1 0 0 1 7529.2593 0)">
							<stop  offset="0" style="stop-color:#CB236D"/>
							<stop  offset="1" style="stop-color:#4C246D"/>
						</linearGradient>
						<path style="fill:url(#SVGID_00000015321918724236439260000010282600784757479051_);" d="M2778.929,1746.218l26.865-148.033
							c0,0,179.499,137.206,150.87,344.326c-23.492-5.942-56.76-11.607-84.928-6.111
							C2863.53,1869.934,2839.018,1797.778,2778.929,1746.218z"/>
					</g>
					<g>
						
							<linearGradient id="SVGID_00000087374812862428124690000000573989571349297303_" gradientUnits="userSpaceOnUse" x1="5309.1348" y1="1684.0027" x2="3876.0378" y2="2930.4336" gradientTransform="matrix(-1 0 0 1 7529.2593 0)">
							<stop  offset="0" style="stop-color:#CB236D"/>
							<stop  offset="1" style="stop-color:#4C246D"/>
						</linearGradient>
						<path style="fill:url(#SVGID_00000087374812862428124690000000573989571349297303_);" d="M2450.839,1719.588l69.286,149.218
							c-11.203,90.088-59.597,129.04-111.778,143.98c-3.254-41.058-13.636-74.229-23.269-97.173
							C2451.751,1846.776,2450.839,1719.588,2450.839,1719.588z"/>
						
							<linearGradient id="SVGID_00000152950703593012249880000017532692337457816496_" gradientUnits="userSpaceOnUse" x1="5120.9126" y1="1971.9363" x2="5296.9644" y2="1971.9363" gradientTransform="matrix(-1 0 0 1 7529.2593 0)">
							<stop  offset="0" style="stop-color:#F9B776"/>
							<stop  offset="1" style="stop-color:#F47960"/>
						</linearGradient>
						<path style="fill:url(#SVGID_00000152950703593012249880000017532692337457816496_);" d="M2385.078,1915.614
							c9.633,22.944,20.015,56.115,23.269,97.173c-139.219,54.015-176.052-50.74-176.052-50.74l25.729-4.539
							C2316.128,1963.629,2356.715,1944.897,2385.078,1915.614z"/>
					</g>
					
						<linearGradient id="SVGID_00000102502608403543103870000010433340917106487708_" gradientUnits="userSpaceOnUse" x1="4949.7871" y1="1501.4645" x2="4947.8643" y2="1830.2261" gradientTransform="matrix(-1 0 0 1 7529.2593 0)">
						<stop  offset="0" style="stop-color:#F9B776"/>
						<stop  offset="1" style="stop-color:#F47960"/>
					</linearGradient>
					<path style="fill:url(#SVGID_00000102502608403543103870000010433340917106487708_);" d="M2514.674,1535.366l33.45,122.964
						c3.758,13.813,18.699,21.232,31.992,15.918c14.344-5.735,32.544-13.562,48.211-22.021c16.724-9.029,21.956-30.541,11.37-46.326
						l-69.543-103.693L2514.674,1535.366z"/>
				</g>
				
					<linearGradient id="SVGID_00000174565529497020833210000005052441767651646869_" gradientUnits="userSpaceOnUse" x1="4460.4546" y1="2100.9011" x2="5382.3569" y2="2100.9011" gradientTransform="matrix(-1 0 0 1 7529.2593 0)">
					<stop  offset="0" style="stop-color:#2B3582"/>
					<stop  offset="1" style="stop-color:#150E42"/>
				</linearGradient>
				<path style="fill:url(#SVGID_00000174565529497020833210000005052441767651646869_);" d="M2168.488,1879.763l857.112,311.955
					c35.948,13.083,53.131,54.016,37.295,88.838l-2.601,5.718c-14.012,30.81-50.427,44.324-81.146,30.113l-832.246-385.002
					L2168.488,1879.763z"/>
				<ellipse style="opacity:0.27;fill:#FFFFFF;" cx="1774.525" cy="1692.113" rx="423.111" ry="415.478"/>
				
					<linearGradient id="SVGID_00000162351174329716570460000012203924348655608980_" gradientUnits="userSpaceOnUse" x1="5283.9263" y1="1692.113" x2="6225.5435" y2="1692.113" gradientTransform="matrix(-1 0 0 1 7529.2593 0)">
					<stop  offset="0" style="stop-color:#2B3582"/>
					<stop  offset="1" style="stop-color:#150E42"/>
				</linearGradient>
				<path style="fill:url(#SVGID_00000162351174329716570460000012203924348655608980_);" d="M1303.716,1692.112
					c0,255.331,210.788,462.316,470.809,462.316c260.02,0,470.808-206.985,470.808-462.316
					c0-255.328-210.788-462.315-470.808-462.315C1514.504,1229.798,1303.716,1436.784,1303.716,1692.112z M1372.875,1692.112
					c0-217.822,179.824-394.403,401.65-394.403c221.824,0,401.649,176.581,401.649,394.403
					c0,217.824-179.825,394.403-401.649,394.403C1552.7,2086.515,1372.875,1909.936,1372.875,1692.112z"/>
				<path style="fill:#FFFFFF;" d="M2209.539,1749.987c-0.161,0-0.321-0.009-0.481-0.03c-2.064-0.265-3.521-2.151-3.257-4.211
					c1.37-10.72,2.342-21.692,2.884-32.616c0.104-2.077,1.995-3.708,3.947-3.573c2.077,0.104,3.677,1.869,3.573,3.946
					c-0.551,11.115-1.54,22.286-2.936,33.197C2213.026,1748.599,2211.404,1749.987,2209.539,1749.987z M2206.304,1620.711
					c-1.787,0-3.374-1.279-3.699-3.101c-5.243-29.229-13.647-57.994-24.983-85.493c0,0-0.004-0.013-0.009-0.017
					c-66.793-162.048-225.016-266.753-403.089-266.753c-83.047,0-163.77,23.067-233.447,66.707
					c-1.769,1.097-4.085,0.568-5.191-1.193c-1.101-1.765-0.568-4.085,1.193-5.191c70.879-44.39,152.985-67.852,237.446-67.852
					c181.125,0,342.076,106.539,410.045,271.397c0,0,0.004,0.009,0.009,0.013c11.54,28.002,20.1,57.292,25.435,87.054
					c0.369,2.047-0.993,4.003-3.04,4.367C2206.746,1620.693,2206.525,1620.711,2206.304,1620.711z"/>
				<g>
					
						<linearGradient id="SVGID_00000098921390417996946640000009065810378267832496_" gradientUnits="userSpaceOnUse" x1="4724.3228" y1="3640.4751" x2="4562.4907" y2="3854.5652" gradientTransform="matrix(-0.9897 -0.1428 -0.1428 0.9897 7668.314 -1480.9402)">
						<stop  offset="0" style="stop-color:#F9B776"/>
						<stop  offset="1" style="stop-color:#F47960"/>
					</linearGradient>
					<path style="fill:url(#SVGID_00000098921390417996946640000009065810378267832496_);" d="M2441.495,1441.944
						c-0.305,2.111,27.899,140.321,27.899,140.321l78.573-17.781l-7.27-134.965
						C2540.697,1429.518,2446.596,1406.592,2441.495,1441.944z"/>
					
						<linearGradient id="SVGID_00000157992486227987721670000008360419226449783950_" gradientUnits="userSpaceOnUse" x1="4600.729" y1="3692.1187" x2="4794.0396" y2="3692.1187" gradientTransform="matrix(-0.9897 -0.1428 -0.1428 0.9897 7668.314 -1480.9402)">
						<stop  offset="0" style="stop-color:#2B3582"/>
						<stop  offset="1" style="stop-color:#150E42"/>
					</linearGradient>
					<path style="fill:url(#SVGID_00000157992486227987721670000008360419226449783950_);" d="M2523.025,1459.593l9.391,70.749
						c0.121,0.907,0.119,1.803-0.01,2.71c-0.792,5.546-4.918,24.425-23.976,19.026c-17.294-4.899-33.149-9.112-44.102-5.762
						c-4.917,1.504-7.885,6.485-6.855,11.523c2.566,12.557,8.871,40.745,18.085,64.4c1.869,4.8,7.126,7.32,12.072,5.879
						c14.902-4.345,46.075-14.386,69.26-28.34c3.142-1.891,5.013-5.307,4.858-8.971c-0.754-17.861-2.842-72.153-1.084-87.372
						c1.65-14.285,19.181-22.842,26.798-25.911c2.498-1.006,4.455-2.973,5.453-5.474c3.527-8.839,8.39-29.292-17.386-37.674
						c-5.395-1.754-8.237-7.57-6.321-12.909c3.818-10.629,5.428-26.848-14.513-35.785c-20.268-9.083-35.405,1.722-43.578,10.502
						c-3.304,3.551-8.608,4.091-12.708,1.5c-2.335-1.475-5.342-1.958-8.975,0.305c-4.896,3.05-11.379,0.971-13.906-4.214
						c-4.854-9.962-14.746-20.634-34.588-17.236c-35.209,6.03-39.197,45.047-29.909,67.91c9.288,22.864,47.091,14.156,66.054,2.63
						c14.419-8.764,33.122,0.422,41.259,5.328C2520.923,1453.962,2522.629,1456.609,2523.025,1459.593z"/>
					
						<linearGradient id="SVGID_00000043442546896576346560000016351245466325013680_" gradientUnits="userSpaceOnUse" x1="4487.3022" y1="3810.0183" x2="4617.105" y2="3676.8442" gradientTransform="matrix(-0.9897 -0.1428 -0.1428 0.9897 7668.314 -1480.9402)">
						<stop  offset="0" style="stop-color:#F9B776"/>
						<stop  offset="1" style="stop-color:#F47960"/>
					</linearGradient>
					<path style="fill:url(#SVGID_00000043442546896576346560000016351245466325013680_);" d="M2563.828,1529.229
						c0,0-14.475-40.534,0.396-50.46c14.872-9.927,36.897-4.773,32.048,24.59
						C2590.239,1539.883,2563.828,1529.229,2563.828,1529.229z"/>
				</g>
				
					<linearGradient id="SVGID_00000068643803302373899220000005396314816663147185_" gradientUnits="userSpaceOnUse" x1="4790.1294" y1="2052.9033" x2="4566.5854" y2="2250.8567" gradientTransform="matrix(-1 0 0 1 7529.2593 0)">
					<stop  offset="0" style="stop-color:#F9B776"/>
					<stop  offset="1" style="stop-color:#F47960"/>
				</linearGradient>
				<path style="fill:url(#SVGID_00000068643803302373899220000005396314816663147185_);" d="M2870.247,2107.504l-81.027-6.604
					l-35.091,32.348c0,0,8.302,11.476,34.257,4.88c25.955-6.596,61.508-8.215,61.508-8.215s35.83,16.153,36.267-14.071
					L2870.247,2107.504z"/>
				
					<linearGradient id="SVGID_00000134217375311701294220000004738624188683775147_" gradientUnits="userSpaceOnUse" x1="5278.2603" y1="1951.2601" x2="5341.3057" y2="1951.2601" gradientTransform="matrix(-1 0 0 1 7529.2593 0)">
					<stop  offset="0" style="stop-color:#F9B776"/>
					<stop  offset="1" style="stop-color:#F47960"/>
				</linearGradient>
				<path style="fill:url(#SVGID_00000134217375311701294220000004738624188683775147_);" d="M2242.616,1981.213
					c-7.008,5.475-31.015-5.955-45.707-13.856c-7.159-3.851-10.627-12.223-8.17-19.973c3.536-11.149,9.426-25.54,16.685-27.355
					C2217.467,1917.019,2271.492,1958.653,2242.616,1981.213z"/>
				<path style="fill:#FFFFFF;" d="M3008.691,2304.998c-1.561,0-3.018-0.976-3.556-2.533c-0.681-1.969,0.36-4.111,2.324-4.788
					c23.934-8.274,36.463-21.618,37.243-39.667c0.794-18.314-10.798-35.344-28.843-42.378l-102.914-40.127
					c-1.938-0.755-2.897-2.94-2.142-4.874c0.75-1.939,2.94-2.893,4.874-2.142l102.913,40.127
					c21.05,8.209,34.563,28.188,33.631,49.72c-0.638,14.74-8.491,34.771-42.3,46.454
					C3009.515,2304.933,3009.099,2304.998,3008.691,2304.998z"/>
				<path style="fill:#FFFFFF;" d="M2882.603,2163.393c-0.455,0-0.919-0.082-1.366-0.256l-13.34-5.2
					c-1.939-0.754-2.897-2.94-2.142-4.875c0.754-1.938,2.945-2.892,4.874-2.142l13.34,5.2c1.938,0.754,2.897,2.94,2.142,4.874
					C2885.53,2162.482,2884.107,2163.393,2882.603,2163.393z"/>
			</g>
		</g>
		<g>
			<g>
				<g style="opacity:0.3;">
					
						<linearGradient id="SVGID_00000091707619347712599200000015903276237139558581_" gradientUnits="userSpaceOnUse" x1="-1781.0364" y1="4477.1729" x2="-1208.8923" y2="4477.1729" gradientTransform="matrix(-0.9761 0.2174 -0.2174 -0.9761 525.9269 6078.7202)">
						<stop  offset="0" style="stop-color:#B37CFF"/>
						<stop  offset="1" style="stop-color:#F895E7"/>
					</linearGradient>
					<path style="fill:url(#SVGID_00000091707619347712599200000015903276237139558581_);" d="M1230.168,1103.493
						c4.949-1.102,10.033,1.691,11.679,6.603c3.603,10.743,6.791,21.803,9.479,32.87c1.307,5.385-1.996,10.81-7.379,12.117
						c-0.065,0.015-0.128,0.028-0.191,0.043c-5.32,1.185-10.633-2.104-11.924-7.424c-2.553-10.515-5.583-21.02-9.004-31.225
						c-1.762-5.251,1.068-10.94,6.322-12.7C1229.486,1103.661,1229.827,1103.569,1230.168,1103.493z M1248.535,1188.93
						c0.383-0.085,0.776-0.149,1.176-0.19c5.511-0.561,10.436,3.452,10.997,8.964c1.151,11.321,1.829,22.804,2.015,34.126
						c0.091,5.54-4.305,10.087-9.864,10.198c-5.54,0.09-10.103-4.329-10.194-9.865c-0.178-10.763-0.823-21.671-1.918-32.43
						C1240.227,1194.622,1243.641,1190.02,1248.535,1188.93z M1247.634,1276.285c1.09-0.243,2.24-0.306,3.412-0.162
						c5.497,0.683,9.404,5.689,8.724,11.188c-1.392,11.27-3.294,22.62-5.651,33.735c-1.153,5.42-6.479,8.874-11.895,7.732
						c-5.418-1.15-8.881-6.476-7.731-11.894c2.239-10.555,4.044-21.33,5.368-32.034
						C1240.394,1280.523,1243.61,1277.182,1247.634,1276.285z M1227.217,1361.264c1.802-0.401,3.735-0.31,5.598,0.367
						c5.207,1.891,7.893,7.648,6.002,12.854c-3.884,10.68-8.274,21.32-13.05,31.625c-2.333,5.019-8.292,7.206-13.32,4.882
						c-5.025-2.329-7.21-8.293-4.882-13.32c4.536-9.786,8.708-19.892,12.394-30.042
						C1221.176,1364.287,1223.983,1361.984,1227.217,1361.264z M1188.364,1439.554c2.526-0.563,5.267-0.153,7.613,1.359
						c4.659,3.001,6.001,9.209,3,13.864c-6.139,9.528-12.774,18.93-19.72,27.936c-3.38,4.39-9.679,5.207-14.068,1.821
						c-4.386-3.383-5.201-9.681-1.819-14.071c6.604-8.56,12.909-17.496,18.744-26.551
						C1183.601,1441.603,1185.878,1440.108,1188.364,1439.554z M1133.163,1507.295c3.272-0.729,6.834,0.196,9.353,2.766
						c3.878,3.958,3.815,10.306-0.14,14.186c-8.107,7.948-16.658,15.649-25.414,22.882c-4.274,3.529-10.594,2.926-14.123-1.346
						c-3.528-4.268-2.925-10.592,1.345-14.121c8.32-6.875,16.444-14.188,24.147-21.741
						C1129.718,1508.56,1131.398,1507.688,1133.163,1507.295z M779.575,1610.519c1.356-0.302,2.793-0.325,4.24-0.021
						c10.546,2.219,21.332,4.008,32.055,5.313c5.498,0.67,9.414,5.671,8.744,11.167c-0.667,5.5-5.668,9.416-11.169,8.746
						c-11.293-1.375-22.654-3.256-33.76-5.592c-5.422-1.141-8.892-6.462-7.751-11.882
						C772.77,1614.274,775.853,1611.348,779.575,1610.519z M1064.367,1561.083c4.062-0.905,8.425,0.797,10.726,4.54
						c2.902,4.721,1.428,10.898-3.291,13.8c-9.672,5.948-19.722,11.546-29.87,16.641c-4.961,2.462-10.98,0.491-13.467-4.463
						c-2.485-4.95-0.486-10.979,4.465-13.467c9.637-4.836,19.179-10.153,28.365-15.8
						C1062.272,1561.735,1063.31,1561.319,1064.367,1561.083z M866.569,1618.753c0.646-0.144,1.316-0.229,2.004-0.241
						c10.782-0.198,21.699-0.867,32.446-1.98c5.511-0.569,10.442,3.435,11.013,8.944c0.569,5.509-3.426,10.465-8.944,11.012
						c-11.308,1.17-22.796,1.874-34.141,2.085c-5.539,0.102-10.114-4.307-10.215-9.844
						C858.64,1623.879,862.01,1619.768,866.569,1618.753z M985.281,1598.156c4.941-1.101,10.019,1.683,11.673,6.585
						c1.772,5.25-1.048,10.94-6.296,12.715c-10.747,3.626-21.796,6.838-32.84,9.538c-0.068,0.019-0.139,0.035-0.208,0.05
						c-5.312,1.183-10.619-2.095-11.92-7.405c-1.317-5.383,1.975-10.813,7.358-12.128c10.49-2.569,20.984-5.621,31.195-9.068
						C984.587,1598.331,984.935,1598.233,985.281,1598.156z"/>
					
						<linearGradient id="SVGID_00000145775273565997832750000014120277734040492467_" gradientUnits="userSpaceOnUse" x1="-1181.0785" y1="4326.4663" x2="-1147.6631" y2="4326.4663" gradientTransform="matrix(-0.9761 0.2174 -0.2174 -0.9761 525.9269 6078.7202)">
						<stop  offset="0" style="stop-color:#B37CFF"/>
						<stop  offset="1" style="stop-color:#F895E7"/>
					</linearGradient>
					<path style="fill:url(#SVGID_00000145775273565997832750000014120277734040492467_);" d="M712.241,1589.841
						c1.928-0.429,4.003-0.297,5.97,0.509c4.786,1.961,9.693,3.85,14.585,5.627c5.207,1.887,7.9,7.642,6.011,12.848
						c-1.887,5.209-7.642,7.908-12.85,6.009c-5.146-1.864-10.306-3.854-15.344-5.916c-5.126-2.098-7.583-7.958-5.485-13.081
						C706.421,1592.675,709.143,1590.531,712.241,1589.841z"/>
				</g>
				<g style="opacity:0.3;">
					
						<linearGradient id="SVGID_00000167360663015823880440000002975253502301735613_" gradientUnits="userSpaceOnUse" x1="-1007.6317" y1="4581.7998" x2="-984.7015" y2="4581.7998" gradientTransform="matrix(-0.9761 0.2174 -0.2174 -0.9761 525.9269 6078.7202)">
						<stop  offset="0" style="stop-color:#B37CFF"/>
						<stop  offset="1" style="stop-color:#F895E7"/>
					</linearGradient>
					<path style="fill:url(#SVGID_00000167360663015823880440000002975253502301735613_);" d="M496.918,1372.67
						c4.725-1.052,9.648,1.448,11.493,6.091c1.907,4.806,3.949,9.654,6.067,14.405c2.255,5.062-0.019,10.992-5.078,13.247
						c-5.082,2.264-10.992-0.021-13.246-5.078c-2.228-5.003-4.379-10.108-6.389-15.168c-2.044-5.149,0.473-10.98,5.621-13.026
						C495.89,1372.94,496.404,1372.785,496.918,1372.67z"/>
					
						<linearGradient id="SVGID_00000007419395313911417130000016801638528107382689_" gradientUnits="userSpaceOnUse" x1="-1569.1221" y1="4842.6245" x2="-979.7995" y2="4842.6245" gradientTransform="matrix(-0.9761 0.2174 -0.2174 -0.9761 525.9269 6078.7202)">
						<stop  offset="0" style="stop-color:#B37CFF"/>
						<stop  offset="1" style="stop-color:#F895E7"/>
					</linearGradient>
					<path style="fill:url(#SVGID_00000007419395313911417130000016801638528107382689_);" d="M774.583,846.95
						c4.505-1.003,9.045-1.934,13.617-2.792c5.445-1.02,10.688,2.565,11.71,8.01c1.022,5.445-2.586,10.713-8.008,11.711
						c-10.552,1.981-21,4.384-31.169,7.179c-5.349,1.46-10.862-1.671-12.331-7.012c-1.469-5.345,1.672-10.866,7.014-12.333
						C761.706,849.982,768.156,848.381,774.583,846.95z M840.797,837.97c0.547-0.122,1.113-0.199,1.693-0.228
						c11.178-0.559,22.504-0.649,33.663-0.268c5.535,0.188,9.871,4.83,9.683,10.364c-0.19,5.538-4.839,9.889-10.368,9.683
						c-10.598-0.361-21.357-0.273-31.98,0.254c-5.532,0.277-10.241-3.985-10.517-9.516
						C832.724,843.305,836.113,839.013,840.797,837.97z M705.609,869.197c4.616-1.028,9.456,1.334,11.388,5.837
						c2.184,5.094-0.174,10.99-5.265,13.176c-9.74,4.176-19.432,8.828-28.811,13.832c-4.893,2.599-10.965,0.756-13.572-4.131
						c-2.607-4.891-0.756-10.967,4.132-13.573c9.876-5.267,20.086-10.166,30.342-14.566
						C704.41,869.52,705.008,869.331,705.609,869.197z M926.655,843.169c1.243-0.277,2.559-0.317,3.89-0.088
						c11.017,1.91,22.086,4.314,32.897,7.144c5.358,1.404,8.564,6.884,7.161,12.242c-1.403,5.362-6.881,8.57-12.244,7.163
						c-10.265-2.687-20.775-4.971-31.239-6.783c-5.459-0.943-9.117-6.139-8.17-11.596
						C919.664,847.127,922.805,844.027,926.655,843.169z M630.864,911.617c3.786-0.843,7.885,0.564,10.308,3.906
						c3.251,4.486,2.25,10.759-2.237,14.01c-8.577,6.214-17.009,12.885-25.064,19.825c-4.196,3.617-10.531,3.148-14.148-1.052
						c-3.615-4.197-3.144-10.528,1.052-14.144c8.478-7.308,17.356-14.331,26.387-20.875
						C628.307,912.46,629.568,911.906,630.864,911.617z M567.237,969.413c3.027-0.674,6.324,0.061,8.827,2.269
						c4.153,3.667,4.547,10.007,0.88,14.159c-7.031,7.965-13.81,16.319-20.146,24.828c-3.302,4.449-9.585,5.37-14.035,2.058
						c-4.444-3.31-5.364-9.592-2.057-14.038c6.668-8.956,13.8-17.746,21.201-26.126C563.362,970.914,565.24,969.858,567.237,969.413
						z M517.722,1039.705c2.302-0.513,4.792-0.22,7.021,1.009c4.851,2.673,6.615,8.775,3.94,13.626
						c-5.135,9.313-9.934,18.94-14.26,28.623c-2.26,5.056-8.187,7.327-13.251,5.063c-5.056-2.262-7.324-8.192-5.063-13.252
						c4.555-10.187,9.604-20.324,15.006-30.122C512.562,1042.031,515.011,1040.309,517.722,1039.705z M484.719,1119.117
						c1.595-0.355,3.298-0.325,4.978,0.164c5.319,1.549,8.373,7.115,6.824,12.434c-2.973,10.204-5.543,20.648-7.639,31.046
						c-1.095,5.43-6.391,8.946-11.813,7.854c-5.432-1.094-8.947-6.385-7.852-11.815c2.207-10.953,4.913-21.953,8.043-32.694
						C478.322,1122.465,481.264,1119.886,484.719,1119.117z M469.948,1203.87c0.897-0.2,1.837-0.277,2.8-0.218
						c5.529,0.338,9.738,5.097,9.397,10.624c-0.648,10.582-0.853,21.33-0.607,31.953c0.128,5.539-4.275,10.129-9.796,10.259
						c-5.539,0.13-10.133-4.259-10.261-9.798c-0.259-11.182-0.043-22.499,0.641-33.638
						C462.402,1208.485,465.696,1204.817,469.948,1203.87z M474.155,1289.738c0.201-0.045,0.405-0.082,0.611-0.116
						c5.47-0.873,10.613,2.854,11.485,8.325c1.232,7.722,2.717,15.496,4.414,23.115c0.614,2.758,1.26,5.504,1.93,8.233
						c1.321,5.382-1.969,10.816-7.349,12.134c-5.421,1.444-10.812-1.968-12.133-7.345c-0.706-2.874-1.383-5.758-2.029-8.661
						c-1.785-8.013-3.346-16.195-4.642-24.317C465.599,1295.843,469.021,1290.882,474.155,1289.738z"/>
					
						<linearGradient id="SVGID_00000134947779938671922540000010947640973926165652_" gradientUnits="userSpaceOnUse" x1="-1627.8661" y1="4966.8506" x2="-1594.8768" y2="4966.8506" gradientTransform="matrix(-0.9761 0.2174 -0.2174 -0.9761 525.9269 6078.7202)">
						<stop  offset="0" style="stop-color:#B37CFF"/>
						<stop  offset="1" style="stop-color:#F895E7"/>
					</linearGradient>
					<path style="fill:url(#SVGID_00000134947779938671922540000010947640973926165652_);" d="M1009.48,867.245
						c1.947-0.434,4.039-0.294,6.019,0.526c5.016,2.082,10.082,4.31,15.059,6.621c5.026,2.333,7.208,8.298,4.874,13.322
						c-2.335,5.024-8.293,7.21-13.322,4.874c-4.728-2.195-9.541-4.31-14.302-6.288c-5.115-2.12-7.542-7.99-5.419-13.108
						C1003.691,870.056,1006.401,867.931,1009.48,867.245z"/>
				</g>
				<g>
					
						<linearGradient id="SVGID_00000035499252266437734100000003176730601113907876_" gradientUnits="userSpaceOnUse" x1="7143.5742" y1="10230.5996" x2="6445.8696" y2="12057.9189" gradientTransform="matrix(0.2928 -0.9561 0.9561 0.2928 -5532.417 9343.917)">
						<stop  offset="0" style="stop-color:#A737D5"/>
						<stop  offset="1" style="stop-color:#EF497A"/>
					</linearGradient>
					<path style="fill:url(#SVGID_00000035499252266437734100000003176730601113907876_);" d="M1021.563,983.753
						c-1.571-1.237-3.755-1.342-5.437-0.26l-47.992,30.866c-24.142-11.28-50.257-18.794-77.508-21.855l-24.817-51.34
						c-0.87-1.801-2.788-2.851-4.774-2.615l-67.967,8.071c-1.987,0.236-3.604,1.707-4.029,3.66l-12.102,55.725
						c-25.777,9.36-49.405,22.779-70.233,39.401l-53.887-18.768c-1.889-0.658-3.987-0.045-5.224,1.526l-42.352,53.767
						c-1.238,1.572-1.343,3.756-0.26,5.437l30.866,47.991c-11.281,24.142-18.793,50.257-21.855,77.509l-51.341,24.818
						c-1.801,0.87-2.851,2.787-2.615,4.773l8.072,67.967c0.235,1.986,1.706,3.604,3.661,4.028l55.725,12.102
						c9.36,25.777,22.778,49.406,39.401,70.233l-18.768,53.888c-0.657,1.888-0.044,3.986,1.526,5.224l53.767,42.352
						c1.571,1.239,3.755,1.342,5.437,0.261l47.992-30.867c24.141,11.282,50.257,18.794,77.508,21.855l24.817,51.342
						c0.87,1.8,2.787,2.851,4.773,2.615l67.967-8.072c1.987-0.235,3.604-1.705,4.028-3.66l12.102-55.725
						c25.777-9.359,49.406-22.779,70.234-39.401l53.886,18.767c1.889,0.659,3.988,0.045,5.225-1.526l42.352-53.767
						c1.238-1.571,1.342-3.754,0.26-5.437l-30.866-47.991c11.281-24.142,18.793-50.257,21.855-77.509l51.341-24.817
						c1.8-0.87,2.851-2.787,2.614-4.774l-8.071-67.966c-0.236-1.986-1.705-3.604-3.66-4.029l-55.725-12.102
						c-9.36-25.776-22.779-49.405-39.401-70.233l18.767-53.887c0.658-1.889,0.045-3.986-1.526-5.225L1021.563,983.753z"/>
					<path style="opacity:0.56;fill:#FFFFFF;" d="M847.576,1173.836c32.735-7.291,66.832,10.344,79.168,42.578
						c13.558,35.433-4.236,75.285-39.666,88.844c-17.164,6.573-35.859,6.06-52.635-1.431c-16.78-7.49-29.64-21.069-36.206-38.233
						c-13.559-35.433,4.236-75.285,39.665-88.844C841.097,1175.528,844.331,1174.559,847.576,1173.836z M873.852,1292.524
						c2.528-0.563,5.029-1.313,7.492-2.255c27.164-10.394,40.806-40.955,30.413-68.117c-10.396-27.165-40.95-40.821-68.119-30.414
						c-27.164,10.394-40.806,40.954-30.413,68.117c5.037,13.161,14.895,23.571,27.761,29.316
						C851.443,1293.838,862.873,1294.969,873.852,1292.524z"/>
					<path style="opacity:0.56;fill:#FFFFFF;" d="M824.6,1077.151c5.622-1.252,11.34-2.229,17.137-2.918l0,0
						c1.824-0.218,3.654-0.404,5.485-0.563c9.029-0.779,18.107-0.838,27.091-0.177c0.122,0.009,0.245,0.018,0.367,0.026
						c0.347,0.027,0.695,0.054,1.043,0.085c0.676,0.054,1.352,0.116,2.027,0.179c1.775,0.167,3.171,1.465,3.541,3.117
						c0.089,0.401,0.118,0.825,0.077,1.255c-0.208,2.206-2.168,3.819-4.371,3.615c-11.353-1.072-22.896-0.926-34.31,0.432
						c-56.704,6.724-103.085,42.297-126.217,90.274c-12.87,26.684-18.544,57.208-14.797,88.745
						c0.655,5.531,1.586,10.987,2.782,16.349c8.042,36.088,28.084,68.046,57.521,91.231c33.812,26.635,75.973,38.508,118.714,33.432
						c88.27-10.492,151.493-90.79,141.014-179.019c-0.646-5.44-1.565-10.828-2.75-16.139c-5.131-23.02-15.242-44.661-29.684-63.334
						c-0.373-0.483-0.619-1.022-0.742-1.581c-0.327-1.469,0.19-3.065,1.462-4.047c1.758-1.351,4.272-1.04,5.63,0.721
						c15.161,19.605,25.78,42.326,31.166,66.492c1.244,5.576,2.208,11.23,2.888,16.939
						c11.002,92.633-55.436,176.939-148.036,187.938c-44.871,5.329-89.13-7.136-124.626-35.098
						c-30.904-24.34-51.943-57.891-60.388-95.775c-1.254-5.63-2.231-11.358-2.921-17.161c-5.328-44.874,7.135-89.134,35.095-124.63
						C753.144,1106.631,786.706,1085.591,824.6,1077.151z"/>
				</g>
			</g>
			<g>
				<g style="opacity:0.3;">
					
						<linearGradient id="SVGID_00000014608030738661067520000002448054255349796272_" gradientUnits="userSpaceOnUse" x1="-2121.373" y1="4953.7129" x2="-2105.0645" y2="4953.7129" gradientTransform="matrix(-0.9761 0.2174 -0.2174 -0.9761 525.9269 6078.7202)">
						<stop  offset="0" style="stop-color:#B37CFF"/>
						<stop  offset="1" style="stop-color:#F895E7"/>
					</linearGradient>
					<path style="fill:url(#SVGID_00000014608030738661067520000002448054255349796272_);" d="M1506.819,771.051
						c2.616-0.583,5.406,0.587,6.767,3.055c2.543,4.603,4.983,9.347,7.247,14.099c1.472,3.088,0.163,6.782-2.927,8.258
						c-3.088,1.487-6.786,0.16-8.258-2.927c-2.158-4.528-4.482-9.049-6.909-13.443c-1.655-2.991-0.566-6.76,2.427-8.419
						C1505.7,771.381,1506.255,771.177,1506.819,771.051z"/>
					
						<linearGradient id="SVGID_00000117637613899041510250000009982633182601285251_" gradientUnits="userSpaceOnUse" x1="-2127.9763" y1="4770.5" x2="-1808.3521" y2="4770.5" gradientTransform="matrix(-0.9761 0.2174 -0.2174 -0.9761 525.9269 6078.7202)">
						<stop  offset="0" style="stop-color:#B37CFF"/>
						<stop  offset="1" style="stop-color:#F895E7"/>
					</linearGradient>
					<path style="fill:url(#SVGID_00000117637613899041510250000009982633182601285251_);" d="M1525.937,814.707
						c3.065-0.683,6.21,1.053,7.219,4.095c2.857,8.594,5.303,17.434,7.271,26.268c0.414,1.86,0.809,3.731,1.188,5.612
						c0.671,3.359-1.709,6.535-4.855,7.298c-3.355,0.673-6.62-1.501-7.295-4.853c-0.36-1.798-0.737-3.586-1.132-5.364
						c-1.877-8.427-4.211-16.858-6.932-25.054c-1.08-3.249,0.678-6.753,3.923-7.835
						C1525.529,814.811,1525.733,814.753,1525.937,814.707z M1538.591,877.779c0.286-0.064,0.583-0.111,0.881-0.135
						c3.414-0.258,6.391,2.296,6.652,5.709c0.839,10.946,1.004,22.042,0.492,32.973c-0.159,3.42-3.078,6.053-6.478,5.899
						c-3.42-0.162-6.058-3.058-5.899-6.477c0.488-10.429,0.328-21.012-0.469-31.452
						C1533.532,881.187,1535.632,878.438,1538.591,877.779z M1535.572,942.036c0.767-0.171,1.58-0.196,2.402-0.058
						c3.371,0.582,5.63,3.792,5.048,7.163c-1.871,10.8-4.436,21.605-7.633,32.104c-0.996,3.278-4.448,5.119-7.732,4.122
						c-3.271-0.995-5.118-4.458-4.123-7.729c3.047-10.014,5.496-20.31,7.277-30.612
						C1531.253,944.479,1533.194,942.565,1535.572,942.036z M1516.847,1003.586c1.252-0.279,2.599-0.17,3.861,0.386
						c3.125,1.393,4.533,5.058,3.14,8.183c-4.469,10.033-9.598,19.872-15.251,29.251c-1.768,2.929-5.58,3.865-8.504,2.105
						c-2.931-1.764-3.875-5.57-2.108-8.505c5.389-8.936,10.283-18.326,14.543-27.891
						C1513.359,1005.249,1514.996,1003.999,1516.847,1003.586z M1483.659,1058.695c1.748-0.389,3.653-0.02,5.174,1.172
						c2.691,2.109,3.162,6.002,1.054,8.697c-6.769,8.63-14.131,16.927-21.888,24.655c-2.423,2.424-6.347,2.411-8.762-0.014
						c-2.415-2.425-2.409-6.35,0.014-8.761c7.401-7.376,14.425-15.288,20.88-23.526
						C1481.051,1059.747,1482.309,1058.995,1483.659,1058.695z M1438.106,1104.073c2.265-0.504,4.724,0.294,6.244,2.248
						c2.098,2.7,1.607,6.591-1.092,8.692c-8.661,6.727-17.825,12.977-27.235,18.569c-2.956,1.743-6.744,0.777-8.493-2.162
						c-1.748-2.939-0.78-6.744,2.16-8.49c8.975-5.334,17.708-11.289,25.965-17.703
						C1436.402,1104.645,1437.241,1104.266,1438.106,1104.073z M1382.856,1136.928c2.834-0.631,5.811,0.807,7.017,3.563
						c1.371,3.135-0.059,6.788-3.193,8.162c-10.014,4.382-20.435,8.19-30.975,11.325c-3.303,0.922-6.734-0.899-7.705-4.179
						c-0.975-3.279,0.894-6.727,4.172-7.704c10.056-2.984,19.995-6.617,29.543-10.795
						C1382.09,1137.135,1382.473,1137.013,1382.856,1136.928z M1289.138,1158.607c0.348-0.078,0.712-0.128,1.084-0.143
						c9.024-0.392,18.185-1.285,27.231-2.656c1.371-0.2,2.715-0.413,4.053-0.642c3.376-0.566,6.572,1.703,7.141,5.079
						c0.576,3.38-1.702,6.677-5.076,7.143c-1.429,0.238-2.855,0.468-4.293,0.678c-9.451,1.429-19.054,2.366-28.518,2.775
						c-3.42,0.148-6.309-2.5-6.457-5.919C1284.17,1161.877,1286.259,1159.249,1289.138,1158.607z"/>
				</g>
				<g style="opacity:0.3;">
					
						<linearGradient id="SVGID_00000067953904862127317440000003365648988907085236_" gradientUnits="userSpaceOnUse" x1="-1985.3271" y1="5076.9053" x2="-1620.5225" y2="5076.9053" gradientTransform="matrix(-0.9761 0.2174 -0.2174 -0.9761 525.9269 6078.7202)">
						<stop  offset="0" style="stop-color:#B37CFF"/>
						<stop  offset="1" style="stop-color:#F895E7"/>
					</linearGradient>
					<path style="fill:url(#SVGID_00000067953904862127317440000003365648988907085236_);" d="M1217.565,643.119
						c3.301-0.735,6.592,1.321,7.374,4.624c0.787,3.327-1.273,6.668-4.603,7.453c-10.025,2.369-19.99,5.37-29.619,8.922
						c-3.201,1.147-6.774-0.456-7.958-3.67c-1.184-3.213,0.462-6.773,3.67-7.958c10.1-3.718,20.546-6.87,31.054-9.353
						C1217.509,643.131,1217.539,643.125,1217.565,643.119z M1248.793,637.694c0.219-0.049,0.437-0.085,0.664-0.11
						c10.718-1.21,21.618-1.778,32.398-1.693c3.422,0.031,6.173,2.821,6.145,6.243c-0.024,3.427-2.841,6.168-6.242,6.151
						c-10.286-0.083-20.687,0.461-30.916,1.611c-3.398,0.385-6.466-2.062-6.848-5.461
						C1243.636,641.254,1245.746,638.373,1248.793,637.694z M1158.216,665.016c2.681-0.597,5.532,0.652,6.851,3.21
						c1.566,3.036,0.374,6.772-2.667,8.342c-9.159,4.73-18.105,10.051-26.593,15.829c-2.843,1.916-6.683,1.191-8.606-1.641
						c-1.925-2.826-1.192-6.683,1.637-8.609c8.898-6.054,18.279-11.634,27.881-16.587
						C1157.206,665.308,1157.708,665.129,1158.216,665.016z M1312.087,638.238c0.688-0.153,1.414-0.191,2.154-0.096
						c10.701,1.404,21.424,3.485,31.866,6.186c3.314,0.855,5.304,4.236,4.449,7.551c-0.858,3.302-4.238,5.295-7.548,4.445
						c-9.958-2.573-20.178-4.555-30.381-5.896c-3.391-0.447-5.782-3.559-5.335-6.95
						C1307.64,640.827,1309.619,638.787,1312.087,638.238z M1105.925,700.608c2.141-0.477,4.471,0.2,6.013,1.964
						c2.257,2.578,1.995,6.491-0.578,8.745c-7.738,6.769-15.14,14.083-22.002,21.748c-2.285,2.555-6.203,2.764-8.751,0.48
						c-2.548-2.284-2.764-6.203-0.48-8.751c7.199-8.031,14.958-15.704,23.068-22.804
						C1104.005,701.283,1104.948,700.825,1105.925,700.608z M1063.697,747.706c1.639-0.365,3.417-0.067,4.899,0.967
						c2.805,1.96,3.491,5.823,1.531,8.628c-5.903,8.45-11.345,17.329-16.173,26.388c-1.611,3.024-5.367,4.165-8.382,2.555
						c-3.02-1.609-4.162-5.358-2.554-8.376c5.062-9.501,10.764-18.811,16.95-27.665
						C1060.891,748.883,1062.238,748.031,1063.697,747.706z M1033.965,803.57c1.151-0.256,2.387-0.191,3.572,0.27
						c3.193,1.229,4.783,4.817,3.551,8.011c-3.714,9.611-6.865,19.536-9.367,29.496c-0.837,3.311-4.202,5.331-7.519,4.495
						c-3.319-0.835-5.333-4.199-4.498-7.521c2.627-10.441,5.93-20.853,9.821-30.936
						C1030.302,805.378,1032.011,804.005,1033.965,803.57z"/>
					
						<linearGradient id="SVGID_00000011014016337797519160000009611385487341143686_" gradientUnits="userSpaceOnUse" x1="-2025.4307" y1="5099.7285" x2="-2000.4812" y2="5099.7285" gradientTransform="matrix(-0.9761 0.2174 -0.2174 -0.9761 525.9269 6078.7202)">
						<stop  offset="0" style="stop-color:#B37CFF"/>
						<stop  offset="1" style="stop-color:#F895E7"/>
					</linearGradient>
					<path style="fill:url(#SVGID_00000011014016337797519160000009611385487341143686_);" d="M1373.64,654.163
						c1.167-0.26,2.42-0.185,3.616,0.286c4.933,1.945,9.83,4.046,14.559,6.241c3.101,1.442,4.452,5.126,3.011,8.231
						c-1.447,3.093-5.125,4.445-8.231,3.011c-4.508-2.095-9.181-4.098-13.888-5.957c-3.183-1.255-4.745-4.856-3.489-8.037
						C1370.003,655.952,1371.7,654.595,1373.64,654.163z"/>
				</g>
				<g>
					
						<linearGradient id="SVGID_00000182491849128873598350000014322374356007377322_" gradientUnits="userSpaceOnUse" x1="1505.0284" y1="501.3283" x2="574.7974" y2="2169.1011">
						<stop  offset="0" style="stop-color:#A737D5"/>
						<stop  offset="1" style="stop-color:#EF497A"/>
					</linearGradient>
					<path style="fill:url(#SVGID_00000182491849128873598350000014322374356007377322_);" d="M1386.013,733.404
						c-1.051-0.828-2.512-0.898-3.638-0.174l-32.114,20.654c-16.154-7.548-33.629-12.576-51.865-14.625l-16.607-34.354
						c-0.582-1.205-1.865-1.908-3.194-1.75l-45.48,5.401c-1.329,0.158-2.411,1.142-2.696,2.449l-8.098,37.289
						c-17.249,6.263-33.06,15.242-46.997,26.365l-36.058-12.559c-1.264-0.44-2.668-0.03-3.496,1.022l-28.34,35.978
						c-0.828,1.052-0.898,2.513-0.174,3.638l20.654,32.114c-7.549,16.155-12.576,33.63-14.625,51.866l-34.355,16.606
						c-1.205,0.583-1.908,1.865-1.75,3.194l5.401,45.481c0.158,1.33,1.142,2.412,2.449,2.695l37.289,8.098
						c6.263,17.249,15.242,33.06,26.365,46.997l-12.558,36.059c-0.44,1.263-0.03,2.667,1.021,3.495l35.979,28.34
						c1.051,0.828,2.512,0.898,3.638,0.174l32.114-20.655c16.154,7.55,33.629,12.576,51.865,14.625l16.607,34.356
						c0.582,1.204,1.865,1.908,3.194,1.75l45.481-5.401c1.329-0.158,2.411-1.141,2.695-2.449l8.098-37.289
						c17.249-6.263,33.061-15.243,46.998-26.365l36.057,12.558c1.264,0.441,2.669,0.03,3.497-1.021l28.34-35.978
						c0.828-1.051,0.898-2.512,0.174-3.638l-20.653-32.114c7.549-16.155,12.575-33.63,14.624-51.866l34.356-16.606
						c1.204-0.582,1.908-1.865,1.749-3.194l-5.401-45.48c-0.158-1.329-1.141-2.412-2.449-2.696l-37.289-8.099
						c-6.263-17.248-15.242-33.059-26.365-46.997l12.558-36.059c0.44-1.264,0.03-2.668-1.021-3.497L1386.013,733.404z"/>
					<path style="opacity:0.56;fill:#FFFFFF;" d="M1269.476,859.774c9.755-2.173,19.91-1.168,29.201,2.979
						c11.43,5.103,20.188,14.354,24.66,26.046c9.235,24.126-2.883,51.272-27.016,60.515c-24.183,9.205-51.286-2.889-60.52-27.021
						c-4.476-11.692-4.129-24.426,0.975-35.853c5.102-11.432,14.352-20.193,26.047-24.664
						C1265.009,860.942,1267.234,860.273,1269.476,859.774z M1287.045,939.2c1.627-0.362,3.245-0.847,4.848-1.458
						c17.75-6.798,26.664-26.766,19.871-44.518c-3.291-8.596-9.732-15.405-18.139-19.155c-8.411-3.755-17.773-4-26.377-0.72l0,0
						c-8.599,3.291-15.405,9.735-19.158,18.14c-3.755,8.411-4.009,17.777-0.717,26.38
						C1253.553,934.014,1270.643,942.853,1287.045,939.2z"/>
					<path style="opacity:0.56;fill:#FFFFFF;" d="M1253.57,792.455c3.827-0.852,7.727-1.516,11.699-1.992
						c7.889-0.939,15.882-1.077,23.777-0.405c0.355,0.033,0.709,0.065,1.064,0.098c2.741,0.257,4.896,2.263,5.467,4.814
						c0.138,0.62,0.181,1.273,0.119,1.938c-0.32,3.406-3.349,5.891-6.75,5.582c-7.364-0.697-14.836-0.6-22.209,0.279l-0.003,0.001
						c-0.405,0.047-0.811,0.101-1.212,0.153c-17.43,2.24-33.642,8.739-47.515,18.771c-7.53,5.446-14.371,11.941-20.336,19.375
						c-0.049,0.06-0.097,0.121-0.146,0.181c-0.147,0.188-0.296,0.37-0.44,0.557c-17.24,21.89-24.928,49.184-21.641,76.853
						c0.423,3.582,1.026,7.111,1.799,10.583c5.207,23.362,18.183,44.05,37.24,59.065c21.891,17.241,49.183,24.923,76.849,21.636
						c27.649-3.294,52.403-17.152,69.649-39.037c17.24-21.89,24.928-49.184,21.641-76.853c-0.415-3.521-1.013-7.008-1.778-10.445
						c-3.323-14.905-9.867-28.913-19.217-41c-0.575-0.746-0.956-1.578-1.145-2.441c-0.505-2.268,0.294-4.733,2.256-6.249
						c2.712-2.086,6.596-1.599,8.694,1.113c10.46,13.526,17.785,29.201,21.504,45.871c0.858,3.85,1.525,7.749,1.993,11.687
						c3.676,30.961-4.923,61.495-24.216,85.987c-19.291,24.485-46.942,40.017-77.916,43.674
						c-30.957,3.678-61.491-4.918-85.98-24.214c-21.322-16.791-35.837-39.939-41.662-66.076c-0.864-3.88-1.54-7.833-2.016-11.836
						C1156.023,860.187,1195.879,805.304,1253.57,792.455z"/>
				</g>
			</g>
		</g>
	</g>
</g>
</svg>
