<svg width="564" height="584" viewBox="0 0 564 584" fill="none" xmlns="http://www.w3.org/2000/svg">
<path opacity="0.3" d="M552.132 182.434C557.443 198.057 559.277 211.164 560.725 221.519C577.754 343.245 504.338 438.165 488.149 458.03C464.243 487.365 418.034 544.069 339.982 561.63C221.895 588.199 98.9437 509.869 42.3039 411.447C31.9434 393.444 -26.9448 296.162 14.7449 183.152C39.9751 114.759 96.0109 49.0111 169.635 18.7447C324.179 -44.7874 511.883 64.0425 552.132 182.434Z" fill="url(#paint0_linear_86_805)"/>
<path d="M46.4948 90.4072C49.9437 87.1777 54.6063 85.5719 59.3133 85.9951C109.662 90.5231 203.598 66.2709 264.992 3.45388C269.255 -0.908052 277.026 1.55722 281.912 5.20886C350.19 56.2394 463.369 66.8072 502.659 68.9676C510.785 69.4149 517.38 75.7192 518.219 83.8159C553.95 428.91 329.262 553.959 282.661 576.033C277.567 578.446 271.57 578.096 266.784 575.116C34.5294 430.448 44.4642 242.31 41.252 102.91C41.1432 98.186 43.0459 93.6376 46.4948 90.4072Z" fill="url(#paint1_linear_86_805)"/>
<path d="M276.378 550.868C275.358 550.868 274.339 550.582 273.452 550.015C184.43 493.108 126.409 425.076 96.0746 342.033C68.9811 267.859 67.6544 192.326 66.4837 125.684L66.3251 116.799C66.2987 115.344 66.8448 113.971 67.8638 112.933C68.8919 111.886 70.2712 111.309 71.7468 111.309C71.7472 111.309 71.7472 111.309 71.7474 111.309C100.989 111.309 135.567 104.516 169.158 92.1808C207.633 78.0526 242.651 57.4293 270.428 32.541C272.259 30.9 274.97 30.704 277.02 32.0639C305.657 51.0659 371.367 84.246 489.688 92.9667C492.34 93.1624 494.435 95.2311 494.668 97.886C506.468 232.512 478.468 346.351 411.444 436.241C361.388 503.376 302.033 538.353 278.837 550.275C278.067 550.672 277.222 550.868 276.378 550.868ZM71.7926 113.372C70.8292 113.372 69.9728 113.73 69.3353 114.379C68.7075 115.018 68.371 115.864 68.3874 116.761L68.546 125.648C69.7132 192.127 71.0367 267.477 98.0115 341.326C128.185 423.928 185.936 491.623 274.563 548.277C275.566 548.919 276.842 548.982 277.895 548.441C300.962 536.585 359.992 501.797 409.791 435.009C476.503 345.537 504.368 232.173 492.613 98.0662C492.469 96.4242 491.175 95.1449 489.536 95.024C465.516 93.2538 428.666 89.1836 389.515 79.847C343.717 68.9249 305.485 53.4268 275.88 33.7828C274.612 32.9421 272.937 33.0628 271.804 34.0774C243.835 59.1383 208.587 79.8997 169.869 94.1172C136.056 106.534 101.225 113.372 71.7932 113.372C71.7932 113.372 71.793 113.372 71.7926 113.372Z" fill="white"/>
<path d="M287.298 555.552C287.298 555.552 285.637 564.957 284.823 574.267C284.504 577.905 287.309 581.064 290.959 581.216C303.357 581.732 329.876 582.737 339.392 582.312C340.823 582.248 341.758 580.784 341.229 579.453C340.785 578.338 339.93 577.437 338.839 576.936L295.034 556.803L287.298 555.552Z" fill="url(#paint2_linear_86_805)"/>
<path d="M285.937 550.026L287.272 561.275C287.272 561.275 294.946 564.847 300.186 560.825L297.008 548.288L285.937 550.026Z" fill="url(#paint3_linear_86_805)"/>
<path d="M286.94 338.532C286.363 341.469 283.846 485.132 299.202 549.512C299.452 550.562 298.92 551.645 297.92 552.053C295.565 553.016 290.947 554.409 285.414 554.595C283.7 554.653 282.163 553.539 281.68 551.894C277.29 536.957 256.256 462.117 253.512 390.626C250.446 310.741 253.512 387.906 253.512 387.906L255.31 338.525L286.94 338.532Z" fill="url(#paint4_linear_86_805)"/>
<path d="M236.907 560.458C236.907 560.458 234.263 565.206 231.702 577.822C231.24 580.101 232.832 582.282 235.146 582.509C239.24 582.911 245.542 583.429 250.59 583.394C252.917 583.379 254.733 581.352 254.453 579.042C253.894 574.437 252.152 566.881 246.77 560.993L236.907 560.458Z" fill="url(#paint5_linear_86_805)"/>
<path d="M234.584 545.989L237.703 563.001C237.703 563.001 240.787 565.295 246.887 563.632L245.398 545.328L234.584 545.989Z" fill="url(#paint6_linear_86_805)"/>
<path d="M226.159 342.94C213.6 418.738 228.883 530.28 234.038 552.111C234.354 553.448 235.432 554.472 236.787 554.696C239.088 555.078 242.876 555.389 246.611 554.304C247.897 553.931 248.801 552.77 248.854 551.431C249.545 533.781 248.301 425.426 260.003 382.604C260.596 380.434 261.922 378.541 263.755 377.237L286.469 361.09L288.21 334.989L226.159 342.94Z" fill="url(#paint7_linear_86_805)"/>
<path d="M306.188 199.319C268.55 198.697 227.02 209.201 227.02 209.201C215.801 274.665 225.058 350.173 225.058 350.173C254.197 357.815 287.067 345.501 287.067 345.501C291.91 318.139 314.506 241.132 314.506 241.132C332.896 238.85 348.046 233.544 360.521 226.529C351.005 215.499 346.519 201.463 344.571 193.166C331.263 197.301 317.798 199.51 306.188 199.319Z" fill="url(#paint8_linear_86_805)"/>
<path d="M417.366 143.879C413.668 139.413 408.989 141.526 408.989 141.526C403.45 164.923 374.408 183.893 344.571 193.166C346.519 201.463 351.005 215.498 360.521 226.529C410.038 198.688 417.366 143.879 417.366 143.879Z" fill="url(#paint9_linear_86_805)"/>
<path d="M241.457 245.646L227.02 209.201C227.02 209.201 191.864 233.088 186.082 263.375C192.725 263.864 204.813 265.592 216.644 271.566C219.244 257.265 241.457 245.646 241.457 245.646Z" fill="url(#paint10_linear_86_805)"/>
<path d="M268.064 168.762L256.088 203.396C255.89 203.97 256.125 204.605 256.656 204.899C259.921 206.704 271.683 211.921 285.856 202.934C287.333 201.998 288.338 200.472 288.562 198.738L292.44 168.762L268.064 168.762Z" fill="url(#paint11_linear_86_805)"/>
<path d="M294.122 136.69C294.122 136.69 307.273 161.445 305.588 171.445C303.902 181.445 287.603 180.727 273.371 172.605L263.426 145.875L294.122 136.69Z" fill="url(#paint12_linear_86_805)"/>
<path d="M274 159.478C274.578 159.222 274.791 158.515 274.445 157.985C273.391 156.376 271.416 153.092 270.786 150.217C270.786 150.217 268.422 148.703 276.804 146.697C285.185 144.691 297.683 141.577 300.31 134.443C302.872 127.487 296.142 109.995 285.405 123.933C284.997 124.463 284.196 124.474 283.789 123.944C282.028 121.653 277.401 116.898 270.976 119.781C264.964 122.478 264.287 126.884 264.369 129.105C264.394 129.758 263.81 130.266 263.168 130.143C260.128 129.564 252.833 129.066 249.429 136.548C246.624 142.712 248.447 146.201 250.107 147.908C250.645 148.46 250.409 149.371 249.672 149.597C247.674 150.208 245.094 151.902 245.352 156.582C245.71 163.053 252.944 162.483 255.003 162.188C255.341 162.14 255.681 162.256 255.91 162.508C257.676 164.463 265.633 172.761 274.245 173.762C274.991 173.848 275.569 173.112 275.324 172.402L271.597 161.568C271.424 161.065 271.665 160.513 272.151 160.297L274 159.478Z" fill="url(#paint13_linear_86_805)"/>
<path d="M275.498 161.016C275.498 161.016 266.134 154.592 265.45 160.002C264.766 165.412 273.882 167.839 278.397 165.821L275.498 161.016Z" fill="url(#paint14_linear_86_805)"/>
<path d="M216.644 271.566C216.644 271.566 204.356 327.001 215.487 358.167C201.842 364.493 204.362 363.301 204.362 363.301C204.362 363.301 177.367 284.426 186.082 263.375C203.265 261.552 211.788 266.169 216.644 271.566Z" fill="url(#paint15_linear_86_805)"/>
<path d="M215.487 358.166C215.487 358.166 222.519 367.267 221.957 370.892C221.394 374.517 221.26 375.994 221.26 375.994C221.26 375.994 217.727 373.578 217.949 370.49C218.44 380.291 221.721 391.434 218.738 390.897C215.755 390.36 200.316 376.128 203.807 360.957C211.728 355.453 213.948 356.051 215.487 358.166Z" fill="url(#paint16_linear_86_805)"/>
<path d="M276.041 213.974L287.816 294.052C288.034 295.536 287.825 297.061 287.22 298.4L278.589 317.499C277.761 319.333 275.444 319.32 274.632 317.478L266.066 298.06C265.569 296.933 265.349 295.674 265.43 294.417L270.536 214.909L276.041 213.974Z" fill="url(#paint17_linear_86_805)"/>
<path d="M275.904 206.822L283.486 219.823C284.217 221.407 287.032 221.511 287.952 219.989L297.324 199.256L288.68 197.825L275.904 206.822Z" fill="url(#paint18_linear_86_805)"/>
<path d="M257.705 198.756L271.016 206.823L267.355 219.676C266.668 221.439 263.458 221.567 262.532 219.869L253.068 202.932L257.705 198.756Z" fill="url(#paint19_linear_86_805)"/>
<path d="M269.999 206.737L277.688 205.283C278.038 205.217 278.351 205.512 278.305 205.865L276.74 218.028C276.711 218.25 276.546 218.429 276.327 218.474L270.824 219.624C270.51 219.689 270.211 219.459 270.194 219.138L269.573 207.28C269.559 207.018 269.741 206.786 269.999 206.737Z" fill="url(#paint20_linear_86_805)"/>
<path d="M478.06 252.686H390.044C389.494 252.686 389.049 252.24 389.049 251.691V128.021C389.049 127.471 389.494 127.026 390.044 127.026H478.06C478.61 127.026 479.055 127.471 479.055 128.021V251.691C479.055 252.24 478.61 252.686 478.06 252.686Z" fill="url(#paint21_linear_86_805)"/>
<path d="M471.937 247.981H396.065C394.013 247.981 392.342 246.311 392.342 244.258V134.868C392.342 132.815 394.013 131.145 396.065 131.145H471.937C473.99 131.145 475.66 132.815 475.66 134.868V244.258C475.66 246.311 473.99 247.981 471.937 247.981ZM396.065 131.85C394.402 131.85 393.048 133.204 393.048 134.868V244.258C393.048 245.922 394.402 247.275 396.065 247.275H471.937C473.601 247.275 474.955 245.922 474.955 244.258V134.868C474.955 133.204 473.601 131.85 471.937 131.85H396.065Z" fill="white"/>
<path opacity="0.63" d="M470.185 161.245H398.596C398.453 161.245 398.335 161.128 398.335 160.984V158.67C398.335 158.526 398.453 158.409 398.596 158.409H470.185C470.328 158.409 470.446 158.526 470.446 158.67V160.984C470.446 161.127 470.328 161.245 470.185 161.245Z" fill="#242367"/>
<path opacity="0.63" d="M470.185 173.332H398.596C398.453 173.332 398.335 173.215 398.335 173.072V170.758C398.335 170.614 398.453 170.497 398.596 170.497H470.185C470.328 170.497 470.446 170.614 470.446 170.758V173.072C470.446 173.215 470.328 173.332 470.185 173.332Z" fill="#242367"/>
<path opacity="0.63" d="M470.185 185.486H398.596C398.453 185.486 398.335 185.369 398.335 185.225V182.911C398.335 182.767 398.453 182.65 398.596 182.65H470.185C470.328 182.65 470.446 182.767 470.446 182.911V185.225C470.446 185.369 470.328 185.486 470.185 185.486Z" fill="#242367"/>
<path opacity="0.63" d="M470.185 198.044H398.596C398.453 198.044 398.335 197.927 398.335 197.784V195.47C398.335 195.326 398.453 195.209 398.596 195.209H470.185C470.328 195.209 470.446 195.326 470.446 195.47V197.784C470.446 197.927 470.328 198.044 470.185 198.044Z" fill="#242367"/>
<path opacity="0.63" d="M469.846 210.805H398.258C398.114 210.805 397.997 210.688 397.997 210.545V208.231C397.997 208.087 398.114 207.97 398.258 207.97H469.846C469.99 207.97 470.107 208.087 470.107 208.231V210.545C470.107 210.688 469.99 210.805 469.846 210.805Z" fill="#242367"/>
<path opacity="0.63" d="M469.78 224.377H398.191C398.048 224.377 397.93 224.26 397.93 224.116V221.802C397.93 221.658 398.047 221.541 398.191 221.541H469.78C469.923 221.541 470.04 221.658 470.04 221.802V224.116C470.04 224.259 469.923 224.377 469.78 224.377Z" fill="#242367"/>
<path d="M427.099 121.922L429.386 132.434C429.636 133.585 428.979 134.727 427.848 135.11C426.647 135.515 425.317 134.931 424.816 133.779L420.386 123.584C420.091 122.905 420.125 122.129 420.508 121.502C421.263 120.268 422.899 118.683 425.911 120.338C426.521 120.674 426.954 121.255 427.099 121.922Z" fill="url(#paint22_linear_86_805)"/>
<path d="M410.934 126.061L412.801 134.642C413.005 135.582 412.469 136.515 411.545 136.827C410.565 137.158 409.479 136.681 409.07 135.74L405.453 127.417C405.212 126.863 405.241 126.229 405.553 125.718C406.169 124.71 407.505 123.416 409.964 124.767C410.463 125.042 410.816 125.516 410.934 126.061Z" fill="url(#paint23_linear_86_805)"/>
<path d="M415.472 124.851L417.592 134.598C417.824 135.666 417.216 136.725 416.166 137.079C415.053 137.455 413.819 136.914 413.355 135.845L409.247 126.392C408.973 125.762 409.005 125.043 409.36 124.462C410.06 123.317 411.577 121.848 414.37 123.382C414.936 123.694 415.337 124.233 415.472 124.851Z" fill="url(#paint24_linear_86_805)"/>
<path d="M421.303 123.045L423.663 134.537C423.921 135.796 423.211 137.052 421.999 137.48C420.713 137.933 419.297 137.304 418.771 136.046L414.119 124.918C413.809 124.177 413.852 123.327 414.266 122.638C415.082 121.28 416.842 119.532 420.047 121.32C420.697 121.682 421.154 122.316 421.303 123.045Z" fill="url(#paint25_linear_86_805)"/>
<path opacity="0.63" d="M465.114 149.593H402.93C402.5 149.593 402.152 149.244 402.152 148.814V141.805C402.152 141.375 402.5 141.026 402.93 141.026H465.114C465.544 141.026 465.893 141.375 465.893 141.805V148.814C465.893 149.244 465.544 149.593 465.114 149.593Z" fill="#242367"/>
<path d="M361.364 392.011C372.329 392.011 381.218 383.123 381.218 372.157C381.218 361.192 372.329 352.303 361.364 352.303C350.399 352.303 341.51 361.192 341.51 372.157C341.51 383.123 350.399 392.011 361.364 392.011Z" fill="url(#paint26_linear_86_805)"/>
<path d="M361.364 391.352C371.965 391.352 380.558 382.758 380.558 372.158C380.558 361.557 371.965 352.964 361.364 352.964C350.764 352.964 342.17 361.557 342.17 372.158C342.17 382.758 350.764 391.352 361.364 391.352Z" fill="url(#paint27_linear_86_805)"/>
<path d="M345.537 364.93C345.424 364.93 345.309 364.905 345.202 364.85C344.834 364.665 344.687 364.216 344.872 363.849C348.033 357.585 354.353 353.694 361.364 353.694C362.485 353.694 363.605 353.795 364.694 353.994C365.099 354.068 365.368 354.455 365.294 354.861C365.221 355.266 364.834 355.533 364.427 355.461C363.425 355.278 362.395 355.185 361.364 355.185C354.919 355.185 349.109 358.763 346.203 364.52C346.072 364.78 345.81 364.93 345.537 364.93Z" fill="white"/>
<path opacity="0.78" d="M376.293 379.847C380.306 371.822 377.053 362.064 369.028 358.052C361.004 354.04 351.246 357.292 347.234 365.317C343.221 373.341 346.474 383.099 354.499 387.112C362.523 391.124 372.281 387.871 376.293 379.847Z" fill="white"/>
<path d="M360.188 384.653V382.886C358.346 382.812 356.524 382.377 355.229 381.81C354.767 381.608 354.531 381.089 354.664 380.602L355.113 378.956C355.278 378.352 355.935 378.04 356.512 378.282C357.796 378.82 359.381 379.246 361.091 379.246C362.866 379.246 364.189 378.644 364.189 377.411C364.189 376.298 363.166 375.636 360.7 374.975C357.181 374.012 354.654 372.478 354.654 369.38C354.654 366.583 356.699 364.447 360.249 363.876V362.108C360.249 361.539 360.71 361.078 361.278 361.078H362.317C362.886 361.078 363.347 361.539 363.347 362.108V363.695C365.052 363.763 366.293 364.055 367.277 364.401C367.782 364.578 368.058 365.122 367.918 365.638L367.505 367.16C367.346 367.748 366.718 368.069 366.149 367.854C365.242 367.511 363.96 367.154 362.294 367.154C360.189 367.154 359.587 368.026 359.587 368.808C359.587 369.771 360.85 370.432 363.587 371.275C367.497 372.448 369.122 374.072 369.122 376.99C369.122 379.667 367.136 382.073 363.286 382.674V384.652C363.286 385.221 362.825 385.682 362.257 385.682H361.218C360.649 385.682 360.188 385.221 360.188 384.653Z" fill="url(#paint28_linear_86_805)"/>
<path d="M417.88 383.176C436.968 383.176 452.442 367.701 452.442 348.613C452.442 329.525 436.968 314.05 417.88 314.05C398.791 314.05 383.317 329.525 383.317 348.613C383.317 367.701 398.791 383.176 417.88 383.176Z" fill="url(#paint29_linear_86_805)"/>
<path d="M417.88 382.026C436.333 382.026 451.293 367.067 451.293 348.613C451.293 330.159 436.333 315.199 417.88 315.199C399.426 315.199 384.466 330.159 384.466 348.613C384.466 367.067 399.426 382.026 417.88 382.026Z" fill="url(#paint30_linear_86_805)"/>
<path d="M390.326 335.479C390.214 335.479 390.099 335.453 389.991 335.399C389.623 335.213 389.476 334.765 389.662 334.397C395.071 323.68 405.884 317.023 417.879 317.023C419.793 317.023 421.71 317.196 423.578 317.536C423.983 317.61 424.251 317.998 424.177 318.403C424.104 318.808 423.717 319.074 423.31 319.003C421.53 318.679 419.704 318.514 417.879 318.514C406.449 318.514 396.147 324.858 390.993 335.069C390.862 335.329 390.599 335.479 390.326 335.479Z" fill="white"/>
<path opacity="0.78" d="M438.598 369.339C449.642 358.295 449.642 340.389 438.598 329.345C427.554 318.3 409.648 318.3 398.604 329.345C387.56 340.389 387.56 358.295 398.604 369.339C409.648 380.383 427.554 380.383 438.598 369.339Z" fill="white"/>
<path d="M415.832 370.365V367.288C412.625 367.16 409.452 366.403 407.199 365.417C406.394 365.064 405.984 364.161 406.215 363.314L406.997 360.448C407.284 359.397 408.427 358.853 409.432 359.274C411.667 360.211 414.427 360.953 417.403 360.953C420.492 360.953 422.796 359.905 422.796 357.758C422.796 355.821 421.016 354.669 416.722 353.517C410.596 351.842 406.197 349.171 406.197 343.778C406.197 338.908 409.758 335.191 415.937 334.196V331.119C415.937 330.129 416.739 329.326 417.729 329.326H419.537C420.527 329.326 421.33 330.129 421.33 331.119V333.881C424.298 334 426.458 334.508 428.172 335.11C429.051 335.419 429.531 336.365 429.287 337.263L428.568 339.914C428.291 340.936 427.199 341.496 426.208 341.121C424.63 340.524 422.398 339.903 419.497 339.903C415.832 339.903 414.785 341.421 414.785 342.783C414.785 344.458 416.984 345.61 421.749 347.077C428.556 349.119 431.383 351.946 431.383 357.025C431.383 361.685 427.927 365.874 421.225 366.922V370.365C421.225 371.355 420.422 372.158 419.432 372.158H417.624C416.635 372.158 415.832 371.355 415.832 370.365Z" fill="url(#paint31_linear_86_805)"/>
<path d="M441.716 461.375C461.358 461.375 477.28 445.452 477.28 425.81C477.28 406.168 461.358 390.246 441.716 390.246C422.074 390.246 406.151 406.168 406.151 425.81C406.151 445.452 422.074 461.375 441.716 461.375Z" fill="url(#paint32_linear_86_805)"/>
<path d="M441.716 460.192C460.705 460.192 476.098 444.799 476.098 425.81C476.098 406.821 460.705 391.428 441.716 391.428C422.728 391.428 407.334 406.821 407.334 425.81C407.334 444.799 422.728 460.192 441.716 460.192Z" fill="url(#paint33_linear_86_805)"/>
<path d="M413.364 412.273C413.251 412.273 413.137 412.248 413.029 412.193C412.661 412.008 412.514 411.56 412.699 411.192C418.262 400.173 429.38 393.327 441.716 393.327C443.684 393.327 445.655 393.504 447.575 393.854C447.98 393.927 448.249 394.316 448.175 394.721C448.102 395.125 447.715 395.393 447.308 395.321C445.476 394.987 443.595 394.818 441.715 394.818C429.946 394.818 419.338 401.35 414.03 411.864C413.899 412.124 413.637 412.273 413.364 412.273Z" fill="white"/>
<path opacity="0.78" d="M463.035 447.136C474.399 435.772 474.399 417.347 463.035 405.983C451.67 394.619 433.245 394.619 421.881 405.983C410.517 417.347 410.517 435.772 421.881 447.136C433.245 458.5 451.67 458.5 463.035 447.136Z" fill="white"/>
<path d="M439.609 448.193V445.027C436.309 444.895 433.044 444.116 430.726 443.101C429.898 442.738 429.476 441.809 429.714 440.937L430.518 437.988C430.813 436.906 431.99 436.347 433.024 436.78C435.324 437.745 438.163 438.507 441.226 438.507C444.405 438.507 446.775 437.43 446.775 435.221C446.775 433.227 444.943 432.042 440.525 430.857C434.222 429.133 429.695 426.385 429.695 420.835C429.695 415.824 433.359 411.999 439.717 410.976V407.809C439.717 406.79 440.543 405.964 441.562 405.964H443.422C444.441 405.964 445.266 406.79 445.266 407.809V410.652C448.32 410.774 450.543 411.296 452.308 411.916C453.211 412.234 453.705 413.207 453.455 414.132L452.715 416.859C452.43 417.911 451.306 418.487 450.287 418.102C448.662 417.488 446.366 416.848 443.381 416.848C439.609 416.848 438.532 418.41 438.532 419.811C438.532 421.535 440.795 422.72 445.698 424.229C452.702 426.331 455.611 429.24 455.611 434.466C455.611 439.261 452.055 443.572 445.159 444.65V448.193C445.159 449.211 444.333 450.037 443.314 450.037H441.454C440.435 450.037 439.609 449.211 439.609 448.193Z" fill="url(#paint34_linear_86_805)"/>
<path d="M487.341 403.422C501.732 403.422 513.398 391.756 513.398 377.365C513.398 362.973 501.732 351.307 487.341 351.307C472.949 351.307 461.283 362.973 461.283 377.365C461.283 391.756 472.949 403.422 487.341 403.422Z" fill="url(#paint35_linear_86_805)"/>
<path d="M487.34 402.556C501.253 402.556 512.531 391.277 512.531 377.365C512.531 363.452 501.253 352.173 487.34 352.173C473.427 352.173 462.149 363.452 462.149 377.365C462.149 391.277 473.427 402.556 487.34 402.556Z" fill="url(#paint36_linear_86_805)"/>
<path d="M466.567 367.646C466.454 367.646 466.34 367.62 466.232 367.566C465.864 367.38 465.717 366.932 465.903 366.564C470.012 358.423 478.226 353.365 487.34 353.365C488.796 353.365 490.252 353.496 491.67 353.755C492.075 353.828 492.343 354.217 492.269 354.622C492.195 355.027 491.81 355.296 491.402 355.222C490.073 354.979 488.706 354.856 487.34 354.856C478.792 354.856 471.088 359.6 467.233 367.236C467.102 367.496 466.84 367.646 466.567 367.646Z" fill="white"/>
<path opacity="0.78" d="M502.959 392.991C511.285 384.664 511.285 371.164 502.958 362.838C494.632 354.511 481.132 354.511 472.806 362.838C464.479 371.164 464.479 384.664 472.806 392.99C481.132 401.317 494.632 401.317 502.959 392.991Z" fill="white"/>
<path d="M485.797 393.764V391.445C483.379 391.348 480.987 390.777 479.288 390.033C478.682 389.768 478.373 389.087 478.547 388.448L479.136 386.288C479.352 385.495 480.214 385.085 480.972 385.402C482.657 386.109 484.738 386.668 486.982 386.668C489.311 386.668 491.048 385.878 491.048 384.259C491.048 382.799 489.705 381.93 486.468 381.062C481.85 379.799 478.533 377.786 478.533 373.719C478.533 370.048 481.218 367.245 485.876 366.495V364.175C485.876 363.429 486.481 362.824 487.228 362.824H488.591C489.337 362.824 489.942 363.429 489.942 364.175V366.258C492.18 366.348 493.809 366.73 495.101 367.185C495.763 367.418 496.125 368.131 495.942 368.808L495.4 370.807C495.191 371.577 494.367 371.999 493.62 371.717C492.43 371.267 490.747 370.798 488.56 370.798C485.797 370.798 485.007 371.943 485.007 372.969C485.007 374.233 486.665 375.101 490.258 376.206C495.39 377.746 497.522 379.878 497.522 383.707C497.522 387.221 494.916 390.379 489.863 391.168V393.764C489.863 394.511 489.258 395.116 488.512 395.116H487.149C486.402 395.116 485.797 394.51 485.797 393.764Z" fill="url(#paint37_linear_86_805)"/>
<path d="M326.902 105.375C352.649 105.375 373.522 84.5031 373.522 58.756C373.522 33.009 352.649 12.1368 326.902 12.1368C301.155 12.1368 280.283 33.009 280.283 58.756C280.283 84.5031 301.155 105.375 326.902 105.375Z" fill="white"/>
<path d="M326.902 100.168C349.774 100.168 368.314 81.6271 368.314 58.756C368.314 35.8849 349.774 17.3442 326.902 17.3442C304.031 17.3442 285.491 35.8849 285.491 58.756C285.491 81.6271 304.031 100.168 326.902 100.168Z" fill="url(#paint38_linear_86_805)"/>
<path d="M350.199 47.6083H338.05V35.4591C338.05 33.292 336.293 31.5352 334.126 31.5352H319.679C317.511 31.5352 315.755 33.292 315.755 35.4591V47.6083H303.605C301.438 47.6083 299.681 49.3652 299.681 51.5325V65.9797C299.681 68.1468 301.438 69.9037 303.605 69.9037H315.755V82.0529C315.755 84.22 317.511 85.9769 319.679 85.9769H334.126C336.293 85.9769 338.05 84.22 338.05 82.0529V69.9037H350.199C352.366 69.9037 354.123 68.1468 354.123 65.9797V51.5325C354.123 49.3652 352.366 47.6083 350.199 47.6083Z" fill="white"/>
<path d="M202.371 129.892C222.335 109.928 222.335 77.5599 202.371 57.5958C182.407 37.6317 150.039 37.6317 130.075 57.5958C110.111 77.5599 110.111 109.928 130.075 129.892C150.039 149.856 182.407 149.856 202.371 129.892Z" fill="white"/>
<path d="M166.226 139.155C191.306 139.155 211.638 118.823 211.638 93.7434C211.638 68.6634 191.306 48.332 166.226 48.332C141.146 48.332 120.815 68.6634 120.815 93.7434C120.815 118.823 141.146 139.155 166.226 139.155Z" fill="url(#paint39_linear_86_805)"/>
<path d="M193.017 85.091L166.226 64.5115L139.435 85.091C138.135 86.0898 138.841 88.169 140.48 88.169H144.269C144.224 88.3886 144.2 88.616 144.2 88.8489V119.576C144.2 121.454 145.722 122.975 147.599 122.975H184.853C186.73 122.975 188.252 121.453 188.252 119.576V88.8487C188.252 88.6157 188.228 88.3886 188.184 88.1688H191.972C193.611 88.169 194.318 86.0898 193.017 85.091ZM174.934 111.023H157.519V93.6075H174.934V111.023Z" fill="white"/>
<path d="M113.333 251.991C132.892 232.432 132.892 200.722 113.334 181.164C93.7753 161.606 62.065 161.606 42.5067 181.164C22.9484 200.722 22.9483 232.432 42.5066 251.991C62.0648 271.549 93.7751 271.549 113.333 251.991Z" fill="white"/>
<path d="M77.9234 261.066C102.494 261.066 122.412 241.148 122.412 216.578C122.412 192.008 102.494 172.09 77.9234 172.09C53.3532 172.09 33.4351 192.008 33.4351 216.578C33.4351 241.148 53.3532 261.066 77.9234 261.066Z" fill="url(#paint40_linear_86_805)"/>
<path d="M58.5152 223.243C58.5152 221.278 56.9221 219.685 54.9571 219.685H53.6059C51.6409 219.685 50.0479 221.278 50.0479 223.243V232.356C50.0479 234.321 51.6409 235.914 53.6059 235.914H54.9571C56.9221 235.914 58.5152 234.321 58.5152 232.356V223.243Z" fill="white"/>
<path d="M106.497 223.252C106.497 219.625 99.9433 219.685 102.963 219.685H101.356C99.391 219.685 98.0298 221.287 98.0298 223.252V232.336C98.0298 234.301 99.3908 235.914 101.356 235.914H102.963C104.928 235.914 106.497 234.301 106.497 232.336V223.252Z" fill="white"/>
<path d="M53.8927 205.673C53.786 205.649 53.5758 205.555 53.5758 205.446V204.715C53.5758 204.01 53.3133 203.365 52.6842 203.048C51.8725 202.639 50.9853 202.625 50.1617 203.01L48.5275 203.717C47.8056 204.055 47.2251 204.78 47.2251 205.576V206.134C47.2251 207.16 48.1358 208.029 49.1526 208.167L55.4595 209.015L56.2009 206.177L53.8927 205.673Z" fill="white"/>
<path d="M102.683 205.673C102.79 205.649 102.969 205.555 102.969 205.446V204.715C102.969 204.01 103.263 203.365 103.892 203.048C104.703 202.639 105.606 202.625 106.43 203.01L108.04 203.717C108.762 204.055 109.32 204.78 109.32 205.576V206.134C109.32 207.16 108.44 208.029 107.423 208.167L101.132 209.015L100.382 206.177L102.683 205.673Z" fill="white"/>
<path d="M107.132 211.947C106.23 208.902 101.569 206.181 101.569 206.181C101.569 206.181 97.6605 194.282 93.4508 194.282C90.0707 194.282 81.9538 194.282 78.8861 194.282C78.8861 194.282 78.4361 194.282 77.6833 194.282C74.6124 194.282 66.4811 194.282 63.1001 194.282C58.8905 194.282 54.9815 206.181 54.9815 206.181C54.9815 206.181 50.3208 208.949 49.4188 211.994C48.7594 214.22 50.1891 222.944 51.0056 227.362C51.2936 228.92 52.7633 230.269 54.4798 230.269H77.6833H78.8861H102.071C103.787 230.269 105.257 228.896 105.545 227.339C106.362 222.921 107.792 214.173 107.132 211.947Z" fill="white"/>
<path d="M106.227 224.934C105.968 224.633 105.573 224.624 105.155 224.624H51.4737C51.0582 224.624 50.6655 224.631 50.4063 224.928C50.1471 225.225 50.0498 225.531 50.1419 225.902L51.0203 229.72C51.1616 230.288 51.7144 230.975 52.3521 230.975H104.233C104.865 230.975 105.415 230.254 105.561 229.691L106.484 226.077C106.581 225.705 106.486 225.234 106.227 224.934Z" fill="white"/>
<path d="M63.5906 219.251C63.5906 219.251 62.2375 215.192 60.5336 214.841C58.8297 214.49 51.6133 212.987 51.4628 214.24C51.3126 215.493 49.8591 219.802 54.169 220.203C58.479 220.604 64.2848 220.934 63.5906 219.251Z" fill="#FD982C"/>
<path d="M92.9597 219.251C92.9597 219.251 94.3128 215.192 96.0167 214.841C97.7207 214.49 104.937 212.987 105.087 214.24C105.238 215.493 106.691 219.802 102.381 220.203C98.0713 220.604 92.2655 220.934 92.9597 219.251Z" fill="#FD9425"/>
<path d="M91.9878 215.793C91.8478 215.577 91.6082 215.451 91.3511 215.451H65.1991C64.9328 215.451 64.6859 215.586 64.5486 215.815C64.4113 216.043 64.4036 216.324 64.5284 216.559L65.9998 219.378C66.5457 220.408 67.6158 221.096 68.7812 221.096H87.9966C89.2394 221.096 90.3658 220.32 90.8719 219.184L92.0439 216.535C92.1491 216.301 92.1278 216.008 91.9878 215.793Z" fill="#FD9628"/>
<path d="M99.1091 207.167C98.9393 207.425 98.6505 207.689 98.3394 207.689H58.2099C57.8957 207.689 57.6025 207.421 57.4342 207.155C57.2658 206.889 57.2448 206.501 57.38 206.215C58.2911 204.296 60.0005 200.715 60.9581 198.726C61.0016 198.635 61.0498 198.463 61.1039 198.381C61.5669 197.645 62.3803 197.105 63.2629 197.105H93.6095C94.5011 197.105 95.3174 197.641 95.7789 198.382C95.8435 198.487 95.9023 198.634 95.9519 198.748L99.1812 206.224C99.3062 206.508 99.2791 206.907 99.1091 207.167Z" fill="#FEB86C"/>
<defs>
<linearGradient id="paint0_linear_86_805" x1="563.135" y1="216.698" x2="-201.365" y2="428.698" gradientUnits="userSpaceOnUse">
<stop stop-color="#74A4FF"/>
<stop offset="1" stop-color="#C3D7FF"/>
</linearGradient>
<linearGradient id="paint1_linear_86_805" x1="158.5" y1="779.5" x2="459.5" y2="-128" gradientUnits="userSpaceOnUse">
<stop stop-color="#1E1D5C"/>
<stop offset="1" stop-color="#7775FB"/>
</linearGradient>
<linearGradient id="paint2_linear_86_805" x1="338.006" y1="542.554" x2="177.591" y2="717.04" gradientUnits="userSpaceOnUse">
<stop stop-color="#2B3582"/>
<stop offset="1" stop-color="#150E42"/>
</linearGradient>
<linearGradient id="paint3_linear_86_805" x1="285.937" y1="555.513" x2="300.186" y2="555.513" gradientUnits="userSpaceOnUse">
<stop stop-color="#F9B776"/>
<stop offset="1" stop-color="#F47960"/>
</linearGradient>
<linearGradient id="paint4_linear_86_805" x1="350.636" y1="345.228" x2="214.138" y2="530.233" gradientUnits="userSpaceOnUse">
<stop stop-color="#2B3582"/>
<stop offset="1" stop-color="#150E42"/>
</linearGradient>
<linearGradient id="paint5_linear_86_805" x1="302.019" y1="509.47" x2="141.604" y2="683.955" gradientUnits="userSpaceOnUse">
<stop stop-color="#2B3582"/>
<stop offset="1" stop-color="#150E42"/>
</linearGradient>
<linearGradient id="paint6_linear_86_805" x1="234.584" y1="554.782" x2="246.887" y2="554.782" gradientUnits="userSpaceOnUse">
<stop stop-color="#F9B776"/>
<stop offset="1" stop-color="#F47960"/>
</linearGradient>
<linearGradient id="paint7_linear_86_805" x1="326.309" y1="327.279" x2="189.811" y2="512.284" gradientUnits="userSpaceOnUse">
<stop stop-color="#2B3582"/>
<stop offset="1" stop-color="#150E42"/>
</linearGradient>
<linearGradient id="paint8_linear_86_805" x1="250.737" y1="208.331" x2="369.45" y2="428.981" gradientUnits="userSpaceOnUse">
<stop stop-color="#FD8C14"/>
<stop offset="1" stop-color="#FFDECF"/>
</linearGradient>
<linearGradient id="paint9_linear_86_805" x1="406.141" y1="98.9642" x2="381" y2="170.794" gradientUnits="userSpaceOnUse">
<stop stop-color="#F9B776"/>
<stop offset="1" stop-color="#F47960"/>
</linearGradient>
<linearGradient id="paint10_linear_86_805" x1="204.805" y1="233.043" x2="323.518" y2="453.694" gradientUnits="userSpaceOnUse">
<stop stop-color="#FD8C14"/>
<stop offset="1" stop-color="#FFDECF"/>
</linearGradient>
<linearGradient id="paint11_linear_86_805" x1="256.018" y1="188.405" x2="292.44" y2="188.405" gradientUnits="userSpaceOnUse">
<stop stop-color="#F9B776"/>
<stop offset="1" stop-color="#F47960"/>
</linearGradient>
<linearGradient id="paint12_linear_86_805" x1="301.103" y1="165.234" x2="261.057" y2="140.809" gradientUnits="userSpaceOnUse">
<stop stop-color="#F9B776"/>
<stop offset="1" stop-color="#F47960"/>
</linearGradient>
<linearGradient id="paint13_linear_86_805" x1="239.859" y1="115.062" x2="291.594" y2="155.924" gradientUnits="userSpaceOnUse">
<stop stop-color="#2B3582"/>
<stop offset="1" stop-color="#150E42"/>
</linearGradient>
<linearGradient id="paint14_linear_86_805" x1="290.584" y1="174.343" x2="254.554" y2="152.367" gradientUnits="userSpaceOnUse">
<stop stop-color="#F9B776"/>
<stop offset="1" stop-color="#F47960"/>
</linearGradient>
<linearGradient id="paint15_linear_86_805" x1="225.521" y1="456.207" x2="195.91" y2="243.549" gradientUnits="userSpaceOnUse">
<stop stop-color="#F9B776"/>
<stop offset="1" stop-color="#F47960"/>
</linearGradient>
<linearGradient id="paint16_linear_86_805" x1="221.995" y1="435.75" x2="198.365" y2="266.049" gradientUnits="userSpaceOnUse">
<stop stop-color="#F9B776"/>
<stop offset="1" stop-color="#F47960"/>
</linearGradient>
<linearGradient id="paint17_linear_86_805" x1="275.825" y1="315.295" x2="290.679" y2="-46.1434" gradientUnits="userSpaceOnUse">
<stop stop-color="#373689"/>
<stop offset="1" stop-color="#D6E4FF"/>
</linearGradient>
<linearGradient id="paint18_linear_86_805" x1="280.5" y1="190.811" x2="305.013" y2="239.837" gradientUnits="userSpaceOnUse">
<stop stop-color="#FD8C14"/>
<stop offset="1" stop-color="#BB6000"/>
</linearGradient>
<linearGradient id="paint19_linear_86_805" x1="279.51" y1="182.829" x2="236.29" y2="246.692" gradientUnits="userSpaceOnUse">
<stop stop-color="#FD8D16"/>
<stop offset="1" stop-color="#BE6200"/>
</linearGradient>
<linearGradient id="paint20_linear_86_805" x1="263.113" y1="217.428" x2="333.845" y2="183.477" gradientUnits="userSpaceOnUse">
<stop stop-color="#28276E"/>
<stop offset="1" stop-color="#43429F"/>
</linearGradient>
<linearGradient id="paint21_linear_86_805" x1="415.667" y1="144.632" x2="520.973" y2="403.661" gradientUnits="userSpaceOnUse">
<stop stop-color="#A2E5F7"/>
<stop offset="1" stop-color="#4D8BFF"/>
</linearGradient>
<linearGradient id="paint22_linear_86_805" x1="448.748" y1="112.426" x2="404.199" y2="140.791" gradientUnits="userSpaceOnUse">
<stop stop-color="#F9B776"/>
<stop offset="1" stop-color="#F47960"/>
</linearGradient>
<linearGradient id="paint23_linear_86_805" x1="445.605" y1="107.487" x2="401.055" y2="135.852" gradientUnits="userSpaceOnUse">
<stop stop-color="#F9B776"/>
<stop offset="1" stop-color="#F47960"/>
</linearGradient>
<linearGradient id="paint24_linear_86_805" x1="446.581" y1="109.02" x2="402.031" y2="137.385" gradientUnits="userSpaceOnUse">
<stop stop-color="#F9B776"/>
<stop offset="1" stop-color="#F47960"/>
</linearGradient>
<linearGradient id="paint25_linear_86_805" x1="447.78" y1="110.905" x2="403.231" y2="139.27" gradientUnits="userSpaceOnUse">
<stop stop-color="#F9B776"/>
<stop offset="1" stop-color="#F47960"/>
</linearGradient>
<linearGradient id="paint26_linear_86_805" x1="334.196" y1="403.692" x2="360.826" y2="372.782" gradientUnits="userSpaceOnUse">
<stop stop-color="#FDF53F"/>
<stop offset="1" stop-color="#D93C65"/>
</linearGradient>
<linearGradient id="paint27_linear_86_805" x1="375.874" y1="350.237" x2="297.127" y2="469.202" gradientUnits="userSpaceOnUse">
<stop stop-color="#FDF53F"/>
<stop offset="1" stop-color="#D93C65"/>
</linearGradient>
<linearGradient id="paint28_linear_86_805" x1="373.525" y1="353.646" x2="331.594" y2="424.041" gradientUnits="userSpaceOnUse">
<stop stop-color="#FDF53F"/>
<stop offset="1" stop-color="#D93C65"/>
</linearGradient>
<linearGradient id="paint29_linear_86_805" x1="370.584" y1="403.51" x2="416.943" y2="349.7" gradientUnits="userSpaceOnUse">
<stop stop-color="#FDF53F"/>
<stop offset="1" stop-color="#D93C65"/>
</linearGradient>
<linearGradient id="paint30_linear_86_805" x1="443.139" y1="310.453" x2="306.053" y2="517.55" gradientUnits="userSpaceOnUse">
<stop stop-color="#FDF53F"/>
<stop offset="1" stop-color="#D93C65"/>
</linearGradient>
<linearGradient id="paint31_linear_86_805" x1="439.05" y1="316.387" x2="366.054" y2="438.934" gradientUnits="userSpaceOnUse">
<stop stop-color="#FDF53F"/>
<stop offset="1" stop-color="#D93C65"/>
</linearGradient>
<linearGradient id="paint32_linear_86_805" x1="393.049" y1="482.298" x2="440.752" y2="426.929" gradientUnits="userSpaceOnUse">
<stop stop-color="#FDF53F"/>
<stop offset="1" stop-color="#D93C65"/>
</linearGradient>
<linearGradient id="paint33_linear_86_805" x1="467.708" y1="386.544" x2="326.649" y2="599.645" gradientUnits="userSpaceOnUse">
<stop stop-color="#FDF53F"/>
<stop offset="1" stop-color="#D93C65"/>
</linearGradient>
<linearGradient id="paint34_linear_86_805" x1="463.5" y1="392.65" x2="388.388" y2="518.749" gradientUnits="userSpaceOnUse">
<stop stop-color="#FDF53F"/>
<stop offset="1" stop-color="#D93C65"/>
</linearGradient>
<linearGradient id="paint35_linear_86_805" x1="451.683" y1="418.753" x2="486.635" y2="378.184" gradientUnits="userSpaceOnUse">
<stop stop-color="#FDF53F"/>
<stop offset="1" stop-color="#D93C65"/>
</linearGradient>
<linearGradient id="paint36_linear_86_805" x1="506.384" y1="348.595" x2="403.031" y2="504.732" gradientUnits="userSpaceOnUse">
<stop stop-color="#FDF53F"/>
<stop offset="1" stop-color="#D93C65"/>
</linearGradient>
<linearGradient id="paint37_linear_86_805" x1="503.301" y1="353.068" x2="448.268" y2="445.46" gradientUnits="userSpaceOnUse">
<stop stop-color="#FDF53F"/>
<stop offset="1" stop-color="#D93C65"/>
</linearGradient>
<linearGradient id="paint38_linear_86_805" x1="304.455" y1="14.7335" x2="373.83" y2="150.788" gradientUnits="userSpaceOnUse">
<stop stop-color="#FD8C14"/>
<stop offset="1" stop-color="#FFEACF"/>
</linearGradient>
<linearGradient id="paint39_linear_86_805" x1="133.495" y1="34.4045" x2="247.976" y2="241.948" gradientUnits="userSpaceOnUse">
<stop stop-color="#FD8C14"/>
<stop offset="1" stop-color="#FFEACF"/>
</linearGradient>
<linearGradient id="paint40_linear_86_805" x1="56.5198" y1="259.932" x2="129.731" y2="111.639" gradientUnits="userSpaceOnUse">
<stop stop-color="#FD8C14"/>
<stop offset="1" stop-color="#FFEACF"/>
</linearGradient>
</defs>
</svg>
