<svg width="789" height="768" viewBox="0 0 789 768" fill="none" xmlns="http://www.w3.org/2000/svg">
<path d="M406.828 0.779561C204.92 -5.1828 30.0243 141.321 3.6004 333.553C-25.2899 543.732 133.719 732.843 329.374 763.132C572.735 800.806 808.782 582.856 787.587 346.412C771.619 168.272 612.072 6.83996 406.828 0.779561Z" fill="url(#paint0_linear_270_13)"/>
<path d="M747.94 671.702L48.5 665.74V683.38C48.5 688.168 51.5507 692.239 55.6824 692.965L253.463 727.702C255.811 728.115 258.191 728.224 260.559 728.028L740.34 688.422C744.623 688.069 747.94 683.984 747.94 679.065V671.702Z" fill="#26264F"/>
<path d="M494.116 643.432L55.7327 675.703C47.8881 676.281 41.5098 670.145 41.5098 661.996V335.545C41.5098 327.396 47.8878 320.791 55.7327 320.791H494.116C500.579 320.791 505.804 326.762 505.804 334.128V629.234C505.804 636.6 500.579 642.956 494.116 643.432Z" fill="#26264F"/>
<path d="M501.106 643.432L62.7229 675.703C54.8781 676.28 48.5 670.144 48.5 661.996V335.545C48.5 327.396 54.8781 320.791 62.7229 320.791H501.106C507.569 320.791 512.794 326.762 512.794 334.128V629.234C512.794 636.6 507.569 642.956 501.106 643.432Z" fill="url(#paint1_linear_270_13)"/>
<path d="M487.449 622.626L79.1408 650.658C72.7572 651.096 67.5693 646.06 67.5693 639.408V353.599C67.5693 346.947 72.757 341.532 79.1408 341.505L487.449 339.744C492.781 339.721 497.093 344.614 497.093 350.673V610.994C497.093 617.053 492.78 622.261 487.449 622.626Z" fill="url(#paint2_linear_270_13)"/>
<path d="M297.397 329.72C297.397 332.753 295.14 335.219 292.354 335.228C289.564 335.237 287.3 332.78 287.3 329.74C287.3 326.7 289.564 324.233 292.354 324.231C295.14 324.229 297.397 326.687 297.397 329.72Z" fill="white"/>
<path d="M518.579 641.642L48.5 675.611L253.463 711.609C255.811 712.021 258.191 712.131 260.559 711.935L747.94 671.702L526.057 641.873C523.575 641.539 521.073 641.462 518.579 641.642Z" fill="url(#paint3_linear_270_13)"/>
<path d="M117.092 675.903L508.447 647.201L629.567 663.353L241.584 694.033L117.092 675.903Z" fill="#26264F"/>
<g opacity="0.67">
<path d="M219.54 464.332C227.881 448.123 243.46 436.33 261.663 433.675L262.931 355.114C210.913 357.708 165.735 391.408 145.383 438.807L219.54 464.332Z" fill="white"/>
<path d="M320.988 496.564C316.608 522.69 294.679 543.487 268.024 544.791C260.121 545.177 252.59 543.811 245.771 541.023L204.924 610.594C223.841 619.88 245.356 624.424 268.024 622.957C334.915 618.626 388.542 563.311 394.556 496.781L320.988 496.564Z" fill="white"/>
<path d="M192.251 603.415L233.303 533.732C220.965 523.966 213.062 508.611 213.062 491.026C213.062 486.777 213.527 482.623 214.403 478.612L140.091 453.272C136.151 466.202 134.026 479.886 134.026 493.999C134.026 540.732 157.213 580.749 192.251 603.415Z" fill="white"/>
</g>
<path d="M276.151 433.534C300.479 436.649 319.316 456.54 321.561 481.826L442.805 482.548C442.805 482.493 442.806 482.438 442.806 482.383C442.806 386.643 371.366 308.489 278.251 303.146L276.151 433.534Z" fill="url(#paint4_linear_270_13)"/>
<path d="M42.1362 85.7607V283.076C42.1362 289.627 47.5511 294.937 54.2274 294.937H460.279C466.706 294.937 471.915 289.731 471.915 283.308V89.8508L42.1362 85.7607Z" fill="#E2ECFF"/>
<path d="M460.279 65.1682L54.2274 60.841C47.5511 60.7698 42.1362 66.0226 42.1362 72.5732V92.7916L471.914 96.7442V76.9215C471.915 70.4985 466.706 65.2367 460.279 65.1682Z" fill="#8EB5FF"/>
<path d="M141.294 191.217L163.673 114.472C197.535 125.498 222.016 156.891 222.198 193.782L141.294 191.217Z" fill="#7AA8FF"/>
<path d="M201.283 198.533C200.027 216.081 191.469 231.619 178.575 242.221L143.455 196.64L201.283 198.533Z" fill="#A2C2FF"/>
<path d="M136.291 188.563C122.743 175.723 106.401 160.202 93.4097 147.808C104.932 137.101 120.508 130.597 137.63 130.726C142.822 130.765 147.866 131.412 152.695 132.597L136.291 188.563Z" fill="#A2C2FF"/>
<path d="M133.465 193.365L84.3283 228.671C77.4554 218.594 73.4429 206.476 73.4429 193.451C73.4429 177.388 79.5438 162.762 89.5863 151.68C93.1839 155.11 97.1839 158.919 101.567 163.089C114.845 175.718 128.187 188.364 133.465 193.365Z" fill="#A2C2FF"/>
<path d="M134.889 199.045L133.939 256.659C115.233 255.579 98.6475 246.596 87.5928 233.043L134.889 199.045Z" fill="#A2C2FF"/>
<path d="M140.336 201.507L174.236 245.49C164.337 252.305 152.368 256.42 139.425 256.748L140.336 201.507Z" fill="#A2C2FF"/>
<path d="M441.735 152.47L233.655 151.096V131.581L441.735 133.141V152.47Z" fill="white"/>
<path d="M441.735 187.447L233.655 186.41V166.895L441.735 168.118V187.447Z" fill="white"/>
<path d="M441.735 222.424L233.655 221.724V202.209L441.735 203.095V222.424Z" fill="white"/>
<path d="M441.735 257.4L233.655 257.038V237.523L441.735 238.071V257.4Z" fill="white"/>
<path d="M69.8985 76.8084C69.8985 79.717 67.4962 82.0516 64.532 82.0229C61.5672 81.9941 59.1631 79.6118 59.1631 76.7016C59.1631 73.7913 61.5672 71.4567 64.532 71.4869C67.4962 71.5173 69.8985 73.8995 69.8985 76.8084Z" fill="white"/>
<path d="M578.379 343.099L563.247 366.238L638.887 415.703L654.019 392.565L578.379 343.099Z" fill="white"/>
<path d="M576.718 381.076C592.506 381.076 605.304 368.278 605.304 352.491C605.304 336.703 592.506 323.905 576.718 323.905C560.931 323.905 548.133 336.703 548.133 352.491C548.133 368.278 560.931 381.076 576.718 381.076Z" fill="url(#paint5_linear_270_13)"/>
<path d="M628.701 419.611C641.664 419.611 652.172 409.103 652.172 396.14C652.172 383.177 641.664 372.669 628.701 372.669C615.739 372.669 605.23 383.177 605.23 396.14C605.23 409.103 615.739 419.611 628.701 419.611Z" fill="url(#paint6_linear_270_13)"/>
<path d="M627.55 283.468C647.437 283.468 663.559 260.813 663.559 232.866C663.559 204.919 647.437 182.264 627.55 182.264C607.664 182.264 591.542 204.919 591.542 232.866C591.542 260.813 607.664 283.468 627.55 283.468Z" fill="url(#paint7_linear_270_13)"/>
<path d="M517.498 110.249H449.726C380.235 110.249 323.901 166.583 323.901 236.074V236.075C323.901 273.156 353.961 303.216 391.042 303.216H576.181C613.262 303.216 643.323 273.155 643.323 236.074C643.323 166.583 586.989 110.249 517.498 110.249Z" fill="url(#paint8_linear_270_13)"/>
<path d="M505.596 440.802H461.627C416.544 440.802 379.996 404.254 379.996 359.17V359.17C379.996 335.113 399.498 315.611 423.555 315.611H543.668C567.725 315.611 587.228 335.113 587.228 359.17C587.228 404.253 550.68 440.802 505.596 440.802Z" fill="url(#paint9_linear_270_13)"/>
<path d="M579.014 276.076H450.188C432.73 276.076 418.407 262.694 418.407 246.186V220.873C418.407 204.366 432.73 191.441 450.188 191.998L579.014 196.108C594.606 196.605 607.104 209.439 607.104 224.778V248.301C607.104 263.64 594.606 276.076 579.014 276.076Z" fill="url(#paint10_linear_270_13)"/>
<path d="M491.464 232.186C491.464 243.21 482.079 252.029 470.409 251.881C458.633 251.733 449.009 242.528 449.009 231.323C449.009 220.119 458.633 211.305 470.409 211.635C482.079 211.962 491.464 221.162 491.464 232.186Z" fill="white"/>
<path d="M578.523 233.956C578.523 244.61 569.76 253.136 558.863 252.998C547.873 252.86 538.893 243.973 538.893 233.15C538.893 222.328 547.873 213.806 558.863 214.114C569.76 214.42 578.523 223.302 578.523 233.956Z" fill="white"/>
<path opacity="0.3" d="M530.362 285.567C511.203 263.055 519.716 245.052 494.668 214.546C460.204 172.571 419.999 177.321 410.789 148.852C408.238 140.963 407.945 130.136 414.789 115.168C362.296 130.31 323.901 178.706 323.901 236.074V236.075C323.901 273.156 353.961 303.216 391.042 303.216H552.388C542.724 297.947 535.662 291.794 530.362 285.567Z" fill="white"/>
<path d="M342.008 283.116C361.895 283.116 378.016 260.461 378.016 232.514C378.016 204.567 361.895 181.912 342.008 181.912C322.121 181.912 306 204.567 306 232.514C306 260.461 322.121 283.116 342.008 283.116Z" fill="url(#paint11_linear_270_13)"/>
<path d="M313.523 254.641C322.219 254.641 329.269 244.735 329.269 232.514C329.269 220.293 322.219 210.387 313.523 210.387C304.827 210.387 297.777 220.293 297.777 232.514C297.777 244.735 304.827 254.641 313.523 254.641Z" fill="url(#paint12_linear_270_13)"/>
<path opacity="0.4" d="M516.425 395.861C510.393 367.532 443.667 368.215 441.853 349.698C440.454 335.423 478.764 321.29 483.578 319.514C487.695 317.996 491.781 316.71 495.827 315.61H423.556C399.499 315.61 379.997 335.112 379.997 359.169V359.17C379.997 404.254 416.544 440.801 461.628 440.801H505.596C509.821 440.801 513.97 440.48 518.022 439.861C514.196 435.119 511.701 429.932 511.098 424.27C509.76 411.72 518.762 406.839 516.425 395.861Z" fill="url(#paint13_linear_270_13)"/>
<path d="M484.695 326.443C523.046 326.443 554.136 322.679 554.136 318.036C554.136 313.392 523.046 309.628 484.695 309.628C446.344 309.628 415.254 313.392 415.254 318.036C415.254 322.679 446.344 326.443 484.695 326.443Z" fill="url(#paint14_linear_270_13)"/>
<path d="M395.523 343.098L380.392 366.237L456.032 415.702L471.164 392.564L395.523 343.098Z" fill="white"/>
<path d="M393.854 381.076C409.641 381.076 422.44 368.278 422.44 352.491C422.44 336.703 409.641 323.905 393.854 323.905C378.067 323.905 365.269 336.703 365.269 352.491C365.269 368.278 378.067 381.076 393.854 381.076Z" fill="url(#paint15_linear_270_13)"/>
<path d="M459.149 388.331H525.359L522.731 415.727L457.835 413.553L459.149 388.331Z" fill="white"/>
<path d="M445.837 419.611C458.8 419.611 469.308 409.103 469.308 396.14C469.308 383.177 458.8 372.669 445.837 372.669C432.875 372.669 422.366 383.177 422.366 396.14C422.366 409.103 432.875 419.611 445.837 419.611Z" fill="url(#paint16_linear_270_13)"/>
<path d="M531.133 387.571C527.12 385.325 521.454 383.744 513.482 384.034C509.695 384.172 506.566 387.049 506.123 390.812L503.814 410.401H537.97L539.085 405.72C540.786 398.576 537.541 391.158 531.133 387.571Z" fill="url(#paint17_linear_270_13)"/>
<path d="M591.443 410.866L468.229 408.737C466.533 408.708 464.931 409.512 463.941 410.889L460.184 416.12C458.313 418.723 460.114 422.359 463.319 422.449L593.742 426.078L591.443 410.866Z" fill="#26264F"/>
<path d="M723.7 350.902L596.651 344.987C592.892 344.811 589.319 346.63 587.248 349.772L538.207 424.179L672.567 427.683C676.255 427.78 679.742 426.009 681.842 422.976L727.04 357.651C728.964 354.87 727.078 351.059 723.7 350.902Z" fill="#26264F"/>
<path opacity="0.3" d="M587.247 349.772C589.319 346.63 592.892 344.811 596.651 344.987L599.435 345.116C599.58 349.24 600.589 353.07 602.896 356.26C610.096 366.221 623.48 361.253 632.509 371.887C642.428 383.568 631.733 395.989 640.574 406.835C649.88 418.25 666.654 410.563 684.818 418.674L681.842 422.976C679.743 426.01 676.255 427.78 672.567 427.684L538.207 424.179L587.247 349.772Z" fill="#424888"/>
<path opacity="0.68" d="M425.806 508.736V673.336C425.806 678.8 429.891 683.016 434.918 682.752L724.292 667.557C728.628 667.33 732.135 663.044 732.135 657.985V505.603L425.806 508.736Z" fill="white"/>
<path d="M724.293 486.298L434.918 487.794C429.891 487.82 425.807 492.271 425.807 497.736V514.602L732.136 511.032V495.418C732.136 490.359 728.628 486.276 724.293 486.298Z" fill="url(#paint18_linear_270_13)"/>
<path d="M446.683 500.864C446.683 503.281 444.882 505.257 442.66 505.278C440.435 505.299 438.629 503.353 438.629 500.931C438.629 498.509 440.435 496.532 442.66 496.516C444.882 496.5 446.683 498.446 446.683 500.864Z" fill="white"/>
<path d="M488.283 658.649L465.513 659.725V537.375L488.283 536.98V658.649Z" fill="white"/>
<path d="M488.283 658.649L465.513 659.725V601.636L488.283 600.883V658.649Z" fill="url(#paint19_linear_270_13)"/>
<path d="M519.544 657.171L497.124 658.231V536.827L519.544 536.438V657.171Z" fill="white"/>
<path d="M519.544 657.171L497.124 658.231V629.411L519.544 628.51V657.171Z" fill="url(#paint20_linear_270_13)"/>
<path d="M550.328 655.716L528.25 656.76V536.287L550.328 535.905V655.716Z" fill="white"/>
<path d="M550.328 655.716L528.25 656.76V641.745L550.328 640.784V655.716Z" fill="url(#paint21_linear_270_13)"/>
<path d="M580.647 654.283L558.902 655.311V535.756L580.647 535.379V654.283Z" fill="white"/>
<path d="M580.647 654.283L558.902 655.311V561.653L580.647 561.135V654.283Z" fill="url(#paint22_linear_270_13)"/>
<path d="M610.509 652.871L589.091 653.884V535.232L610.509 534.861V652.871Z" fill="white"/>
<path d="M610.509 652.872L589.091 653.884V571.497L610.509 570.93V652.872Z" fill="url(#paint23_linear_270_13)"/>
<path d="M639.926 651.481L618.827 652.478V534.717L639.926 534.351V651.481Z" fill="white"/>
<path d="M639.926 651.481L618.827 652.478V551.839L639.926 551.382V651.481Z" fill="url(#paint24_linear_270_13)"/>
<path d="M668.907 650.111L648.12 651.094V534.209L668.907 533.849V650.111Z" fill="white"/>
<path d="M668.907 650.111L648.12 651.094V579.298L668.907 578.698V650.111Z" fill="url(#paint25_linear_270_13)"/>
<path d="M697.462 648.761L676.98 649.73V533.709L697.462 533.354V648.761Z" fill="white"/>
<path d="M697.462 648.761L676.98 649.73V609.449L697.462 608.694V648.761Z" fill="url(#paint26_linear_270_13)"/>
<defs>
<linearGradient id="paint0_linear_270_13" x1="1112" y1="-475" x2="162.5" y2="767" gradientUnits="userSpaceOnUse">
<stop stop-color="#DEE9FC"/>
<stop offset="1" stop-color="#9BBEFF"/>
</linearGradient>
<linearGradient id="paint1_linear_270_13" x1="48.4999" y1="498.266" x2="512.794" y2="498.266" gradientUnits="userSpaceOnUse">
<stop stop-color="#444B8C"/>
<stop offset="0.9964" stop-color="#26264F"/>
</linearGradient>
<linearGradient id="paint2_linear_270_13" x1="67.5693" y1="495.215" x2="625" y2="484" gradientUnits="userSpaceOnUse">
<stop stop-color="#7E9AFF"/>
<stop offset="0.9964" stop-color="#17195D"/>
</linearGradient>
<linearGradient id="paint3_linear_270_13" x1="48.4999" y1="676.788" x2="747.94" y2="676.788" gradientUnits="userSpaceOnUse">
<stop stop-color="#444B8C"/>
<stop offset="0.9964" stop-color="#26264F"/>
</linearGradient>
<linearGradient id="paint4_linear_270_13" x1="315.5" y1="445" x2="412" y2="337" gradientUnits="userSpaceOnUse">
<stop offset="0.0036" stop-color="#8B97FF"/>
<stop offset="1" stop-color="#71BAF6"/>
</linearGradient>
<linearGradient id="paint5_linear_270_13" x1="548.133" y1="352.491" x2="605.304" y2="352.491" gradientUnits="userSpaceOnUse">
<stop stop-color="#40447E"/>
<stop offset="0.9964" stop-color="#3C3B6B"/>
</linearGradient>
<linearGradient id="paint6_linear_270_13" x1="605.23" y1="396.14" x2="652.172" y2="396.14" gradientUnits="userSpaceOnUse">
<stop stop-color="#40447E"/>
<stop offset="0.9964" stop-color="#3C3B6B"/>
</linearGradient>
<linearGradient id="paint7_linear_270_13" x1="591.542" y1="232.866" x2="663.559" y2="232.866" gradientUnits="userSpaceOnUse">
<stop stop-color="#FFC444"/>
<stop offset="0.9964" stop-color="#F36F56"/>
</linearGradient>
<linearGradient id="paint8_linear_270_13" x1="323.901" y1="206.732" x2="643.323" y2="206.732" gradientUnits="userSpaceOnUse">
<stop stop-color="#FCB148"/>
<stop offset="0.0521" stop-color="#FDBA46"/>
<stop offset="0.1424" stop-color="#FFC244"/>
<stop offset="0.3183" stop-color="#FFC444"/>
<stop offset="0.4849" stop-color="#FDB946"/>
<stop offset="0.7754" stop-color="#F99C4D"/>
<stop offset="0.8658" stop-color="#F8924F"/>
<stop offset="1" stop-color="#F8924F"/>
</linearGradient>
<linearGradient id="paint9_linear_270_13" x1="379.996" y1="378.206" x2="587.227" y2="378.206" gradientUnits="userSpaceOnUse">
<stop stop-color="#FCB148"/>
<stop offset="0.0521" stop-color="#FDBA46"/>
<stop offset="0.1424" stop-color="#FFC244"/>
<stop offset="0.3183" stop-color="#FFC444"/>
<stop offset="0.4849" stop-color="#FDB946"/>
<stop offset="0.7754" stop-color="#F99C4D"/>
<stop offset="0.8658" stop-color="#F8924F"/>
<stop offset="1" stop-color="#F8924F"/>
</linearGradient>
<linearGradient id="paint10_linear_270_13" x1="418.407" y1="234.028" x2="607.104" y2="234.028" gradientUnits="userSpaceOnUse">
<stop stop-color="#444B8C"/>
<stop offset="0.9964" stop-color="#26264F"/>
</linearGradient>
<linearGradient id="paint11_linear_270_13" x1="306" y1="232.514" x2="378.016" y2="232.514" gradientUnits="userSpaceOnUse">
<stop stop-color="#FFC444"/>
<stop offset="0.9964" stop-color="#F36F56"/>
</linearGradient>
<linearGradient id="paint12_linear_270_13" x1="297.777" y1="232.514" x2="329.269" y2="232.514" gradientUnits="userSpaceOnUse">
<stop stop-color="#FFC444"/>
<stop offset="0.9964" stop-color="#F36F56"/>
</linearGradient>
<linearGradient id="paint13_linear_270_13" x1="379.996" y1="378.206" x2="518.022" y2="378.206" gradientUnits="userSpaceOnUse">
<stop stop-color="#FCB148"/>
<stop offset="0.0521" stop-color="#FDBA46"/>
<stop offset="0.1424" stop-color="#FFC244"/>
<stop offset="0.3183" stop-color="#FFC444"/>
<stop offset="0.4849" stop-color="#FDB946"/>
<stop offset="0.7754" stop-color="#F99C4D"/>
<stop offset="0.8658" stop-color="#F8924F"/>
<stop offset="1" stop-color="#F8924F"/>
</linearGradient>
<linearGradient id="paint14_linear_270_13" x1="453.622" y1="558.441" x2="473.59" y2="403.952" gradientUnits="userSpaceOnUse">
<stop stop-color="#FCB148"/>
<stop offset="0.0521" stop-color="#FDBA46"/>
<stop offset="0.1424" stop-color="#FFC244"/>
<stop offset="0.3183" stop-color="#FFC444"/>
<stop offset="0.3975" stop-color="#FEC045"/>
<stop offset="0.7095" stop-color="#FAA34B"/>
<stop offset="0.8658" stop-color="#F8924F"/>
<stop offset="1" stop-color="#F8924F"/>
</linearGradient>
<linearGradient id="paint15_linear_270_13" x1="365.268" y1="352.491" x2="422.44" y2="352.491" gradientUnits="userSpaceOnUse">
<stop stop-color="#40447E"/>
<stop offset="0.9964" stop-color="#3C3B6B"/>
</linearGradient>
<linearGradient id="paint16_linear_270_13" x1="422.366" y1="396.14" x2="469.308" y2="396.14" gradientUnits="userSpaceOnUse">
<stop stop-color="#40447E"/>
<stop offset="0.9964" stop-color="#3C3B6B"/>
</linearGradient>
<linearGradient id="paint17_linear_270_13" x1="503.814" y1="397.2" x2="539.533" y2="397.2" gradientUnits="userSpaceOnUse">
<stop stop-color="#40447E"/>
<stop offset="0.9964" stop-color="#3C3B6B"/>
</linearGradient>
<linearGradient id="paint18_linear_270_13" x1="604.184" y1="461.67" x2="467.515" y2="685.093" gradientUnits="userSpaceOnUse">
<stop stop-color="#FD9222"/>
<stop offset="1" stop-color="#FEB36D"/>
</linearGradient>
<linearGradient id="paint19_linear_270_13" x1="490.187" y1="588.671" x2="488" y2="630" gradientUnits="userSpaceOnUse">
<stop stop-color="#FD9222"/>
<stop offset="1" stop-color="#FEB36D"/>
</linearGradient>
<linearGradient id="paint20_linear_270_13" x1="515.752" y1="620.141" x2="498.122" y2="675.158" gradientUnits="userSpaceOnUse">
<stop stop-color="#FD9222"/>
<stop offset="1" stop-color="#FEB36D"/>
</linearGradient>
<linearGradient id="paint21_linear_270_13" x1="543.925" y1="634.263" x2="532.914" y2="668.627" gradientUnits="userSpaceOnUse">
<stop stop-color="#FD9222"/>
<stop offset="1" stop-color="#FEB36D"/>
</linearGradient>
<linearGradient id="paint22_linear_270_13" x1="590.095" y1="544.555" x2="541.778" y2="695.337" gradientUnits="userSpaceOnUse">
<stop stop-color="#FD9222"/>
<stop offset="1" stop-color="#FEB36D"/>
</linearGradient>
<linearGradient id="paint23_linear_270_13" x1="617.846" y1="555.868" x2="600" y2="629" gradientUnits="userSpaceOnUse">
<stop stop-color="#FD9222"/>
<stop offset="1" stop-color="#FEB36D"/>
</linearGradient>
<linearGradient id="paint24_linear_270_13" x1="651.046" y1="534.035" x2="629" y2="613" gradientUnits="userSpaceOnUse">
<stop stop-color="#FD9222"/>
<stop offset="1" stop-color="#FEB36D"/>
</linearGradient>
<linearGradient id="paint25_linear_270_13" x1="674.399" y1="565.131" x2="659" y2="633" gradientUnits="userSpaceOnUse">
<stop stop-color="#FD9222"/>
<stop offset="1" stop-color="#FEB36D"/>
</linearGradient>
<linearGradient id="paint26_linear_270_13" x1="696.788" y1="599.25" x2="674.05" y2="670.209" gradientUnits="userSpaceOnUse">
<stop stop-color="#FD9222"/>
<stop offset="1" stop-color="#FEB36D"/>
</linearGradient>
</defs>
</svg>
