<svg width="29" height="32" viewBox="0 0 29 32" fill="none" xmlns="http://www.w3.org/2000/svg">
<path d="M16.9167 8.5V0H1.8125C0.808073 0 0 0.66875 0 1.5V30.5C0 31.3313 0.808073 32 1.8125 32H27.1875C28.1919 32 29 31.3313 29 30.5V10H18.7292C17.7323 10 16.9167 9.325 16.9167 8.5ZM21.8391 22.0006H16.9167V27.0006C16.9167 27.5531 16.3759 28.0006 15.7083 28.0006H13.2917C12.6241 28.0006 12.0833 27.5531 12.0833 27.0006V22.0006H7.16089C6.08245 22.0006 5.54398 20.92 6.30977 20.2906L13.5915 14.3094C14.0937 13.8962 14.9048 13.8962 15.407 14.3094L22.6887 20.2906C23.4553 20.92 22.9176 22.0006 21.8391 22.0006ZM28.4714 6.5625L21.0779 0.4375C20.738 0.15625 20.2773 0 19.794 0H19.3333V8H29V7.61875C29 7.225 28.8112 6.84375 28.4714 6.5625Z" fill="#3577DA"/>
</svg>
